<svg xmlns="http://www.w3.org/2000/svg" viewBox="0 0 943.11 152.04"><defs><style>.cls-1{fill:#fdfdfd;}.cls-2{fill:#b3dc66;}.cls-3{fill:#aae051;}</style></defs><g id="Layer_2" data-name="Layer 2"><g id="Layer_1-2" data-name="Layer 1"><path class="cls-1" d="M775.35,126.11c0,2,0,3.39,0,4.79,0,1.22-.51,1.72-1.74,1.71q-12.4,0-24.81,0c-1.15,0-1.66-.5-1.54-1.63a8.66,8.66,0,0,0,0-1q0-59.84,0-119.67c0-1.81.49-2.31,2.33-2.28,7.85.09,15.71.08,23.56,0,1.75,0,2.25.55,2.24,2.23-.06,15.93,0,31.86,0,47.79V60.5c1.09-.72,1.82-1.14,2.48-1.65,16-12.33,37.24-9.47,50.2,5.22,15.11,17.13,14.85,44.32-2.23,60.8-12.78,12.33-33.06,14.87-48.47,2.68C776.87,127.18,776.37,126.85,775.35,126.11ZM775.07,93c.48,2.39.77,4.83,1.48,7.15,2.6,8.45,12.7,13.37,21,10.52A18.39,18.39,0,0,0,809.62,89c-2.38-8.88-10.3-14.76-19.58-13.73C781.87,76.15,775.14,84.23,775.07,93Z"/><path class="cls-1" d="M522.15,132.46V126A40,40,0,0,1,509,133.6c-12.83,4.08-24.6,1.86-34.86-6.52-11.29-9.24-16-21.53-15.53-35.77A41.76,41.76,0,0,1,471.87,61.5c13.89-13.24,34.74-13.9,49.13-1.61.25.22.55.39,1.16.82V53.47h28.05v79Zm0-38c.24-3.76-.37-6.47-2.42-10.58-3.83-7.71-14.59-11.08-22.25-7-11.2,6-13.52,20.06-4.83,29.24,4.89,5.16,13.49,6.9,19.65,3.71S521.62,101.31,522.13,94.48Z"/><path class="cls-1" d="M894.74,135.74c-10.57-.1-21.38-2.88-30.41-10.23-12.43-10.12-17.37-23.34-15.08-39,3-20.08,19.36-33,38.93-35.41,11.91-1.44,23.41-.08,33.88,6,13.26,7.67,20.35,19.22,21,34.32.84,19.43-11.47,36.16-30.5,41.84A60.29,60.29,0,0,1,894.74,135.74ZM913.86,93c-.09-9.93-8.38-18.31-18-18.18a18.11,18.11,0,0,0-17.83,18.63c.18,9.94,7.67,17.9,17.78,18.08C905.67,111.7,914,103.08,913.86,93Z"/><path class="cls-1" d="M685.75,50.59c14,.22,25.64,3.48,35.08,12.26,10.55,9.79,14.48,21.94,12.76,36A39.24,39.24,0,0,1,721.42,123C714.05,130,705,133.88,694.85,135.2a55.41,55.41,0,0,1-28.33-3.2c-18.06-7.29-28.75-24.36-26.76-43,1.87-17.42,13.12-30.4,29.84-35.72a57.28,57.28,0,0,1,8.48-2C681,50.83,684,50.74,685.75,50.59Zm19,42.81A18.22,18.22,0,0,0,687,74.83c-9.65-.28-18,8.09-18.09,18.23a18.24,18.24,0,0,0,17.84,18.49C696.42,111.67,704.51,103.5,704.73,93.4Z"/><path class="cls-1" d="M403.11,97.81H344.92c-.84,10.14,4.85,17.63,15,17.87a25.61,25.61,0,0,0,8.38-1c5-1.64,7.72-5.3,7.85-10.72h26.8a26.89,26.89,0,0,1-5.16,17c-4.36,6-10.62,9.5-17.59,11.65-9.43,2.91-19.1,4-28.9,1.86-10.79-2.33-20.11-7.13-26.92-15.93a36.36,36.36,0,0,1-7.27-18.12c-1.14-9.25-.44-18.32,3.49-26.95,4.93-10.8,13.6-17.38,25-20.69a53.65,53.65,0,0,1,32.52.56c11,3.66,17.93,11.41,21.66,22C402.24,82.52,403.06,90,403.11,97.81ZM345.48,81.37h31c0-7.27-6.28-12.45-14.56-12.74C351.62,68.27,345.32,75.14,345.48,81.37Z"/><path class="cls-1" d="M417.29,132.54V8.24h27.84v124.3Z"/><path class="cls-1" d="M235.68,53.51h8.67V29.94h28.27V98.89c0,8.26,4,12.7,12.35,13.72.55.07,1.09.16,1.69.25v22.6A68.53,68.53,0,0,1,266.31,133a34.17,34.17,0,0,1-12.57-6.41,24.65,24.65,0,0,1-9-18.56c-.37-9.24-.21-18.5-.28-27.75,0-.8,0-1.6,0-2.55h-8.79Z"/><path class="cls-1" d="M595.3,132.5H567.46V53.64H595.3Z"/><path class="cls-2" d="M632.18,69.23a15.53,15.53,0,1,1-31.06-.09,15.53,15.53,0,1,1,31.06.09Z"/><path class="cls-2" d="M309,69.14a15.52,15.52,0,1,1-31,.12,15.52,15.52,0,1,1,31-.12Z"/><path class="cls-3" d="M122.88,81.7v31.71a43.91,43.91,0,0,0,1.3,11.06c2.34,9,7.75,14.89,15.8,17.16a29.21,29.21,0,0,0,8,1,39.59,39.59,0,0,0,6.34-.63,26.11,26.11,0,0,0,6.45-17.14V81.7Zm37.87-15.6v-39c0-15-12.83-27.14-28.67-27.14H28.71C12.87,0,0,12.11,0,27.09v97.82C0,139.89,12.83,152,28.66,152H123.2c-10.94-7.23-17.06-20.6-17.06-38.66V81.7H89.85a2.68,2.68,0,0,1-2.77-2.6V69.39c.17-.4.32-.81.46-1.23A2.8,2.8,0,0,1,89.83,67h5.48a24.15,24.15,0,0,0,4.33-.33c5.54-1,7.45-4.36,7.45-11.93V44.38a2.22,2.22,0,0,1,.08-.63,2.74,2.74,0,0,1,2.68-2h10.26a2.74,2.74,0,0,1,2.69,2,2.65,2.65,0,0,1,.08.63V66.1ZM43.46,63.3c-8.17,0-14.8-6.27-14.8-14s6.63-14,14.8-14,14.79,6.26,14.79,14-6.62,14-14.79,14ZM88.72,28.92a.38.38,0,0,1-.49-.08l-3.14-4.36a.34.34,0,0,1,.09-.46,52.7,52.7,0,0,1,56.9.26.32.32,0,0,1,.09.46L139,29.07a.32.32,0,0,1-.22.13h-.06a.37.37,0,0,1-.21-.06,46.06,46.06,0,0,0-49.77-.22Zm8.45,8.29a.34.34,0,0,1-.26,0,.37.37,0,0,1-.22-.14l-3.15-4.35a.34.34,0,0,1,.09-.46,36.55,36.55,0,0,1,39.45.18.33.33,0,0,1,.09.46L130,37.28a.36.36,0,0,1-.22.13h-.06a.36.36,0,0,1-.2-.06,30,30,0,0,0-32.27-.14Z"/></g></g></svg>