<svg id="Layer_12" data-name="Layer 12" xmlns="http://www.w3.org/2000/svg" viewBox="0 0 268.23 276"><defs><style>.cls-1{fill:#aae051;}</style></defs><path class="cls-1" d="M194.43,146.53v47.58a69.75,69.75,0,0,0,1.84,16.6c3.32,13.47,11,22.34,22.43,25.75A39.36,39.36,0,0,0,230.07,238a53.89,53.89,0,0,0,9-.94,40.51,40.51,0,0,0,9.16-25.72V146.53Zm53.76-23.41V64.65a40.71,40.71,0,0,0-40.71-40.72H60.75A40.7,40.7,0,0,0,20,64.65V211.36a40.7,40.7,0,0,0,40.71,40.71H194.88c-15.53-10.84-24.21-30.9-24.21-58V146.53H147.54a3.92,3.92,0,0,1-3.93-3.93V128.41c0-.12,0-.24,0-.36.24-.59.46-1.21.65-1.84a3.93,3.93,0,0,1,3.26-1.73h7.78a32.08,32.08,0,0,0,6.14-.49c7.87-1.48,10.57-6.54,10.57-17.9V90.52a3.67,3.67,0,0,1,.12-.94,3.92,3.92,0,0,1,3.81-3H190.5a3.92,3.92,0,0,1,3.81,3,3.67,3.67,0,0,1,.12.94v32.6Zm-166.5-4.21a21,21,0,1,1,21-21A21,21,0,0,1,81.69,118.91Zm64.25-51.59a.5.5,0,0,1-.69-.12l-4.47-6.54a.56.56,0,0,1-.07-.36.46.46,0,0,1,.2-.32,71.4,71.4,0,0,1,80.78.39.5.5,0,0,1,.12.69l-4.53,6.49a.48.48,0,0,1-.31.2h-.09a.52.52,0,0,1-.29-.09A62.44,62.44,0,0,0,145.94,67.32Zm12,12.44a.51.51,0,0,1-.38.08.5.5,0,0,1-.31-.21l-4.47-6.53a.51.51,0,0,1,.13-.69,49.53,49.53,0,0,1,56,.28.49.49,0,0,1,.12.68l-4.53,6.5a.57.57,0,0,1-.32.2h-.08a.52.52,0,0,1-.29-.09A40.58,40.58,0,0,0,158,79.76Z"/></svg>