<?xml version="1.0" encoding="utf-8"?>
<!-- Generator: Adobe Illustrator 16.0.0, SVG Export Plug-In . SVG Version: 6.00 Build 0)  -->
<!DOCTYPE svg PUBLIC "-//W3C//DTD SVG 1.1//EN" "http://www.w3.org/Graphics/SVG/1.1/DTD/svg11.dtd">
<svg version="1.1" id="lawnmower" xmlns="http://www.w3.org/2000/svg" xmlns:xlink="http://www.w3.org/1999/xlink" x="0px" y="0px"
	 width="673px" height="650px" viewBox="0 0 673 650" enable-background="new 0 0 673 650" xml:space="preserve">
<g id="mower_parts">
	<polygon stroke="#A89187" stroke-width="1.133" stroke-linejoin="round" points="630.447,490.575 632.083,490.826 633.718,490.826 
		637.114,491.705 640.259,493.215 643.403,495.606 646.422,498.246 649.063,501.516 651.956,505.165 654.346,509.441 
		656.484,514.222 658.496,519.253 660.383,524.787 661.767,530.572 662.772,536.482 663.905,542.771 664.408,549.188 
		664.659,555.98 664.408,559.25 664.408,562.393 664.156,568.81 663.401,574.847 662.521,580.633 661.515,585.787 659.88,590.818 
		658.245,595.599 656.484,600.003 654.094,604.027 651.704,607.422 648.812,610.44 645.541,613.335 642.146,615.472 
		638.372,617.483 634.473,618.618 630.196,619.372 607.934,622.012 607.682,618.114 607.682,613.838 607.431,605.912 
		607.179,597.61 607.179,589.688 606.927,581.26 606.676,573.21 606.676,565.036 606.55,556.607 606.55,548.685 606.298,540.384 
		606.298,532.457 606.047,524.284 605.795,515.982 605.795,507.805 605.544,499.631 605.544,491.581 	"/>
	<polygon stroke="#A89187" stroke-width="1.133" stroke-linejoin="round" points="640.51,556.607 640.51,550.949 640.259,545.415 
		639.252,539.88 638.372,534.346 637.365,529.063 635.982,523.78 634.221,519.253 632.586,514.725 630.447,510.448 628.31,506.547 
		625.92,503.025 623.53,500.135 620.889,497.239 617.996,495.104 615.103,493.466 612.21,492.208 609.065,491.581 606.298,491.33 
		603.405,491.581 600.261,492.208 597.368,493.466 594.475,495.104 591.834,497.239 589.318,500.135 586.677,503.025 
		584.287,506.547 582.023,510.448 580.137,514.725 578.25,519.253 576.614,523.78 575.105,529.063 574.225,534.346 573.219,539.88 
		572.464,545.415 572.212,550.949 571.961,556.607 572.212,562.393 572.464,568.179 573.219,573.589 574.225,579.123 
		575.105,584.406 576.614,589.438 578.25,594.217 580.137,598.745 582.023,603.021 584.287,606.667 586.677,610.316 
		589.318,613.335 591.834,615.975 594.475,618.366 597.368,619.876 600.261,621.006 603.405,621.76 606.298,622.012 609.065,621.76 
		612.21,621.006 615.103,619.876 617.996,618.366 620.889,615.975 623.53,613.335 625.92,610.316 628.31,606.667 630.447,603.021 
		632.586,598.745 634.221,594.217 635.982,589.438 637.365,584.406 638.372,579.123 639.252,573.589 640.259,568.179 
		640.51,562.393 	"/>
	
		<line fill="none" stroke="#A89187" stroke-width="1.133" stroke-linejoin="round" x1="641.391" y1="559.502" x2="663.905" y2="558.116"/>
	
		<line fill="none" stroke="#A89187" stroke-width="1.133" stroke-linejoin="round" x1="641.139" y1="554.723" x2="663.401" y2="553.337"/>
	
		<line fill="none" stroke="#A89187" stroke-width="1.133" stroke-linejoin="round" x1="641.391" y1="549.942" x2="664.156" y2="548.557"/>
	
		<line fill="none" stroke="#A89187" stroke-width="1.133" stroke-linejoin="round" x1="641.014" y1="545.163" x2="663.401" y2="543.653"/>
	
		<line fill="none" stroke="#A89187" stroke-width="1.133" stroke-linejoin="round" x1="639.252" y1="534.598" x2="661.767" y2="533.464"/>
	
		<line fill="none" stroke="#A89187" stroke-width="1.133" stroke-linejoin="round" x1="638.372" y1="530.069" x2="660.887" y2="528.812"/>
	
		<line fill="none" stroke="#A89187" stroke-width="1.133" stroke-linejoin="round" x1="637.617" y1="525.29" x2="659.88" y2="524.032"/>
	
		<line fill="none" stroke="#A89187" stroke-width="1.133" stroke-linejoin="round" x1="635.479" y1="521.014" x2="657.993" y2="519.504"/>
	
		<line fill="none" stroke="#A89187" stroke-width="1.133" stroke-linejoin="round" x1="633.718" y1="515.982" x2="656.232" y2="514.725"/>
	
		<line fill="none" stroke="#A89187" stroke-width="1.133" stroke-linejoin="round" x1="631.58" y1="511.454" x2="653.591" y2="509.945"/>
	
		<line fill="none" stroke="#A89187" stroke-width="1.133" stroke-linejoin="round" x1="629.441" y1="506.799" x2="651.453" y2="505.417"/>
	
		<line fill="none" stroke="#A89187" stroke-width="1.133" stroke-linejoin="round" x1="626.549" y1="502.773" x2="648.56" y2="501.392"/>
	
		<line fill="none" stroke="#A89187" stroke-width="1.133" stroke-linejoin="round" x1="622.775" y1="498.749" x2="644.786" y2="497.239"/>
	
		<line fill="none" stroke="#A89187" stroke-width="1.133" stroke-linejoin="round" x1="619.128" y1="495.104" x2="640.51" y2="493.718"/>
	
		<line fill="none" stroke="#A89187" stroke-width="1.133" stroke-linejoin="round" x1="614.097" y1="492.46" x2="635.73" y2="491.581"/>
	
		<line fill="none" stroke="#A89187" stroke-width="1.133" stroke-linejoin="round" x1="640.259" y1="540.635" x2="662.772" y2="539.377"/>
	
		<line fill="none" stroke="#A89187" stroke-width="1.133" stroke-linejoin="round" x1="641.139" y1="564.533" x2="663.401" y2="563.147"/>
	
		<line fill="none" stroke="#A89187" stroke-width="1.133" stroke-linejoin="round" x1="641.014" y1="570.318" x2="663.401" y2="569.061"/>
	
		<line fill="none" stroke="#A89187" stroke-width="1.133" stroke-linejoin="round" x1="640.51" y1="575.977" x2="663.276" y2="574.596"/>
	
		<line fill="none" stroke="#A89187" stroke-width="1.133" stroke-linejoin="round" x1="640.007" y1="580.757" x2="662.27" y2="579.626"/>
	
		<line fill="none" stroke="#A89187" stroke-width="1.133" stroke-linejoin="round" x1="638.372" y1="586.794" x2="660.887" y2="585.664"/>
	
		<line fill="none" stroke="#A89187" stroke-width="1.133" stroke-linejoin="round" x1="636.611" y1="592.831" x2="658.874" y2="591.573"/>
	
		<line fill="none" stroke="#A89187" stroke-width="1.133" stroke-linejoin="round" x1="634.473" y1="598.493" x2="657.238" y2="596.856"/>
	
		<line fill="none" stroke="#A89187" stroke-width="1.133" stroke-linejoin="round" x1="631.328" y1="604.279" x2="654.094" y2="602.391"/>
	
		<line fill="none" stroke="#A89187" stroke-width="1.133" stroke-linejoin="round" x1="628.058" y1="609.562" x2="651.075" y2="607.422"/>
	
		<line fill="none" stroke="#A89187" stroke-width="1.133" stroke-linejoin="round" x1="623.781" y1="614.341" x2="646.17" y2="612.201"/>
	
		<line fill="none" stroke="#A89187" stroke-width="1.133" stroke-linejoin="round" x1="617.241" y1="618.869" x2="639.001" y2="616.478"/>
	<polygon fill="#A89187" stroke="#000000" stroke-width="1.133" stroke-linejoin="round" points="607.934,510.951 609.065,511.203 
		612.461,511.83 614.852,513.088 616.989,514.473 619.128,516.357 621.141,518.873 623.027,521.265 624.662,524.284 
		626.171,527.426 627.555,530.824 628.813,534.598 629.693,538.495 630.447,542.52 631.202,547.048 631.328,551.324 631.58,555.98 
		631.328,560.76 631.202,565.288 630.447,569.313 629.693,573.589 628.813,577.486 627.555,581.26 626.171,584.657 624.662,587.8 
		623.027,590.695 621.141,593.462 619.128,595.599 616.989,597.61 614.852,598.996 612.461,600.254 610.323,600.881 
		607.934,601.133 606.676,601.133 603.154,600.254 601.016,598.996 598.877,597.61 596.739,595.599 594.727,593.462 592.84,590.695 
		591.456,587.8 589.947,584.657 588.312,581.26 587.306,577.486 586.174,573.589 585.419,569.313 584.916,565.288 584.413,560.76 
		584.413,555.98 584.413,553.716 584.413,551.324 584.916,547.048 585.419,542.52 586.174,538.495 587.306,534.598 588.312,530.824 
		589.947,527.426 591.456,524.284 592.84,521.265 594.727,518.873 596.739,516.357 598.877,514.473 601.016,513.088 603.154,511.83 
		605.544,511.203 	"/>
	<polygon fill="#FFFFFF" stroke="#000000" stroke-width="1.133" stroke-linejoin="round" points="599.129,516.609 605.795,536.23 
		611.329,536.23 616.738,515.982 614.6,514.977 612.713,513.97 610.826,513.339 608.939,513.088 606.676,513.088 604.286,513.591 
		601.896,514.725 	"/>
	<polygon fill="#FFFFFF" stroke="#000000" stroke-width="1.133" stroke-linejoin="round" points="600.01,595.223 605.795,572.958 
		611.958,572.958 617.744,594.72 615.857,596.102 614.097,597.359 612.21,598.114 610.071,598.493 607.934,598.493 605.544,598.114 
		602.902,597.107 	"/>
	<polygon fill="#FFFFFF" stroke="#000000" stroke-width="1.133" stroke-linejoin="round" points="621.141,550.194 629.19,543.905 
		630.196,552.079 630.196,559.502 629.19,564.03 628.562,569.313 622.021,566.669 	"/>
	<polygon fill="#A89187" stroke="#A89187" stroke-width="1.133" stroke-linejoin="round" points="139.911,72.613 150.225,73.493 
		159.784,75.254 169.847,79.782 182.551,85.568 193.871,91.98 207.455,101.54 212.486,105.816 217.266,113.742 217.769,118.271 
		212.486,110.596 209.089,106.319 204.562,102.294 198.399,98.018 192.362,94.121 185.694,89.593 179.029,85.945 174.877,83.807 
		167.709,80.914 160.287,77.896 151.861,75.883 145.445,75.002 139.66,74.5 	"/>
	<polygon fill="#A89187" stroke="#000000" stroke-width="1.133" stroke-linejoin="round" points="292.858,440.012 292.858,390.958 
		302.92,378.253 371.47,373.725 431.969,375.234 519.134,385.928 524.92,397.247 528.693,418.25 526.807,432.338 520.769,435.735 
		520.769,447.935 495.235,447.935 495.235,454.223 505.047,454.223 503.789,467.053 520.769,474.348 520.769,504.662 
		491.085,504.662 487.312,506.423 480.771,509.693 476.243,511.578 469.074,513.339 457.376,513.97 459.263,520.259 
		433.479,518.622 401.782,517.112 371.847,510.951 340.276,498.749 340.276,478.624 330.467,449.443 330.467,447.935 
		292.858,443.154 	"/>
	<polygon fill="#A89187" stroke="#000000" stroke-width="1.133" stroke-linejoin="round" points="52.999,278.512 100.165,275.618 
		98.279,263.167 151.861,264.8 185.694,272.475 241.164,274.108 306.065,335.867 353.734,359.386 369.96,372.595 371.847,373.977 
		302.92,381.399 299.901,385.173 299.901,388.818 297.261,409.697 295.122,410.077 295.122,418.25 297.261,419.257 298.644,442.651 
		159.784,555.729 66.959,525.29 70.733,519.253 72.872,513.842 74.381,507.05 75.136,498.749 75.513,452.087 74.885,421.648 
		70.733,384.793 58.533,318.382 54.76,304.798 47.086,300.27 47.086,287.82 	"/>
	<polygon fill="#FFFFFF" stroke="#000000" stroke-width="1.133" stroke-linejoin="round" points="181.545,418.25 49.98,288.575 
		55.891,280.397 87.335,279.391 104.065,277.506 103.562,266.058 151.231,267.192 181.796,274.108 200.285,275.869 238.397,276.372 
		290.721,328.32 304.681,340.268 352.226,362.908 366.187,373.725 302.669,381.65 296.758,392.468 191.607,397.247 	"/>
	<polygon fill="#A89187" stroke="#A89187" stroke-width="1.133" stroke-linejoin="round" points="170.601,394.855 61.677,291.214 
		61.677,284.925 78.91,284.925 118.907,284.17 123.687,288.071 116.265,292.851 87.714,295.994 	"/>
	<polygon fill="#A89187" stroke="#A89187" stroke-width="1.133" stroke-linejoin="round" points="128.969,286.183 205.316,284.673 
		209.592,287.82 128.969,290.962 	"/>
	<polygon fill="#A89187" stroke="#A89187" stroke-width="1.133" stroke-linejoin="round" points="167.961,352.47 312.479,343.162 
		314.492,344.796 203.682,352.47 197.896,356.998 167.961,356.998 	"/>
	<polygon stroke="#000000" stroke-width="1.133" stroke-linejoin="round" points="134.252,409.446 128.969,428.564 125.824,438.878 
		122.429,448.186 118.404,459.506 112.618,468.562 104.317,478.624 86.33,498.749 84.947,494.097 97.146,476.236 104.945,465.671 
		110.228,456.866 115.51,443.154 124.19,407.685 134.252,406.304 	"/>
	<polygon stroke="#000000" stroke-width="1.133" stroke-linejoin="round" points="138.277,441.773 137.019,456.363 134.252,469.316 
		128.969,483.152 122.302,495.354 114.127,501.516 106.203,507.554 96.392,510.951 92.618,509.19 104.317,499.38 114.127,491.33 
		121.799,481.016 127.46,464.916 130.604,453.469 132.113,440.012 	"/>
	<polygon fill="#A89187" stroke="#000000" stroke-width="1.133" stroke-linejoin="round" points="122.932,40.036 175.884,40.036 
		186.449,41.168 192.865,44.061 198.651,48.463 201.418,52.236 217.266,76.889 395.871,364.669 404.172,377.75 386.563,375.613 
		207.958,82.675 193.368,59.406 189.719,53.872 184.061,48.841 179.909,48.463 125.321,48.463 120.29,40.036 	"/>
	<polygon fill="#A89187" stroke="#000000" stroke-width="1.133" stroke-linejoin="round" points="201.418,460.137 9.228,57.016 
		7.844,50.602 7.34,47.708 8.347,42.677 10.737,39.281 15.266,37.395 83.94,37.395 87.335,46.199 22.686,46.199 19.793,46.954 
		19.039,49.092 19.542,52.236 217.266,455.608 205.316,456.866 	"/>
	<polygon fill="#A89187" stroke="#000000" stroke-width="1.133" stroke-linejoin="round" points="46.332,106.319 44.446,101.54 
		47.086,101.54 50.86,28.968 52.369,20.666 55.515,15.132 59.288,10.855 65.325,8.969 220.41,8.969 229.214,10.353 232.611,12.491 
		233.742,14.629 234.748,17.019 234.497,21.421 233.366,30.729 221.542,101.54 221.542,104.435 227.328,106.068 227.832,110.221 
		220.41,108.208 216.763,106.319 216.133,102.294 227.077,32.867 229.214,20.415 228.334,17.019 225.189,14.377 218.524,13.497 
		68.344,13.497 64.822,14.377 61.928,16.767 59.791,19.408 57.4,24.942 56.394,28.087 55.891,33.37 52.999,97.012 50.86,106.068 	
		"/>
	<polygon fill="#A89187" stroke="#000000" stroke-width="1.133" stroke-linejoin="round" points="68.596,153.992 72.745,146.065 
		76.267,143.929 80.543,142.923 229.465,142.923 243.553,141.789 249.59,142.544 253.363,146.065 263.049,160.656 292.858,213.862 
		288.833,222.415 251.226,161.662 247.956,157.513 244.559,154.495 239.024,152.985 233.366,152.354 92.618,152.354 87.965,152.985 
		85.323,152.985 83.186,154.243 82.683,156.631 81.298,160.656 81.298,165.436 81.801,179.147 78.91,172.355 	"/>
	<polygon fill="#4b6b17" stroke="#000000" stroke-width="1.133" stroke-linejoin="round" points="187.582,436.993 190.223,435.987 
		201.04,457.745 216.763,455.86 206.071,433.344 227.328,428.062 292.858,420.894 306.82,472.335 366.438,506.799 463.288,513.088 
		512.845,501.516 526.807,512.584 544.793,518.622 560.515,518.622 570.829,531.076 594.224,533.843 616.109,537.237 
		622.021,546.293 623.907,565.036 623.907,578.62 415.744,607.925 312.479,604.782 296.758,604.782 264.935,598.745 
		239.528,590.818 233.366,587.8 229.465,581.763 227.328,575.854 201.418,565.036 183.809,487.932 	"/>
	<polygon fill="#4b6b17" stroke="#000000" stroke-width="1.133" stroke-linejoin="round" points="120.29,36.892 128.215,57.016 
		132.113,64.688 139.911,66.324 139.911,67.582 138.277,83.178 112.367,83.178 105.951,81.166 102.556,73.745 86.33,44.564 
		83.186,36.892 	"/>
	<polygon fill="#A89187" stroke="#000000" stroke-width="1.133" stroke-linejoin="round" points="64.822,75.883 63.564,77.896 
		63.313,80.537 55.891,82.172 57.149,71.355 91.109,58.903 97.146,64.688 	"/>
	<polygon stroke="#000000" stroke-width="1.133" stroke-linejoin="round" points="92.618,40.036 114.379,40.036 126.327,66.324 
		112.367,66.324 	"/>
	<polygon fill="#4b6b17" stroke="#000000" stroke-width="1.133" stroke-linejoin="round" points="79.916,46.451 86.33,46.199 
		98.279,61.292 102.556,66.827 105.951,70.475 108.342,73.116 112.367,73.745 140.163,73.745 138.277,83.178 111.737,82.927 
		107.587,82.172 103.813,79.027 99.286,75.254 80.543,50.853 	"/>
	<polygon fill="#FFFFFF" stroke="#000000" stroke-width="1.133" stroke-linejoin="round" points="247.201,99.907 253.363,115.503 
		253.363,129.339 239.528,138.395 231.102,138.395 211.731,103.049 225.44,87.958 235.251,89.341 	"/>
	<polygon fill="#FFFFFF" stroke="#000000" stroke-width="1.133" stroke-linejoin="round" points="364.929,397.874 386.563,394.604 
		428.447,400.518 428.447,407.685 387.443,401.523 360.401,406.304 392.727,411.335 388.449,413.974 356.376,407.685 
		355.37,399.384 	"/>
	<polygon fill="#FFFFFF" stroke="#000000" stroke-width="1.133" stroke-linejoin="round" points="431.718,400.015 515.486,395.486 
		518.882,409.446 387.946,420.139 388.953,411.838 429.579,407.685 	"/>
	<polygon stroke="#FFFFFF" stroke-width="1.133" stroke-linejoin="round" points="386.312,383.787 394.613,382.154 411.216,382.154 
		416.247,382.657 420.523,385.173 416.373,388.063 401.782,388.315 389.33,387.437 385.054,385.676 384.802,384.29 	"/>
	<polygon fill="#4b6b17" stroke="#000000" stroke-width="1.133" stroke-linejoin="round" points="398.512,371.84 403.04,358.38 
		407.316,371.337 407.316,384.29 398.512,383.787 	"/>
	<polygon stroke="#000000" stroke-width="1.133" stroke-linejoin="round" points="209.592,332.346 203.682,331.34 200.285,329.451 
		196.89,327.063 185.694,316.749 182.551,312.976 182.551,309.326 187.079,308.823 182.551,303.165 179.657,303.165 
		174.877,304.043 172.992,306.435 172.992,312.221 174.877,315.615 182.551,323.665 194.499,333.979 199.53,337.125 
		207.204,338.759 213.869,338.255 	"/>
	<polygon fill="#4b6b17" stroke="#000000" stroke-width="1.133" stroke-linejoin="round" points="206.071,432.589 227.077,427.183 
		292.858,420.139 292.858,443.154 330.467,447.935 318.265,465.671 316.883,472.335 317.762,479.758 319.901,485.292 
		322.542,490.826 330.215,496.736 362.791,508.56 380.022,512.584 401.782,515.228 422.158,517.364 440.396,519.001 
		460.772,520.259 484.922,521.389 502.153,521.014 539.007,520.259 550.452,518.622 562.401,518.622 567.685,527.93 
		566.553,532.709 536.617,537.237 491.085,538.874 460.772,537.992 427.189,536.482 399.141,534.095 365.936,530.069 
		350.087,525.793 334.616,521.641 263.049,495.354 236.888,474.727 221.542,460.137 216.763,455.86 	"/>
	<polygon fill="#FFFFFF" stroke="#000000" stroke-width="1.133" stroke-linejoin="round" points="222.045,461.395 227.077,487.681 
		185.694,480.262 185.694,435.735 189.719,435.735 201.418,456.866 215.63,455.608 221.542,460.137 	"/>
	<polygon fill="#FFFFFF" stroke="#FFFFFF" stroke-width="1.133" stroke-linejoin="round" points="124.19,42.929 177.771,42.929 
		175.884,46.073 125.824,46.073 	"/>
	<polygon fill="#FFFFFF" stroke="#FFFFFF" stroke-width="1.133" stroke-linejoin="round" points="188.085,47.708 191.229,46.451 
		195.002,49.595 199.027,55.129 205.567,65.443 215.63,81.417 211.731,84.562 197.142,61.041 192.613,53.872 187.582,49.595 	"/>
	<polygon fill="#FFFFFF" stroke="#FFFFFF" stroke-width="1.133" stroke-linejoin="round" points="84.947,146.065 237.139,146.065 
		241.164,147.703 237.139,150.845 84.947,150.845 84.947,144.432 	"/>
	
		<rect x="58.533" y="41.419" fill="#FFFFFF" stroke="#FFFFFF" stroke-width="1.133" stroke-linejoin="round" width="24.149" height="3.145"/>
	<polygon fill="#A89187" stroke="#000000" stroke-width="1.133" stroke-linejoin="round" points="90.354,64.186 92.618,67.582 
		64.822,75.883 	"/>
	<polygon fill="#FFFFFF" stroke="#FFFFFF" stroke-width="1.133" stroke-linejoin="round" points="76.519,177.007 185.694,401.523 
		179.909,400.015 70.733,172.355 	"/>
	<polygon fill="#FFFFFF" stroke="#FFFFFF" stroke-width="1.133" stroke-linejoin="round" points="192.613,420.139 198.147,431.711 
		197.896,436.993 187.582,420.139 	"/>
	<polygon fill="#FFFFFF" stroke="#FFFFFF" stroke-width="1.133" stroke-linejoin="round" points="290.469,212.101 289.336,216.753 
		251.226,155.122 251.981,147.072 	"/>
	<polygon fill="#FFFFFF" stroke="#FFFFFF" stroke-width="1.133" stroke-linejoin="round" points="302.669,222.918 389.833,362.908 
		384.173,362.908 298.644,222.918 	"/>
	
		<line fill="none" stroke="#000000" stroke-width="1.133" stroke-linejoin="round" x1="239.528" y1="569.564" x2="245.062" y2="481.771"/>
	
		<line fill="none" stroke="#000000" stroke-width="1.133" stroke-linejoin="round" x1="231.353" y1="563.399" x2="235.251" y2="475.481"/>
	<polyline fill="none" stroke="#000000" stroke-width="1.133" stroke-linejoin="round" points="227.328,563.399 245.062,577.234 
		267.074,584.909 294.871,589.688 316.883,589.688 	"/>
	
		<line fill="none" stroke="#000000" stroke-width="1.133" stroke-linejoin="round" x1="229.465" y1="440.012" x2="286.947" y2="435.735"/>
	
		<line fill="none" stroke="#000000" stroke-width="1.133" stroke-linejoin="round" x1="244.811" y1="443.154" x2="288.833" y2="438.627"/>
	
		<line fill="none" stroke="#000000" stroke-width="1.133" stroke-linejoin="round" x1="300.531" y1="390.958" x2="348.452" y2="398.377"/>
	
		<line fill="none" stroke="#000000" stroke-width="1.133" stroke-linejoin="round" x1="300.531" y1="393.85" x2="348.452" y2="402.027"/>
	
		<line fill="none" stroke="#000000" stroke-width="1.133" stroke-linejoin="round" x1="300.783" y1="397.247" x2="349.207" y2="405.549"/>
	
		<line fill="none" stroke="#000000" stroke-width="1.133" stroke-linejoin="round" x1="298.644" y1="401.523" x2="354.238" y2="410.831"/>
	
		<line fill="none" stroke="#000000" stroke-width="1.133" stroke-linejoin="round" x1="300.28" y1="406.555" x2="359.521" y2="416.365"/>
	
		<line fill="none" stroke="#000000" stroke-width="1.133" stroke-linejoin="round" x1="298.644" y1="410.831" x2="371.721" y2="423.785"/>
	<polygon stroke="#000000" stroke-width="1.133" stroke-linejoin="round" points="196.387,308.448 202.927,309.326 205.567,310.963 
		209.089,313.479 220.661,323.665 223.555,328.32 223.555,331.34 219.403,331.843 223.555,337.628 226.825,337.628 231.102,336.37 
		233.366,334.23 233.366,328.444 231.102,324.923 223.555,316.749 211.731,306.687 206.701,303.541 199.027,301.907 
		192.362,302.159 	"/>
	<polygon fill="#A89187" points="299.398,384.793 363.797,396.241 359.521,397.623 297.889,386.682 	"/>
	<polygon fill="#A89187" points="293.864,412.968 386.94,429.067 386.94,430.453 293.864,413.974 	"/>
	<polygon fill="#A89187" points="389.833,413.974 385.809,456.866 381.657,456.866 386.563,412.341 	"/>
	<polygon stroke="#A89187" stroke-width="1.133" stroke-linejoin="round" points="224.938,567.424 229.717,569.313 238.397,574.847 
		245.943,580.13 255.627,583.399 266.571,587.045 291.979,590.695 313.737,592.831 321.914,593.211 322.542,604.53 296.003,604.53 
		265.565,598.493 237.391,589.688 230.723,584.406 225.692,577.989 220.661,573.589 211.731,569.564 218.524,566.166 	"/>
	<polygon stroke="#A89187" stroke-width="1.133" stroke-linejoin="round" points="418.637,565.288 422.913,561.89 445.679,558.747 
		600.01,540.132 606.676,541.138 610.071,542.269 613.719,543.653 616.486,545.918 617.492,552.33 599.129,576.731 594.224,582.769 
		411.845,609.562 413.857,584.909 413.982,577.234 415.24,571.952 416.247,569.313 	"/>
	<polygon stroke="#000000" stroke-width="1.133" stroke-linejoin="round" points="227.328,90.725 234.748,90.599 245.817,101.288 
		251.729,115.627 251.729,127.83 245.817,130.094 	"/>
	<polygon fill="#A89187" stroke="#000000" stroke-width="1.133" stroke-linejoin="round" points="237.139,98.146 237.139,83.178 
		233.366,83.178 233.366,67.582 244.056,67.582 244.056,82.675 241.416,83.304 241.416,102.294 	"/>
	<polygon fill="#A89187" stroke="#000000" stroke-width="1.133" stroke-linejoin="round" points="399.896,433.847 528.189,422.151 
		527.31,432.214 520.769,435.735 521.021,447.935 495.235,447.935 485.425,446.301 482.532,445.043 471.212,444.792 
		461.401,444.792 451.339,446.301 445.679,447.935 429.076,449.571 423.668,452.462 422.41,453.469 420.021,454.475 
		395.871,455.608 	"/>
	<polygon stroke="#000000" stroke-width="1.133" stroke-linejoin="round" points="346.063,451.332 358.263,452.462 358.263,463.027 
		356.376,465.671 350.59,466.677 347.194,464.916 346.313,463.027 	"/>
	<polygon fill="#A89187" stroke="#000000" stroke-width="1.133" stroke-linejoin="round" points="491.085,469.316 503.789,467.053 
		522.655,467.808 522.655,500.386 518.882,506.423 489.198,504.914 	"/>
	<polygon fill="#A89187" stroke="#000000" stroke-width="1.133" stroke-linejoin="round" points="291.727,468.059 292.481,462.021 
		294.871,458.751 312.479,454.223 330.97,448.438 332.353,449.443 341.534,479.758 332.353,481.771 329.585,483.655 
		328.579,489.317 331.725,497.742 310.594,487.932 298.644,480.262 295.249,475.733 	"/>
	<polyline fill="none" stroke="#000000" stroke-width="1.133" stroke-linejoin="round" points="268.96,490.826 292.858,501.516 
		320.404,510.951 340.276,515.73 360.401,520.259 	"/>
	<polyline fill="none" stroke="#000000" stroke-width="1.133" stroke-linejoin="round" points="275.249,489.317 298.644,498.749 
		324.806,506.423 346.313,512.584 373.859,518.622 	"/>
	<polyline fill="none" stroke="#000000" stroke-width="1.133" stroke-linejoin="round" points="285.06,487.932 286.947,487.932 
		310.594,496.988 	"/>
	
		<line fill="none" stroke="#000000" stroke-width="1.133" stroke-linejoin="round" x1="263.426" y1="446.05" x2="288.078" y2="442.903"/>
	
		<line fill="none" stroke="#000000" stroke-width="1.133" stroke-linejoin="round" x1="298.644" y1="419.257" x2="371.847" y2="432.338"/>
	
		<line fill="none" stroke="#000000" stroke-width="1.133" stroke-linejoin="round" x1="298.644" y1="423.785" x2="373.104" y2="436.238"/>
	
		<line fill="none" stroke="#000000" stroke-width="1.133" stroke-linejoin="round" x1="298.644" y1="428.062" x2="373.356" y2="439.633"/>
	
		<line fill="none" stroke="#000000" stroke-width="1.133" stroke-linejoin="round" x1="298.896" y1="431.459" x2="371.847" y2="443.406"/>
	
		<line fill="none" stroke="#000000" stroke-width="1.133" stroke-linejoin="round" x1="299.398" y1="435.735" x2="371.218" y2="447.683"/>
	<polygon fill="#A89187" points="425.806,449.192 427.692,449.192 427.441,500.638 425.051,498.246 	"/>
	<polygon fill="#A89187" points="293.864,442.024 382.915,455.608 382.915,454.603 381.28,456.615 293.864,442.903 	"/>
	<polygon fill="#A89187" points="388.953,427.307 527.31,414.98 527.561,416.365 389.33,429.57 	"/>
	<polygon fill="#A89187" points="385.809,455.608 403.04,452.462 401.782,454.603 383.419,456.866 	"/>
	<polygon fill="#A89187" points="420.021,453.217 420.523,472.084 419.266,471.457 418.637,452.462 	"/>
	<polygon fill="#A89187" stroke="#000000" stroke-width="1.133" stroke-linejoin="round" points="486.054,446.301 489.198,452.462 
		492.092,463.027 492.092,468.562 490.582,467.808 489.45,459.506 487.312,452.462 483.916,444.161 	"/>
	<polygon fill="#A89187" points="371.47,499.38 375.998,455.357 377.633,455.86 373.859,499.38 	"/>
	<polygon fill="#A89187" stroke="#A89187" stroke-width="1.133" stroke-linejoin="round" points="431.089,484.286 425.806,483.152 
		422.41,481.771 419.517,481.016 419.266,478.121 427.692,480.262 437.503,482.146 447.063,483.152 454.735,482.9 456.118,485.292 
		452.849,486.55 449.452,486.55 441.78,486.047 437,485.796 	"/>
	<polygon fill="#A89187" points="487.814,468.562 490.205,469.316 489.45,503.528 487.312,504.159 	"/>
	<polygon fill="#A89187" points="454.483,512.584 469.325,512.584 479.891,509.693 489.198,504.159 492.343,504.159 
		492.343,505.165 484.922,508.56 477.753,511.83 469.074,513.97 456.622,513.97 453.729,513.339 	"/>
	<polygon stroke="#000000" stroke-width="1.133" stroke-linejoin="round" points="50.483,299.767 185.443,426.68 190.977,436.49 
		186.449,440.012 183.557,485.544 175.381,484.789 173.495,451.584 169.847,437.369 163.684,420.391 97.776,356.998 91.36,355.109 
		82.305,354.104 77.776,360.393 82.305,385.424 87.084,421.396 87.714,447.935 85.826,481.016 82.935,454.475 81.298,427.558 
		78.658,399.887 75.136,373.725 71.487,354.104 64.067,336.37 60.419,317.504 56.897,309.578 	"/>
	<polygon stroke="#000000" stroke-width="1.133" stroke-linejoin="round" points="292.858,438.627 294.619,441.773 297.638,443.406 
		328.579,448.186 334.113,449.571 339.145,450.829 356.376,503.528 364.049,506.423 342.666,506.423 335.246,504.411 
		312.479,490.575 293.109,487.177 275.249,462.776 273.488,450.577 291.476,447.056 294.871,441.773 	"/>
	<polygon fill="#FFFF00" stroke="#000000" stroke-width="1.133" stroke-linejoin="round" points="330.467,447.935 338.642,451.081 
		356.376,504.662 348.452,501.516 	"/>
	<polygon fill="#FFFFFF" stroke="#FFFFFF" stroke-width="1.133" stroke-linejoin="round" points="269.715,489.82 294.619,500.889 
		318.517,508.938 344.679,516.234 380.525,522.646 407.064,526.296 435.868,528.812 465.552,529.818 488.443,529.818 
		505.298,527.93 506.179,526.296 500.645,525.29 481.274,525.29 454.483,525.29 433.855,524.284 413.605,522.646 396.122,520.762 
		378.891,518.873 360.401,516.234 343.673,511.578 321.411,505.165 303.926,497.994 289.084,493.466 269.715,488.184 	"/>
	<polygon fill="#FFFFFF" stroke="#FFFFFF" stroke-width="1.133" stroke-linejoin="round" points="562.024,518.622 557.119,517.615 
		546.931,518.873 555.232,519.756 560.515,521.389 563.659,524.284 565.043,527.426 567.685,531.703 567.685,526.296 
		564.791,520.762 	"/>
	<polyline fill="none" stroke="#FFFFFF" stroke-width="7.0436" stroke-linejoin="round" points="414.486,561.135 418.763,556.858 
		422.913,555.98 428.824,554.723 590.198,536.482 	"/>
	<polygon stroke="#000000" stroke-width="7.0436" stroke-linejoin="round" points="328.579,447.18 385.557,456.99 394.361,457.493 
		403.04,458.248 420.271,458.248 422.41,454.854 432.473,449.571 448.32,446.05 462.407,445.043 476.243,444.412 483.916,445.546 
		495.235,447.935 495.235,453.469 489.45,453.217 478.13,453.217 481.274,469.316 485.425,470.954 488.695,485.292 488.695,503.78 
		479.891,507.554 468.193,511.578 457.88,511.578 445.428,509.19 431.718,504.159 424.297,497.742 421.403,491.581 419.014,476.488 
		419.517,469.316 389.078,469.316 386.06,480.01 391.972,488.184 392.475,497.239 374.991,496.736 376.249,471.457 364.929,469.696 
		364.929,463.279 358.515,462.776 342.163,460.389 339.773,453.469 335.75,452.462 332.855,452.087 332.855,453.217 	"/>
	<polygon fill="#A89187" stroke="#000000" stroke-width="1.133" stroke-linejoin="round" points="460.521,445.043 460.27,473.09 
		457.628,474.096 457.88,445.546 459.012,445.043 	"/>
	<polygon fill="#A89187" stroke="#000000" stroke-width="1.133" stroke-linejoin="round" points="456.622,486.926 453.729,482.9 
		455.489,480.513 456.118,477.618 458.509,476.236 461.401,476.739 463.162,477.618 462.659,479.255 462.659,481.771 
		460.27,484.789 	"/>
	<polygon fill="#A89187" points="431.089,484.286 425.806,483.152 422.41,481.771 419.517,481.016 419.266,478.121 427.692,480.262 
		437.503,482.146 447.063,483.152 454.735,482.9 456.118,485.292 452.849,486.55 449.452,486.55 441.78,486.047 437,485.796 	"/>
	<polygon fill="#A89187" stroke="#000000" stroke-width="1.133" stroke-linejoin="round" points="389.833,469.316 420.523,469.947 
		420.523,490.826 425.555,500.135 435.365,507.805 457.376,513.97 458.76,519.504 427.692,517.615 388.198,513.339 376.752,511.578 
		369.709,509.693 369.96,498.749 391.972,498.749 391.972,487.932 385.809,481.771 387.946,472.335 	"/>
	<polygon stroke="#A89187" stroke-width="1.133" stroke-linejoin="round" points="409.958,360.771 410.461,354.104 408.071,352.219 
		401.153,352.219 397.758,353.601 397.758,355.74 389.33,356.243 389.33,357.501 383.167,357.501 377.381,357.501 373.607,358.38 
		369.709,360.393 367.822,362.532 365.936,365.172 364.678,368.19 364.678,371.337 364.3,374.228 368.325,373.725 369.331,368.442 
		371.218,365.551 373.607,362.908 377.381,361.526 382.664,361.526 388.953,361.526 388.449,362.532 388.953,363.662 
		396.751,363.662 397.758,365.551 409.958,365.551 	"/>
	<polygon fill="#FFFFFF" stroke="#FFFFFF" stroke-width="1.133" stroke-linejoin="round" points="297.889,395.486 200.788,403.408 
		197.393,405.801 198.399,409.697 207.958,427.558 209.592,422.151 209.592,417.496 212.738,414.477 219.906,413.471 
		297.01,404.918 	"/>
	<polygon stroke="#A89187" stroke-width="1.133" stroke-linejoin="round" points="219.906,485.544 185.443,480.513 183.557,483.655 
		198.399,496.361 208.838,515.73 212.235,531.703 212.989,547.551 212.486,557.11 210.599,568.558 241.416,577.234 238.145,558.747 
		227.328,539.629 225.692,525.542 223.68,508.308 222.045,492.46 221.542,486.047 	"/>
	<polygon fill="#FFFFFF" stroke="#FFFFFF" stroke-width="1.133" stroke-linejoin="round" points="22.686,41.419 50.86,41.419 
		48.974,44.564 21.428,44.564 	"/>
	<polygon fill="#FFFFFF" stroke="#FFFFFF" stroke-width="1.133" stroke-linejoin="round" points="13.756,57.016 12.12,52.488 
		11.365,49.092 13.126,44.564 15.266,41.419 17.151,44.815 16.145,46.702 15.266,50.35 15.517,53.872 19.542,61.796 16.648,61.796 	
		"/>
	<polygon fill="#FFFFFF" stroke="#FFFFFF" stroke-width="1.133" stroke-linejoin="round" points="21.679,64.688 63.313,151.348 
		60.922,153.992 17.151,64.688 	"/>
	<polygon stroke="#A89187" stroke-width="1.133" stroke-linejoin="round" points="190.223,471.832 191.859,471.832 193.62,471.832 
		196.89,472.838 200.033,474.476 203.179,476.739 206.322,479.255 208.838,482.649 211.48,486.55 214.121,490.826 216.26,495.354 
		218.272,500.638 219.906,505.92 221.542,511.578 222.8,517.615 223.555,523.78 223.931,530.572 224.183,536.985 224.183,540.384 
		223.931,543.653 223.68,549.942 223.052,555.98 222.297,561.638 221.291,566.921 219.655,572.203 218.021,576.731 216.133,581.008 
		213.869,585.16 211.229,588.683 208.461,591.573 205.316,594.469 201.921,596.604 198.147,598.241 193.996,599.751 
		189.971,600.506 167.458,603.272 167.458,599.248 167.206,595.223 166.955,586.794 166.955,578.872 166.955,570.822 
		166.703,562.393 166.576,554.219 166.576,546.042 166.325,537.992 166.073,530.069 166.073,521.641 166.073,513.339 
		165.821,505.165 165.57,496.988 165.318,489.189 165.318,481.016 165.318,472.587 	"/>
	<polygon stroke="#A89187" stroke-width="1.133" stroke-linejoin="round" points="200.285,537.992 200.285,532.206 199.782,526.42 
		199.027,521.014 198.147,515.73 196.89,510.196 195.757,505.165 193.996,500.386 192.362,495.857 190.223,491.581 188.085,487.681 
		185.694,484.286 183.054,481.016 180.412,478.373 177.771,476.236 174.877,474.476 171.734,473.342 168.967,472.587 
		166.073,472.335 162.93,472.587 160.036,473.342 157.144,474.476 154.376,476.236 151.734,478.373 148.842,481.016 
		146.452,484.286 144.063,487.681 141.924,491.581 139.66,495.857 138.025,500.386 136.389,505.165 134.88,510.196 134,515.73 
		132.994,521.014 132.24,526.42 132.113,532.206 131.861,537.992 132.113,543.526 132.24,549.188 132.994,554.723 134,560.257 
		134.88,565.791 136.389,570.822 138.025,575.602 139.66,580.13 141.924,584.154 144.063,588.052 146.452,591.573 148.842,594.469 
		151.734,597.359 154.376,599.499 157.144,601.133 160.036,602.391 162.93,603.021 166.073,603.272 168.967,603.021 
		171.734,602.391 174.877,601.133 177.771,599.499 180.412,597.359 183.054,594.469 185.694,591.573 188.085,588.052 
		190.223,584.154 192.362,580.13 193.996,575.602 195.757,570.822 196.89,565.791 198.147,560.257 199.027,554.723 199.782,549.188 
		200.285,543.526 	"/>
	
		<line fill="none" stroke="#A89187" stroke-width="1.133" stroke-linejoin="round" x1="201.04" y1="540.635" x2="223.555" y2="539.126"/>
	
		<line fill="none" stroke="#A89187" stroke-width="1.133" stroke-linejoin="round" x1="200.788" y1="535.855" x2="223.303" y2="534.346"/>
	
		<line fill="none" stroke="#A89187" stroke-width="1.133" stroke-linejoin="round" x1="201.291" y1="531.076" x2="223.68" y2="529.566"/>
	
		<line fill="none" stroke="#A89187" stroke-width="1.133" stroke-linejoin="round" x1="200.788" y1="526.296" x2="223.052" y2="525.038"/>
	
		<line fill="none" stroke="#A89187" stroke-width="1.133" stroke-linejoin="round" x1="199.027" y1="515.982" x2="221.542" y2="514.725"/>
	
		<line fill="none" stroke="#A89187" stroke-width="1.133" stroke-linejoin="round" x1="198.147" y1="511.203" x2="220.913" y2="509.945"/>
	
		<line fill="none" stroke="#A89187" stroke-width="1.133" stroke-linejoin="round" x1="197.142" y1="506.423" x2="219.655" y2="505.165"/>
	
		<line fill="none" stroke="#A89187" stroke-width="1.133" stroke-linejoin="round" x1="195.254" y1="502.019" x2="217.769" y2="500.889"/>
	
		<line fill="none" stroke="#A89187" stroke-width="1.133" stroke-linejoin="round" x1="193.62" y1="496.988" x2="216.133" y2="496.109"/>
	
		<line fill="none" stroke="#A89187" stroke-width="1.133" stroke-linejoin="round" x1="191.48" y1="492.46" x2="213.493" y2="490.826"/>
	
		<line fill="none" stroke="#A89187" stroke-width="1.133" stroke-linejoin="round" x1="189.216" y1="487.932" x2="211.102" y2="486.55"/>
	
		<line fill="none" stroke="#A89187" stroke-width="1.133" stroke-linejoin="round" x1="186.198" y1="483.907" x2="208.21" y2="482.397"/>
	
		<line fill="none" stroke="#A89187" stroke-width="1.133" stroke-linejoin="round" x1="182.551" y1="479.758" x2="204.562" y2="478.373"/>
	
		<line fill="none" stroke="#A89187" stroke-width="1.133" stroke-linejoin="round" x1="178.778" y1="476.236" x2="200.285" y2="474.979"/>
	
		<line fill="none" stroke="#A89187" stroke-width="1.133" stroke-linejoin="round" x1="173.998" y1="473.845" x2="195.254" y2="472.587"/>
	
		<line fill="none" stroke="#A89187" stroke-width="1.133" stroke-linejoin="round" x1="199.782" y1="521.641" x2="222.549" y2="520.511"/>
	
		<line fill="none" stroke="#A89187" stroke-width="1.133" stroke-linejoin="round" x1="200.788" y1="545.918" x2="223.303" y2="544.408"/>
	
		<line fill="none" stroke="#A89187" stroke-width="1.133" stroke-linejoin="round" x1="200.537" y1="551.324" x2="223.052" y2="550.194"/>
	
		<line fill="none" stroke="#A89187" stroke-width="1.133" stroke-linejoin="round" x1="200.285" y1="557.11" x2="222.8" y2="555.98"/>
	
		<line fill="none" stroke="#A89187" stroke-width="1.133" stroke-linejoin="round" x1="199.782" y1="562.142" x2="222.045" y2="560.884"/>
	
		<line fill="none" stroke="#A89187" stroke-width="1.133" stroke-linejoin="round" x1="198.147" y1="567.927" x2="220.913" y2="566.669"/>
	
		<line fill="none" stroke="#A89187" stroke-width="1.133" stroke-linejoin="round" x1="196.26" y1="573.841" x2="218.648" y2="572.707"/>
	
		<line fill="none" stroke="#A89187" stroke-width="1.133" stroke-linejoin="round" x1="193.996" y1="579.626" x2="217.015" y2="577.989"/>
	
		<line fill="none" stroke="#A89187" stroke-width="1.133" stroke-linejoin="round" x1="190.977" y1="585.412" x2="213.869" y2="583.399"/>
	
		<line fill="none" stroke="#A89187" stroke-width="1.133" stroke-linejoin="round" x1="187.582" y1="590.695" x2="210.85" y2="588.431"/>
	
		<line fill="none" stroke="#A89187" stroke-width="1.133" stroke-linejoin="round" x1="183.557" y1="595.599" x2="206.071" y2="593.462"/>
	
		<line fill="none" stroke="#A89187" stroke-width="1.133" stroke-linejoin="round" x1="177.017" y1="600.003" x2="198.651" y2="597.61"/>
	<polygon fill="#A89187" stroke="#000000" stroke-width="1.133" stroke-linejoin="round" points="167.709,491.957 168.967,492.208 
		172.237,493.215 174.877,494.097 176.765,495.857 179.029,497.491 180.915,499.883 182.551,502.522 184.185,505.165 
		185.946,508.56 187.331,511.83 188.337,515.982 189.468,519.756 190.223,523.78 190.977,528.181 191.229,532.709 191.48,537.237 
		191.229,541.765 190.977,546.293 190.223,550.697 189.468,554.723 188.337,558.495 187.331,562.393 185.946,565.791 
		184.185,569.061 182.551,571.952 180.915,574.596 179.029,576.731 176.765,578.872 174.877,580.381 172.237,581.26 
		170.098,582.015 167.709,582.266 166.576,582.266 162.93,581.26 160.539,580.381 158.401,578.872 156.514,576.731 154.501,574.596 
		152.616,571.952 150.979,569.061 149.346,565.791 148.088,562.393 146.955,558.495 145.948,554.723 145.194,550.697 
		144.691,546.293 144.314,541.765 144.063,537.237 144.063,534.85 144.314,532.709 144.691,528.181 145.194,523.78 145.948,519.756 
		146.955,515.982 148.088,511.83 149.346,508.56 150.979,505.165 152.616,502.522 154.501,499.883 156.514,497.491 158.401,495.857 
		160.539,494.097 162.93,493.215 165.318,492.46 	"/>
	<polygon stroke="#000000" stroke-width="1.133" stroke-linejoin="round" points="170.601,517.112 172.74,517.615 174.375,518.622 
		176.135,520.259 177.52,522.646 178.778,525.542 179.154,526.923 179.406,528.433 179.909,530.321 180.16,531.954 180.412,533.843 
		180.412,535.855 180.412,536.734 179.909,541.262 179.406,542.771 179.154,544.408 178.778,546.042 178.274,547.551 
		176.765,549.942 175.381,552.079 173.495,553.337 171.607,554.219 170.35,554.219 168.715,553.716 166.955,552.834 
		165.318,551.072 163.936,548.685 162.678,546.042 162.175,544.408 161.796,542.771 161.293,541.262 161.293,539.377 
		161.042,535.855 161.042,533.843 161.293,531.954 161.293,530.321 161.796,528.433 162.175,526.923 162.678,525.542 
		163.936,522.646 165.318,520.259 166.955,518.622 168.715,517.615 	"/>
	<polygon fill="#FFFFFF" stroke="#000000" stroke-width="1.133" stroke-linejoin="round" points="166.955,517.112 168.715,517.615 
		170.601,518.622 172.237,520.259 173.747,522.646 174.877,525.542 175.381,526.923 175.884,528.433 176.135,530.321 
		176.387,531.954 176.639,533.843 176.639,535.855 176.639,536.734 176.135,541.262 175.884,542.771 175.381,544.408 
		174.877,546.042 174.123,547.551 172.992,549.942 171.607,552.079 169.595,553.337 167.961,554.219 166.325,554.219 
		164.815,553.716 163.181,552.834 161.293,551.072 159.784,548.685 158.653,546.042 158.401,544.408 157.898,542.771 
		157.647,541.262 157.144,539.377 157.144,535.855 157.144,533.843 157.144,531.954 157.647,530.321 157.898,528.433 
		158.401,526.923 158.653,525.542 159.784,522.646 161.293,520.259 163.181,518.622 164.815,517.615 	"/>
	<polygon fill="#FFFFFF" stroke="#000000" stroke-width="1.133" stroke-linejoin="round" points="189.719,529.063 180.412,533.843 
		180.16,540.635 189.971,546.796 189.971,544.66 190.223,542.52 190.223,540.132 190.223,537.992 190.223,535.855 190.223,533.715 
		190.223,531.199 	"/>
	<polygon fill="#FFFFFF" stroke="#000000" stroke-width="1.133" stroke-linejoin="round" points="158.905,497.491 165.57,517.615 
		171.104,517.615 176.639,496.988 174.375,496.109 172.489,495.104 170.601,494.6 168.715,494.097 166.576,494.349 164.188,494.852 
		161.545,496.109 	"/>
	<polygon fill="#FFFFFF" stroke="#000000" stroke-width="1.133" stroke-linejoin="round" points="159.784,576.229 165.821,554.219 
		171.607,554.219 177.269,575.854 175.632,577.234 173.998,578.368 171.734,579.123 169.595,579.626 167.709,579.626 
		165.318,579.123 162.678,578.368 	"/>
	<polygon fill="#FFFFFF" stroke="#000000" stroke-width="1.133" stroke-linejoin="round" points="146.703,526.923 157.144,532.206 
		157.144,539.126 146.452,545.918 146.2,543.526 145.948,541.138 145.948,538.874 145.948,535.353 145.948,532.961 146.2,530.824 
		146.452,528.181 	"/>
	<polygon stroke="#A89187" stroke-width="1.133" stroke-linejoin="round" points="374.362,513.339 375.998,513.339 377.633,513.591 
		381.028,514.473 384.173,515.982 387.443,518.37 390.085,521.014 393.229,524.284 395.871,528.181 398.261,532.457 
		400.398,536.985 402.537,542.017 404.172,547.551 405.682,553.337 406.813,559.25 407.819,565.791 408.322,571.952 408.574,578.62 
		408.322,582.015 408.322,585.412 408.071,591.573 407.064,597.61 406.436,603.272 405.43,608.556 403.795,613.838 402.285,618.366 
		400.147,622.767 398.009,626.54 395.619,630.313 392.475,633.208 389.33,636.099 386.06,638.239 382.412,640.124 378.388,641.382 
		374.111,642.137 351.848,645.031 351.597,640.879 351.597,636.854 351.345,628.429 351.345,620.379 351.094,612.201 
		350.842,604.027 350.842,595.85 350.59,587.8 350.59,579.626 350.339,571.449 350.339,563.147 350.087,554.974 350.087,547.048 
		349.836,538.623 349.584,530.572 349.584,522.396 349.458,514.222 	"/>
	<polygon stroke="#A89187" stroke-width="1.133" stroke-linejoin="round" points="384.299,579.375 384.299,573.841 383.922,568.179 
		383.419,562.393 382.412,557.11 381.28,551.576 379.771,546.796 378.136,541.765 376.501,537.237 374.362,533.212 372.099,529.314 
		369.709,525.793 367.319,522.646 364.678,520.259 361.91,517.867 359.27,516.234 356.376,514.977 353.231,514.222 350.339,513.97 
		347.194,514.222 344.176,514.977 341.534,516.234 338.642,517.867 335.75,520.259 333.107,522.646 330.467,525.793 
		328.328,529.314 326.19,533.212 324.051,537.237 322.417,541.765 320.404,546.796 319.271,551.576 318.014,557.11 317.134,562.393 
		316.631,568.179 316.128,573.841 316.128,579.375 316.128,585.16 316.631,590.818 317.134,596.353 318.014,601.888 319.271,607.17 
		320.404,612.201 322.417,617.232 324.051,621.76 326.19,625.785 328.328,629.687 330.467,633.208 333.107,636.099 335.75,638.742 
		338.642,640.879 341.534,642.64 344.176,644.025 347.194,644.779 350.339,645.031 353.231,644.779 356.376,644.025 359.27,642.64 
		361.91,640.879 364.678,638.742 367.319,636.099 369.709,633.208 372.099,629.687 374.362,625.785 376.501,621.76 378.136,617.232 
		379.771,612.201 381.28,607.17 382.412,601.888 383.419,596.353 383.922,590.818 384.299,585.16 	"/>
	
		<line fill="none" stroke="#A89187" stroke-width="1.133" stroke-linejoin="round" x1="385.306" y1="582.266" x2="407.819" y2="580.757"/>
	
		<line fill="none" stroke="#A89187" stroke-width="1.133" stroke-linejoin="round" x1="385.054" y1="577.486" x2="407.316" y2="576.229"/>
	
		<line fill="none" stroke="#A89187" stroke-width="1.133" stroke-linejoin="round" x1="385.557" y1="572.455" x2="408.071" y2="571.197"/>
	
		<line fill="none" stroke="#A89187" stroke-width="1.133" stroke-linejoin="round" x1="384.802" y1="567.676" x2="407.064" y2="566.669"/>
	
		<line fill="none" stroke="#A89187" stroke-width="1.133" stroke-linejoin="round" x1="383.419" y1="557.361" x2="405.933" y2="556.104"/>
	
		<line fill="none" stroke="#A89187" stroke-width="1.133" stroke-linejoin="round" x1="382.412" y1="552.834" x2="404.675" y2="551.324"/>
	
		<line fill="none" stroke="#A89187" stroke-width="1.133" stroke-linejoin="round" x1="381.28" y1="548.054" x2="403.795" y2="546.796"/>
	
		<line fill="none" stroke="#A89187" stroke-width="1.133" stroke-linejoin="round" x1="379.52" y1="543.526" x2="401.782" y2="542.269"/>
	
		<line fill="none" stroke="#A89187" stroke-width="1.133" stroke-linejoin="round" x1="377.633" y1="538.874" x2="400.147" y2="537.488"/>
	
		<line fill="none" stroke="#A89187" stroke-width="1.133" stroke-linejoin="round" x1="375.494" y1="534.095" x2="397.758" y2="532.709"/>
	
		<line fill="none" stroke="#A89187" stroke-width="1.133" stroke-linejoin="round" x1="373.356" y1="529.566" x2="395.116" y2="528.181"/>
	
		<line fill="none" stroke="#A89187" stroke-width="1.133" stroke-linejoin="round" x1="370.212" y1="525.542" x2="392.475" y2="524.032"/>
	
		<line fill="none" stroke="#A89187" stroke-width="1.133" stroke-linejoin="round" x1="366.69" y1="521.389" x2="388.953" y2="520.008"/>
	
		<line fill="none" stroke="#A89187" stroke-width="1.133" stroke-linejoin="round" x1="363.042" y1="517.867" x2="384.551" y2="516.609"/>
	
		<line fill="none" stroke="#A89187" stroke-width="1.133" stroke-linejoin="round" x1="358.012" y1="515.228" x2="379.52" y2="514.222"/>
	
		<line fill="none" stroke="#A89187" stroke-width="1.133" stroke-linejoin="round" x1="384.173" y1="563.399" x2="406.562" y2="562.142"/>
	
		<line fill="none" stroke="#A89187" stroke-width="1.133" stroke-linejoin="round" x1="384.802" y1="587.297" x2="407.316" y2="586.039"/>
	
		<line fill="none" stroke="#A89187" stroke-width="1.133" stroke-linejoin="round" x1="384.802" y1="593.083" x2="407.064" y2="591.825"/>
	
		<line fill="none" stroke="#A89187" stroke-width="1.133" stroke-linejoin="round" x1="384.551" y1="598.745" x2="407.064" y2="597.61"/>
	
		<line fill="none" stroke="#A89187" stroke-width="1.133" stroke-linejoin="round" x1="383.922" y1="603.775" x2="406.436" y2="602.391"/>
	
		<line fill="none" stroke="#A89187" stroke-width="1.133" stroke-linejoin="round" x1="382.412" y1="609.562" x2="404.675" y2="608.304"/>
	
		<line fill="none" stroke="#A89187" stroke-width="1.133" stroke-linejoin="round" x1="380.525" y1="615.472" x2="402.788" y2="614.09"/>
	
		<line fill="none" stroke="#A89187" stroke-width="1.133" stroke-linejoin="round" x1="378.388" y1="621.257" x2="401.153" y2="619.624"/>
	
		<line fill="none" stroke="#A89187" stroke-width="1.133" stroke-linejoin="round" x1="374.991" y1="627.043" x2="398.009" y2="625.158"/>
	
		<line fill="none" stroke="#A89187" stroke-width="1.133" stroke-linejoin="round" x1="371.847" y1="632.325" x2="394.864" y2="630.189"/>
	
		<line fill="none" stroke="#A89187" stroke-width="1.133" stroke-linejoin="round" x1="367.822" y1="637.356" x2="390.085" y2="634.969"/>
	
		<line fill="none" stroke="#A89187" stroke-width="1.133" stroke-linejoin="round" x1="361.156" y1="641.633" x2="382.915" y2="639.245"/>
	<polygon fill="#A89187" stroke="#000000" stroke-width="1.133" stroke-linejoin="round" points="351.848,533.715 352.98,533.715 
		356.628,534.598 359.018,535.855 361.156,537.237 363.042,539.126 364.929,541.514 366.941,544.157 368.576,547.048 
		369.96,550.194 371.47,553.465 372.602,557.361 373.607,561.387 374.488,565.539 374.991,569.815 375.243,574.092 375.494,578.62 
		375.243,583.399 374.991,587.8 374.488,592.076 373.607,596.353 372.602,600.254 371.47,604.027 369.96,607.422 368.576,610.44 
		366.941,613.335 364.929,616.226 363.042,618.366 361.156,620.379 359.018,621.76 356.628,622.895 354.238,623.648 351.848,623.9 
		350.59,623.9 347.194,622.895 344.805,621.76 342.666,620.379 340.528,618.366 338.642,616.226 337.007,613.335 335.246,610.44 
		333.61,607.422 332.353,604.027 331.221,600.254 330.215,596.353 329.334,592.076 328.831,587.8 328.579,583.399 328.328,578.62 
		328.328,576.479 328.579,574.092 328.831,569.815 329.334,565.539 330.215,561.387 331.221,557.361 332.353,553.465 
		333.61,550.194 335.246,547.048 337.007,544.157 338.642,541.514 340.528,539.126 342.666,537.237 344.805,535.855 
		347.194,534.598 349.584,533.843 	"/>
	<polygon stroke="#000000" stroke-width="1.133" stroke-linejoin="round" points="354.867,558.747 356.879,559.25 358.515,560.257 
		360.401,561.89 361.91,564.281 362.791,566.921 363.546,568.558 363.797,570.067 364.3,571.952 364.3,573.589 364.426,575.602 
		364.426,577.234 364.426,578.368 364.3,583.021 363.797,584.406 363.546,586.039 362.791,587.8 362.539,589.186 361.156,591.573 
		359.521,593.462 357.76,594.972 355.873,595.599 354.489,595.85 352.98,595.475 351.345,594.469 349.584,592.58 348.2,590.695 
		346.817,587.8 346.313,586.039 346.063,584.406 345.56,583.021 345.56,581.008 345.308,577.234 345.308,575.602 345.56,573.589 
		345.56,571.952 346.063,570.067 346.313,568.558 346.817,566.921 348.2,564.281 349.584,561.89 351.345,560.257 352.98,559.25 	"/>
	<polygon fill="#FFFFFF" stroke="#000000" stroke-width="1.133" stroke-linejoin="round" points="351.094,558.747 352.98,559.25 
		354.615,560.257 356.376,561.89 358.012,564.281 359.27,566.921 359.521,568.558 359.898,570.067 360.401,571.952 360.401,573.589 
		360.652,575.602 360.652,577.234 360.652,578.368 360.401,583.021 359.898,584.406 359.521,586.039 359.27,587.8 358.515,589.186 
		357.005,591.573 355.621,593.462 353.986,594.972 352.1,595.599 350.59,595.85 349.207,595.475 347.194,594.469 345.56,592.58 
		344.176,590.695 342.918,587.8 342.415,586.039 342.163,584.406 341.786,583.021 341.534,581.008 341.534,577.234 341.534,575.602 
		341.534,573.589 341.786,571.952 342.163,570.067 342.415,568.558 342.918,566.921 344.176,564.281 345.56,561.89 347.194,560.257 
		349.207,559.25 	"/>
	<polygon fill="#FFFFFF" stroke="#000000" stroke-width="1.133" stroke-linejoin="round" points="373.859,570.57 364.678,575.602 
		364.426,582.266 374.111,588.431 374.111,586.291 374.362,583.903 374.488,581.763 374.488,579.626 374.488,577.486 
		374.488,575.35 374.111,572.958 	"/>
	<polygon fill="#FFFFFF" stroke="#000000" stroke-width="1.133" stroke-linejoin="round" points="342.918,539.126 349.836,559.25 
		355.37,559.25 360.652,538.874 358.515,537.74 356.628,536.734 354.615,536.107 352.729,535.855 350.59,535.855 348.2,536.482 
		345.811,537.488 	"/>
	<polygon fill="#FFFFFF" stroke="#000000" stroke-width="1.133" stroke-linejoin="round" points="343.924,617.863 349.836,595.85 
		355.873,595.85 361.659,617.483 359.898,618.869 358.012,619.876 356.125,620.754 353.986,621.257 351.848,621.257 
		349.458,620.754 346.817,619.876 	"/>
	<polygon fill="#FFFFFF" stroke="#000000" stroke-width="1.133" stroke-linejoin="round" points="330.97,568.81 341.534,573.841 
		341.534,580.757 330.467,587.297 330.215,585.16 330.215,582.769 330.215,580.633 330.215,576.731 330.215,574.596 
		330.215,572.203 330.718,569.815 	"/>
</g>
</svg>
