<svg id="Layer_1" data-name="Layer 1" xmlns="http://www.w3.org/2000/svg" viewBox="0 0 500 480"><title>Artboard 2 copy</title><rect x="-10" y="-9" width="519" height="499" style="fill:#171717"/><path d="M165.2,277.51a1.41,1.41,0,0,0-1.29-1.43,14.91,14.91,0,0,0-.81-1.53,1.39,1.39,0,0,0-1.23-.71l0,0a7.65,7.65,0,0,0-3-.91,1.56,1.56,0,0,0-2.74.9,5.58,5.58,0,0,1-9.57,3.61,1.53,1.53,0,0,0-1.81-.24c-.67.37-1.3.77-1.93,1.2a1.36,1.36,0,0,0-.73.08c-2,.76-3.08,2.58-4.24,4.23-.36.52-.71,1.05-1.06,1.58a23.48,23.48,0,0,0-2.55,4.47,1.74,1.74,0,0,0-.14.61c-.7,1.2-1.39,2.4-2.06,3.62a51.32,51.32,0,0,0-3.57,5.43c-1.13-.68-2.27-1.32-3.45-1.92a33.63,33.63,0,0,0-4.47-2.09,3.18,3.18,0,0,0-4,1.32,3.87,3.87,0,0,0,.56,4.09,29.57,29.57,0,0,0,7.73,6.71,5.17,5.17,0,0,0,2.8.91,1.52,1.52,0,0,0,.7.21,4.61,4.61,0,0,0,3.66-1.94,2,2,0,0,0,.19-.22,1.83,1.83,0,0,0,.39-.27q2.79-2.7,5.53-5.46c0,.13,0,.26,0,.4a32.67,32.67,0,0,0,.42,4.19,19,19,0,0,1,0,4.4c-.34,3-1.72,7.86-.3,11.06a1.56,1.56,0,0,0,.44,2.2l4.64,2.46a5.41,5.41,0,0,1,1.66,1,3.34,3.34,0,0,1,.29,2,1.74,1.74,0,0,0,0,.34,10.84,10.84,0,0,1,1,1h0c.08.09.14.19.21.28a20.38,20.38,0,0,1,1.47,1.89,1.64,1.64,0,0,0,.76-.18c.09-1.34.22-2.68.32-4,.07-.81.11-1.62.12-2.44a5,5,0,0,1,.35-2.23h0l.21-3.38c.07-1.16.11-2.34.18-3.52a92.4,92.4,0,0,1,2-9.32,11.46,11.46,0,0,1,3.07-3.33,45.94,45.94,0,0,1,8.37-5.22,1.44,1.44,0,0,0,.31-.22,1.47,1.47,0,0,0,1.24-1.4Q165.35,286.63,165.2,277.51Z" style="fill:#fff;opacity:0.079999998211861;isolation:isolate"/><path d="M137.87,248.37q-.5-9.33-.67-18.68a14.7,14.7,0,0,0,.1-3.11,1,1,0,0,0-1.51-.86c-.89.45-1.77.94-2.64,1.44a3.14,3.14,0,0,0-1,.32c-1.68.91-3.38,1.79-5.08,2.69-5.11,2.21-10.21,4.47-15.26,6.83q-4.31,2-8.59,4.09c-1.47.71-2.94,1.42-4.39,2.16a8.7,8.7,0,0,0-1.39.84,2.53,2.53,0,0,0-.55.44l-.08.09a2.56,2.56,0,0,0-.41.6,1.34,1.34,0,0,0-.11.14,1,1,0,0,0-.13.57,2.48,2.48,0,0,0,0,.94q.36,12.86.73,25.71a.29.29,0,0,0,0,.09c0,.78-.1,1.56-.11,2.33a1.35,1.35,0,0,0,.77,1.31,1.76,1.76,0,0,0,1.41-.2c.73-.3,1.45-.64,2.16-1a3.23,3.23,0,0,0,1-.25L133.06,261a1.71,1.71,0,0,0,.53-.38l.15,0a2.51,2.51,0,0,0,1.75-3.07,7.34,7.34,0,0,1-.57-3.64,6.78,6.78,0,0,1,.36-1.46,4.09,4.09,0,0,1,.7,0,3.56,3.56,0,0,1,.79.22l-.16-.07a1,1,0,0,0,.47.12,1,1,0,0,0,1-1q0-1.36,0-2.73A.89.89,0,0,0,137.87,248.37Z" style="fill:#2f4858"/><path d="M94.16,246.58a3.35,3.35,0,0,0-.44-.07,1.08,1.08,0,0,0-1.11.07,4.79,4.79,0,0,0-1.53.77,27.1,27.1,0,0,0-2.37,1.58l-3.92,2.72-3.88,2.68A7.83,7.83,0,0,0,79,255.89c-2.51,1.62-5,3.22-7.51,4.88-1.94,1.31-3.84,2.65-5.69,4.07-1.6,1.23-3.6,2.51-4.75,4.2s-.86,4.37-.91,6.39q-.1,3.93-.07,7.87.09,9,.86,17.92a1,1,0,0,0,1.51.86,8.32,8.32,0,0,0,2.09-1.61q7.13-5,14.21-10.1c4.92-3.52,10-6.91,14.74-10.66a.79.79,0,0,0,.17-1.15,13.18,13.18,0,0,0,.48-4.42c.12-3,.2-5.95.25-8.93.09-5.58,0-11.16-.09-16.74A1,1,0,0,0,94.16,246.58Z" style="fill:#2f4858"/><path d="M141.87,266.6c.2-.53-.65-1.33-.93-1.68-.76-.93-1.58-1.82-2.37-2.73a9.84,9.84,0,0,1-2-3.84c-.28-1-.47-2-.66-2.94s-.71-2.46.1-3.28h-.53c1.66,2.08,4.45,1.39,6.59.6a13.3,13.3,0,0,1,3.75-1.07,8.75,8.75,0,0,1,4.84,1.32,9.2,9.2,0,0,1,4,7.16c.26,3.1-1.12,6.07-.64,9.17l.46-.46c-1.8-.32-3.22.9-5,.95-2.28.08-3.51-2.26-4.45-4-.53-1-1.65-3.41-3.1-3.11-1.79.37-.25,2.68-.77,3.6-.23.42.41.8.65.38a2,2,0,0,0,.15-1.57c-.06-.31-.4-1-.17-1.31.62-.8,1.49.58,1.72.9.9,1.3,1.45,2.82,2.47,4a4.49,4.49,0,0,0,3.5,1.8c1.64-.05,3.09-1.28,4.76-1a.38.38,0,0,0,.46-.46c-.5-3.23,1-6.37.6-9.64a10,10,0,0,0-3.53-6.6,9,9,0,0,0-7.61-1.68c-2.46.67-6.08,3-8.18.41a.37.37,0,0,0-.53,0c-1.16,1.18-.48,3.09-.2,4.5a14.68,14.68,0,0,0,2,5.72,27.18,27.18,0,0,0,1.85,2.15c.43.49.86,1,1.27,1.48l.53.69c.08.1.16.38.21.26C141,266.85,141.7,267,141.87,266.6Z" style="fill:#fff"/><path d="M153.52,268.41c-.1,1.64-.09,4,1.88,4.57,1.38.36,2.83-.26,4.25,0a6.87,6.87,0,0,1,4.36,3.08c1.64,2.65,1.22,6,1,8.92l-.79,11.72c0,.49.71.48.75,0l.78-11.47c.19-2.84.54-5.84-.6-8.54a7.56,7.56,0,0,0-7.86-4.56,3.19,3.19,0,0,1-2.18-.12c-1.09-.7-.92-2.55-.86-3.65,0-.49-.72-.48-.75,0Z" style="fill:#fff"/><path d="M137.78,262.66a16.39,16.39,0,0,0,.47,4.83,10.54,10.54,0,0,0,1.67,3.82,4.07,4.07,0,0,0,2.9,1.71,2.92,2.92,0,0,0,2.78-1.35.38.38,0,0,0-.65-.38,2.25,2.25,0,0,1-2.45.93,3.84,3.84,0,0,1-2.42-2,14,14,0,0,1-1.55-7.54c0-.48-.72-.48-.75,0Z" style="fill:#fff"/><path d="M143.92,272.8a27.64,27.64,0,0,1,2.71,3.47l.13-.52c-2.36,1.11-5,2.05-7,3.78a19.72,19.72,0,0,0-4.14,5.68,126.54,126.54,0,0,1-9.2,14.49c-.28.39.37.76.65.38a118.18,118.18,0,0,0,8.84-13.82,22.11,22.11,0,0,1,4-5.82c2-1.91,4.8-2.88,7.26-4a.38.38,0,0,0,.14-.51,28.4,28.4,0,0,0-2.83-3.62c-.34-.35-.87.18-.53.53Z" style="fill:#fff"/><path d="M145.64,276.86a6.35,6.35,0,0,0,5.85,2.67,5.7,5.7,0,0,0,4.74-4,5.57,5.57,0,0,0-.06-3.65c-.17-.45-.9-.25-.72.2a5.13,5.13,0,0,1-2.42,6.22,5.47,5.47,0,0,1-6.74-1.83c-.27-.4-.92,0-.65.38Z" style="fill:#fff"/><path d="M128.6,297.65l-6.83-3.28c-1.5-.72-2.82-1.82-4.28-.6a4.81,4.81,0,0,0-2,4.29c.27,1.62,1.57,2.78,2.76,3.79,1.75,1.47,3.48,3,5.29,4.38a7.74,7.74,0,0,0,5.29,2c2-.18,3.2-1.9,4.47-3.22l5.18-5.39c2.94-3.05,7.22-6.74,5.83-11.5a.37.37,0,0,0-.72.2c1.38,4.72-3.46,8.5-6.33,11.49l-5.18,5.39c-.85.88-1.67,2-2.93,2.23a5.32,5.32,0,0,1-3.68-.8,37.22,37.22,0,0,1-5.21-4.09c-1.52-1.27-4.21-2.94-4.07-5.23a4.45,4.45,0,0,1,1.68-2.89c1.1-1,2.63.16,3.73.69l6.61,3.18c.44.2.82-.44.38-.65Z" style="fill:#fff"/><path d="M137.43,299.92a35.52,35.52,0,0,1,.73,5.72,30.41,30.41,0,0,1-.59,5.86c-.55,3.31-1,6.72.16,9.95.17.45.9.26.73-.2-1.38-3.66-.46-7.47.1-11.19a30.2,30.2,0,0,0-.41-10.34c-.09-.48-.81-.27-.72.2Z" style="fill:#fff"/><path d="M150.2,311.27c-.68,5-1.24,10-1.64,15-.21,2.56-.39,5.13-.52,7.71-.06,1.13-.12,2.25-.26,3.37a7.61,7.61,0,0,0-.07,2.13,2.75,2.75,0,0,0,2.76,2.47c2,0,3.88-1.57,5.49-2.51,4.34-2.52,8.6-5.15,12.91-7.71,1.62-1,3.68-2,4.87-3.51,1-1.34,1.08-3.16,1-4.78a103.45,103.45,0,0,1,.68-14.83q.5-3.92,1.34-7.77c.52-2.37,1.32-4.69,1.8-7.06.23-1.12.26-2.62-.94-3.2-1.65-.8-3.9,1-5.29,1.7-4.92,2.55-9.86,5.1-14.55,8.07-1.94,1.23-4.14,2.47-5.53,4.35s-1.79,4.3-2.1,6.58c-.07.47.65.68.72.2a16.57,16.57,0,0,1,1.41-5.41c1-2,3.06-3.24,4.91-4.45,3.49-2.27,7.13-4.29,10.81-6.23,1.83-1,3.68-1.93,5.53-2.89.77-.4,2.41-1.59,3.28-1.37a1.58,1.58,0,0,1,1.14,1.59,5.76,5.76,0,0,1-.27,1.48A110.58,110.58,0,0,0,175,306.64a93.91,93.91,0,0,0-1,12.53c0,1.88.13,3.78,0,5.66a5.54,5.54,0,0,1-.66,2.59,8.36,8.36,0,0,1-2.68,2.29c-3.42,2.26-7,4.32-10.55,6.4-1.86,1.11-3.72,2.19-5.59,3.28-1.57.91-5.15,3.35-6,.32a7.19,7.19,0,0,1,.07-2.81c.11-.89.14-1.79.18-2.69q.19-3.73.5-7.47c.4-5.11,1-10.2,1.65-15.27C151,311,150.26,310.8,150.2,311.27Z" style="fill:#fff"/><path d="M131.57,317.44c-1.22-.65-2.78-1.31-4-.29a2,2,0,0,0-.09,2.82c1.51,2,4.13,3.16,6.16,4.57q2.59,1.79,5.31,3.39c1.31.78,3,2.05,4.66,1.41a2.85,2.85,0,0,0,1.71-2.91c-.2-1.18-1.45-1.9-2.4-2.44-3.81-2.15-7.5-4.48-11.36-6.55-.43-.23-.81.42-.38.64q4.14,2.22,8.15,4.67,1.59,1,3.21,1.89c.93.52,2.32,1.27,2,2.55a2.23,2.23,0,0,1-1.11,1.42c-.93.44-2-.13-2.82-.58-1.35-.75-2.67-1.56-4-2.4-2-1.29-4-2.63-6-4a9.1,9.1,0,0,1-2.64-2.3,1.17,1.17,0,0,1,.42-1.85c.92-.45,2,.14,2.79.56C131.62,318.31,132,317.66,131.57,317.44Z" style="fill:#fff"/><path d="M145,328.56a4.9,4.9,0,0,1,2.33,2.36,9.21,9.21,0,0,1,.56,3.86.38.38,0,0,0,.75,0,10,10,0,0,0-.66-4.24,5.62,5.62,0,0,0-2.6-2.63c-.43-.21-.81.44-.38.65Z" style="fill:#fff"/><path d="M137.33,313.27a34.25,34.25,0,0,0-9.21-2.06,32.18,32.18,0,0,0-4.5,0,6.52,6.52,0,0,0-3.69,1c-2.07,1.56-2.59,4.73-2.87,7.13-.37,3.17.2,6.32.67,9.45A175.67,175.67,0,0,0,121.45,348c.57,2.16,1.84,3.5,4.18,3.47,1.54,0,4.09-.2,4.81-1.86.43-1,0-2.19-.18-3.19-.32-1.81-.43-3.68-.62-5.5q-.62-6.09-1-12.18c0-.48-.78-.49-.75,0,.4,5.72.81,11.49,1.58,17.18a12.81,12.81,0,0,1,.42,2.81c-.13,1.37-1.5,1.68-2.66,1.85a5.41,5.41,0,0,1-3.51-.27,4.42,4.42,0,0,1-1.62-3c-1.22-5.25-2.29-10.54-3.16-15.86s-2.51-12.08.29-17.23c1.59-2.93,5.85-2.46,8.71-2.27a34,34,0,0,1,9.23,2.05c.46.17.66-.56.2-.72Z" style="fill:#fff"/><path d="M147.32,336l-11.5-6.65L130.07,326c-1.43-.83-3.11-2.25-4.78-2.53-2.41-.4-4.46,2.68-3.52,4.85,1.12,2.56,4.3,1.34,5-.75.16-.46-.56-.65-.72-.2-.64,1.77-3.37,2.41-3.74.13a3,3,0,0,1,2.08-3.27c1.31-.26,2.68.92,3.77,1.55L132,328l14.9,8.62a.38.38,0,0,0,.38-.65Z" style="fill:#fff"/><path d="M126.11,328q10.1,5.4,19.86,11.42c.41.26.78-.39.37-.65q-9.75-6-19.86-11.42c-.42-.23-.8.42-.37.65Z" style="fill:#fff"/><path d="M121.62,346c-2,0-5.08-.27-6,1.94-.78,1.87-.79,4,.93,5.34a17.38,17.38,0,0,0,3.19,1.69l3.91,1.85c1.83.87,4.41,2.47,6.14.53a4.69,4.69,0,0,0,1-3.36c-.06-1.51-.32-3-.49-4.54,0-.47-.8-.48-.75,0,.16,1.34.34,2.67.45,4a4.23,4.23,0,0,1-.86,3.51c-1.21,1.18-2.93.23-4.17-.36l-3.78-1.79c-1.14-.54-2.32-1-3.43-1.66a3.05,3.05,0,0,1-1.87-2.86c.05-1.22.38-2.8,1.68-3.22a12.79,12.79,0,0,1,4.09-.33.38.38,0,0,0,0-.75Z" style="fill:#fff"/><path d="M119.92,346.5a3.13,3.13,0,0,0-.41,2.2.38.38,0,0,0,.46.26.4.4,0,0,0,.27-.46s0-.16,0-.06,0-.09,0-.13a1.62,1.62,0,0,1,0-.22,1.77,1.77,0,0,1,0-.23v-.06h0a.43.43,0,0,0,0-.11,3.81,3.81,0,0,1,.13-.45l0-.06h0l0-.08.12-.23a.37.37,0,0,0-.13-.51.38.38,0,0,0-.51.14Z" style="fill:#fff"/><path d="M133.47,332.13c.29,1.92.6,3.83.93,5.75.16.94.33,1.87.5,2.81.09.45.17.9.26,1.35a2.51,2.51,0,0,0,.29,1c.4.59,1.45.56,2.08.66.9.14,1.81.26,2.73.33a20.9,20.9,0,0,0,2.74.07c.52,0,1.6.09,2-.38.21-.27.09-.59,0-.89l-.37-1.51-.76-3.13a.38.38,0,0,0-.73.2l.74,3,.35,1.4.08.32c.1.24.08.28-.08.13a4.76,4.76,0,0,1-.65.06,26,26,0,0,1-6-.38c-.45-.07-1.28-.05-1.51-.51a5.92,5.92,0,0,1-.25-1.28c-.19-1-.39-2.09-.57-3.14q-.52-3-1-6.09c-.07-.48-.79-.28-.72.2Z" style="fill:#fff"/><path d="M135.32,340.51c-1.95-.28-5.15-.31-5.5,2.32s3,3.56,4.86,4.09c1.57.46,3.12,1,4.7,1.43a7.35,7.35,0,0,0,4.47.16c2.11-.86,2-3.42,1.43-5.24a.38.38,0,0,0-.73.2c.54,1.85.57,4.27-1.8,4.54a11.64,11.64,0,0,1-4.66-.82,42.77,42.77,0,0,1-5.57-1.85c-1.13-.55-2.6-1.7-1.69-3.1s2.85-1.21,4.3-1c.47.07.67-.65.19-.72Z" style="fill:#fff"/><path d="M133.6,340.42a2,2,0,0,0-1.08,1.77.38.38,0,0,0,.37.37.38.38,0,0,0,.38-.37V342c0-.07,0,0,0,0a1.55,1.55,0,0,1,0-.21,1,1,0,0,0,0-.1l0-.05s0,.09,0,0a1.62,1.62,0,0,1,.1-.18l.06-.09a.08.08,0,0,0,0,0c0,.09,0,0,0,0l.14-.15.08-.07s0,0,0,0l0,0a1.32,1.32,0,0,1,.2-.12.38.38,0,0,0,.13-.51.38.38,0,0,0-.51-.13Z" style="fill:#fff"/><path d="M147.9,340.16c0,2,0,4,.07,6,0,1.27,0,2.54.05,3.81,0,.49,0,1,0,1.47a2.75,2.75,0,0,0,.09,1.07c.49,1,2.44.74,3.24.38.44-.19.06-.84-.38-.64a2.74,2.74,0,0,1-2,0c-.32-.19-.18-.74-.19-1.09,0-1.31,0-2.62-.05-3.93,0-2.37-.11-4.75-.08-7.13a.38.38,0,0,0-.75,0Z" style="fill:#fff"/><path d="M151.55,341.32q-.17,5.52-.21,11.06a.38.38,0,0,0,.75,0q0-5.53.21-11.06a.38.38,0,0,0-.75,0Z" style="fill:#fff"/><path d="M153.2,350.39c8,0,15.89.44,23.82.87l-.37-.38v1.33l.37-.37a201.68,201.68,0,0,0-22.53.75.38.38,0,0,0-.32.57l8.65,13.69.23-.55-1.16.22a2.91,2.91,0,0,0-.79.15c-.22.11.16,0,.22.11-.26-.27-.49-.57-.73-.85l-3.71-4.3-6.4-7.41a.38.38,0,0,0-.45-.06l-16.25,10.21a10.23,10.23,0,0,0-.89.56c.22-.17.33.17.2-.1-.06-.12-.44-.29-.56-.37l-1.12-.73v.65l14.93-11.47a.37.37,0,0,0-.09-.68l-14.93-3.56c-.47-.11-.67.61-.2.72L146.05,353l-.08-.69L131,363.73a.39.39,0,0,0,0,.65l1.84,1.21a.37.37,0,0,0,.38,0l17.16-10.78-.46-.06,10.85,12.57a.37.37,0,0,0,.36.1l2.09-.4a.38.38,0,0,0,.22-.55l-8.66-13.69-.32.56a201.68,201.68,0,0,1,22.53-.75.39.39,0,0,0,.38-.38v-1.33a.38.38,0,0,0-.38-.37c-7.93-.43-15.87-.86-23.82-.87a.38.38,0,0,0,0,.75Z" style="fill:#fff"/><path d="M116.12,296a7.63,7.63,0,0,1-2.46-2.56,7.42,7.42,0,0,1-.69-1.58,2.48,2.48,0,0,1-.08-1.89l-.59.08c.39.35.79.71,1.17,1.07s.83-.16.53-.53a2.44,2.44,0,0,1-.68-1.54l0-.18c-.12.05-.12.1,0,.14s.19.16.27.23a3.69,3.69,0,0,1,.52.66c.22.35.82.13.68-.29a5.35,5.35,0,0,1-.23-1.18c0-.11,0-.22,0-.33s-.07,0,0,0,.37.24.44.3a13.39,13.39,0,0,1,1.56,1.45.38.38,0,0,0,.63-.17,5.37,5.37,0,0,1,.44-.94c.11-.17.32-.67.58-.62s.47.64.55.78a4.91,4.91,0,0,1,.37.92c.38,1.3-.08,2.63.21,3.94.11.47.83.27.73-.2a20.84,20.84,0,0,1,0-2.85,5.58,5.58,0,0,0-.75-2.38c-.32-.52-.89-1.32-1.59-.88a2.59,2.59,0,0,0-.69.85,6.65,6.65,0,0,0-.55,1.18l.62-.16a13.1,13.1,0,0,0-1.32-1.26,2.64,2.64,0,0,0-1.21-.74c-1.21-.13-.67,1.86-.48,2.46l.69-.29c-.3-.47-1.46-2-2-1.1s.23,2.06.75,2.7l.53-.53c-.38-.36-.78-.72-1.17-1.07a.38.38,0,0,0-.59.07c-.66,1.21.05,2.9.65,4a8.29,8.29,0,0,0,2.85,3.06c.41.26.78-.39.38-.65Z" style="fill:#fff"/><path d="M92.7,280.89a4.1,4.1,0,0,0,2-3.88c0-2.86,0-5.71,0-8.57,0-5.64.3-11.3.17-16.93,0-1.25-.13-2.48-.18-3.72a2.84,2.84,0,0,0-.34-1.65c-1-1.16-3.1.47-3.93,1.05-4.49,3.2-9.18,6.1-13.68,9.29S67.71,263,63.2,266.36c-1.46,1.08-3,1.74-3.16,3.73a60.42,60.42,0,0,0-.15,7.61c.16,5.73.32,11.46.51,17.19a47.14,47.14,0,0,0,.32,6.06c.2,1.19.9,1.87,2.11,1.36a10.75,10.75,0,0,0,2.62-1.76c1.22-1,2.44-1.92,3.7-2.84,2.55-1.87,5.12-3.71,7.69-5.55,5.28-3.77,10.58-7.5,15.86-11.27.39-.28,0-.93-.38-.65C84.21,286,76,291.74,68,297.63a53.72,53.72,0,0,1-4.94,3.73c-.47.26-1,.63-1.42.12a2.35,2.35,0,0,1-.22-1.11c-.07-.77-.07-1.55-.12-2.33-.28-4.92-.18-9.86-.41-14.79-.12-2.49-.27-5-.28-7.48,0-1.12,0-2.25.09-3.38s-.15-2.5.39-3.41,1.56-1.28,2.31-1.83l3.09-2.29q3-2.21,6-4.38c3.92-2.84,7.87-5.63,11.89-8.33,2-1.34,4-2.59,6-4,.78-.54,1.82-1.52,2.81-1.61s.8,1,.85,1.79c.31,5.46,0,10.93,0,16.4L94,273.34c0,1.38,0,2.77,0,4.16a3.1,3.1,0,0,1-1.62,2.74C91.94,280.52,92.31,281.17,92.7,280.89Z" style="fill:#fff"/><path d="M138.39,250.44l-.82-22-.12-3.13a.38.38,0,0,0-.56-.32L123,231.59,100.9,242.13l-5.13,2.45a.36.36,0,0,0-.19.32L96.77,273l.17,4a.39.39,0,0,0,.57.32l32-14.32,4.52-2c.44-.2.06-.85-.37-.65l-32,14.32-4.52,2,.56.33-.61-14.58-.47-10.87-.17-4.08a13.42,13.42,0,0,0-.09-2.29c0-.1,0-.22,0-.32.15.47-.4.29,0,.21a7.92,7.92,0,0,0,1.61-.77l6.72-3.21,19.6-9.36,12.95-6.18-.56-.33.82,22,.12,3.13c0,.48.77.48.75,0Z" style="fill:#fff"/><path d="M86.74,340.28C74,333,61.11,325.92,48.66,318.11c-.41-.25-.79.4-.38.65,12.45,7.81,25.35,14.84,38.08,22.17a.38.38,0,0,0,.38-.65Z" style="fill:#fff"/><path d="M154.16,266.74c7.63,4.78,15.42,9.29,23.26,13.73v-.65L165,287.35a.38.38,0,0,0,.38.65l12.38-7.53a.38.38,0,0,0,0-.65c-7.84-4.43-15.63-8.94-23.26-13.73-.41-.26-.79.39-.38.65Z" style="fill:#fff"/><path d="M60.38,296.23a171,171,0,0,1-15.82,9.9.38.38,0,0,0,0,.65c14.1,9.44,29.58,16.53,44,25.48a.37.37,0,0,0,.38,0q14.79-9.06,29.88-17.61a.38.38,0,0,0-.38-.65q-7.44,4.22-14.81,8.55c-2.53,1.49-5,3-7.56,4.5l-3.34,2-1.67,1A8.71,8.71,0,0,1,89,331.36c-.65.09-1.28-.52-1.81-.84l-1.58-.95q-1.89-1.14-3.79-2.23c-2.27-1.3-4.56-2.58-6.85-3.85-4.72-2.61-9.48-5.16-14.18-7.79-5.38-3-10.69-6.14-15.8-9.57v.65a173.7,173.7,0,0,0,15.82-9.9c.39-.28,0-.93-.38-.65Z" style="fill:#fff"/><path d="M47.28,308.9q.51,12.27.61,24.54.06,6.13,0,12.28c0,3.95-.31,7.95-.2,11.91a2.26,2.26,0,0,0,1.14,1.89,53.67,53.67,0,0,0,4.81,2.68c3.5,2,7,4.12,10.42,6.2s6.87,4.1,10.41,6a103.05,103.05,0,0,1,9.34,5c1.09.73,3.58,2.11,3.85-.24a10.4,10.4,0,0,0,0-1.25l-.11-7.33-.35-23.6-.24-16a.38.38,0,0,0-.75,0l.52,35.19.14,9.07,0,2.77a4.44,4.44,0,0,1,0,1.15c-.42,1.47-2.34-.13-3-.56a36.91,36.91,0,0,0-4-2.2c-3.39-1.74-6.79-3.45-10.09-5.36-6.57-3.8-13-7.91-19.64-11.5-.67-.36-1.59-.79-1.75-1.61a14,14,0,0,1,0-2.82q.06-3.18.11-6.38.09-6.63,0-13.26-.07-13.25-.63-26.5c0-.48-.77-.48-.75,0Z" style="fill:#fff"/><path d="M170.58,284.19v9.13a.38.38,0,0,0,.75,0v-9.13a.38.38,0,0,0-.75,0Z" style="fill:#fff"/><path d="M116.72,288.45c-.72-.94-.33-2.69-.06-3.73a9.65,9.65,0,0,1,1.39-3,8.15,8.15,0,0,1,5.67-3.44c4.86-.6,8,3.45,9.35,7.61.15.46.87.26.72-.2a13.37,13.37,0,0,0-4-6.39,8.2,8.2,0,0,0-6.87-1.65A9,9,0,0,0,117,282a10.38,10.38,0,0,0-1.25,3.59,4.33,4.33,0,0,0,.46,3.42c.3.38.83-.16.53-.53Z" style="fill:#fff"/><path d="M118.32,287.25a7.51,7.51,0,0,1,.28-2.45,7.28,7.28,0,0,1,.42-1.13,6,6,0,0,1,.3-.56c.05-.1.18-.39.27-.41h-.2q-.08-.09,0,.06l.11.17.23.35.39.61.84,1.3,1.69,2.61c.26.41.91,0,.65-.38l-2.93-4.52c-.18-.28-.37-.77-.7-.9s-.68.16-.87.46a8.14,8.14,0,0,0-1.26,4.79c0,.48.77.49.75,0Z" style="fill:#fff"/><path d="M121.51,281.62l1.42,2.9.68,1.41a1.22,1.22,0,0,0,.4.59.42.42,0,0,0,.6-.15A.37.37,0,0,0,124,286l0,0,.32-.18h0l.17.1a1.75,1.75,0,0,1-.26-.51l-.29-.59-.58-1.2-1.17-2.39c-.21-.43-.86-.05-.65.38Z" style="fill:#fff"/><path d="M121.81,281.63c.08-.29.62-.49.87-.59a4.19,4.19,0,0,1,1-.27,4.85,4.85,0,0,1,2.14.17,7.12,7.12,0,0,1,3.35,2.45c.3.38.83-.16.53-.53a7.39,7.39,0,0,0-4.17-2.77,5.66,5.66,0,0,0-2.49.05c-.68.17-1.72.54-1.94,1.29a.38.38,0,0,0,.73.2Z" style="fill:#fff"/><path d="M129.18,282.83a3.73,3.73,0,0,1-1.06,1.62l-1.61,1.77c-.32.35.2.88.53.53l1.7-1.87A4.1,4.1,0,0,0,129.9,283a.37.37,0,1,0-.72-.2Z" style="fill:#fff"/><path d="M130.8,284.36l-1.48,1.52-.72.75-.37.38-.17.17c-.11.11-.07,0,0,.05a.39.39,0,0,0-.47.27.4.4,0,0,0,.27.46c.41.16.74-.25,1-.51l.83-.86,1.65-1.7c.34-.35-.19-.88-.53-.53Z" style="fill:#fff"/><path d="M122.85,287.28a3.83,3.83,0,0,0,.36,4.21.37.37,0,1,0,.53-.53,3.06,3.06,0,0,1-.24-3.31.37.37,0,0,0-.65-.37Z" style="fill:#fff"/><path d="M124.48,286.56a1.06,1.06,0,0,1,.2-.12l0,0s-.06,0,0,0l.11,0,.11,0h.42s.09,0,.12,0l.11,0s.1.05.11,0-.07,0,0,0l0,0a1.37,1.37,0,0,1,.2.13.39.39,0,0,0,.52-.13.4.4,0,0,0-.14-.52,2,2,0,0,0-2.22,0,.38.38,0,0,0,.38.65Z" style="fill:#fff"/><path d="M70.62,296.09,70,299.92a.4.4,0,0,0,.27.47.38.38,0,0,0,.46-.27l.65-3.83a.39.39,0,0,0-.27-.46.38.38,0,0,0-.46.26Z" style="fill:#fff"/><path d="M79,289.8,78.08,294c-.1.47.62.67.73.2l.92-4.23c.1-.47-.62-.67-.73-.2Z" style="fill:#fff"/><path d="M109.72,271.29c-.43,1.52-.83,3-1.2,4.58-.11.46.61.66.72.2.37-1.54.77-3.06,1.21-4.58a.38.38,0,0,0-.73-.2Z" style="fill:#fff"/><path d="M120.13,266.66c-.35,1.39-.63,2.8-.86,4.22a.38.38,0,0,0,.26.46.37.37,0,0,0,.46-.26c.23-1.42.52-2.83.86-4.22.12-.47-.61-.67-.72-.2Z" style="fill:#fff"/><path d="M108.37,275.92,104,278.15a.38.38,0,0,0,.09.68c.56.22,1.45.81,2.06.73a2.28,2.28,0,0,0,.6-.31l3.85-2,11.09-5.75,2.78-1.44a.38.38,0,0,0-.09-.69,7.19,7.19,0,0,0-1.64-.5,2.9,2.9,0,0,0-1.26.55c-.74.41-1.48.84-2.2,1.29-.41.25,0,.9.38.65.57-.35,1.14-.7,1.72-1a5.82,5.82,0,0,1,1.26-.71,5.44,5.44,0,0,1,1.54.46l-.09-.68L107,278.3a10.4,10.4,0,0,1-1,.54c-.17.07.19,0,.21,0-.17-.08-.36-.14-.54-.21l-1.29-.5.09.69,4.36-2.24c.43-.22,0-.86-.38-.64Z" style="fill:#fff"/><path d="M78.87,294.61c1.17-.89,2.29-1.82,3.38-2.8l-.36.09,1.14.44-.16-.62c-4.06,3.49-8.4,6.71-12.62,10-.75.58-1.49,1.18-2.25,1.73h.38l-1.6-.85v.64c1.32-1,2.59-2.05,3.82-3.16.36-.32-.17-.85-.53-.53q-1.77,1.6-3.67,3.05a.37.37,0,0,0,0,.64l1.6.86a.37.37,0,0,0,.38,0c4.38-3.17,8.56-6.68,12.79-10.06.75-.6,1.5-1.18,2.23-1.8a.38.38,0,0,0-.17-.63l-1.14-.44a.37.37,0,0,0-.37.1c-1,.94-2.11,1.83-3.23,2.68-.38.29,0,.94.38.65Z" style="fill:#fff"/><path d="M284.19,276.79l7.68-16-1.37-.58a112.65,112.65,0,0,0-1.16,14.21.76.76,0,0,0,1.28.53,21.23,21.23,0,0,0,5-7.31h-1.44l2.68,6.93a.76.76,0,0,0,1.37.17l3.52-6-1.4-.38.29,5.92c0,1,1.54,1,1.5,0l-.29-5.92a.76.76,0,0,0-1.4-.38l-3.51,6,1.37.18-2.69-6.93a.75.75,0,0,0-1.44,0,19.34,19.34,0,0,1-4.62,6.64l1.28.54A108,108,0,0,1,292,260.6c.11-.76-1-1.42-1.37-.58l-7.69,16c-.42.86.88,1.62,1.3.75Z" style="fill:#aae051;opacity:0.349999994039536;isolation:isolate"/><path d="M225.88,237a46.29,46.29,0,0,1,9.66-18.33l-1.18-.91a89.4,89.4,0,0,0-8.13,22.82c-.2.94,1.25,1.34,1.45.39a88.06,88.06,0,0,1,8-22.46c.37-.71-.59-1.58-1.17-.9a47.84,47.84,0,0,0-10,19,.75.75,0,0,0,1.44.4Z" style="fill:#aae051;opacity:0.349999994039536;isolation:isolate"/><path d="M235.83,236.05A60.94,60.94,0,0,1,239,221.14l-1.47-.2a86.59,86.59,0,0,0,1.81,16.52c.14.69,1.34.73,1.45,0a24.42,24.42,0,0,1,2.47-7.77l-1.37-.17a96,96,0,0,1,.91,12.56.76.76,0,0,0,1.48.2,43.78,43.78,0,0,1,3.47-9.52l-1.38-.18a52.51,52.51,0,0,1,.59,13.25c-.07.87,1.23,1,1.47.2a20.68,20.68,0,0,1,5.63-8.84l-1.28-.53a24.85,24.85,0,0,1-2.73,11.12l1.3.76a13.7,13.7,0,0,1,9.32-7.41l-.85-1.1a60.5,60.5,0,0,0-4.75,11.58.75.75,0,0,0,1.37.58L262.55,242l-1.4-.38-.83,12c-.05.79,1,1,1.4.38a87.17,87.17,0,0,1,6.61-9l-1.25-.33a12.16,12.16,0,0,1-.41,6.52c-.23.69.78,1.31,1.26.73l5.41-6.66-1.28-.53a87.44,87.44,0,0,1-.88,12.31c-.08.59.5,1.25,1.1.85A14.64,14.64,0,0,0,276,254.3l-1.37-.18q2.14,6.81,4,13.72a.75.75,0,0,0,1.44,0l4.12-10.25-1.37.18a10.71,10.71,0,0,1,1,4.16c0,1,1.54,1,1.5,0A12.75,12.75,0,0,0,284.1,257c-.31-.65-1.16-.35-1.37.18l-4.12,10.25h1.44q-1.82-6.92-4-13.72a.76.76,0,0,0-1.37-.18,12.64,12.64,0,0,1-3.18,3l1.1.85a91.55,91.55,0,0,0,.93-12.71c0-.6-.86-1.06-1.28-.53l-5.41,6.66,1.25.73a13.6,13.6,0,0,0,.4-7.32.76.76,0,0,0-1.25-.33,90.64,90.64,0,0,0-6.84,9.35l1.39.37.83-12a.76.76,0,0,0-1.4-.38l-6.08,10.22,1.37.58a57.41,57.41,0,0,1,4.6-11.22.76.76,0,0,0-.85-1.11,15.19,15.19,0,0,0-10.22,8.1c-.42.87.86,1.63,1.3.76a26.57,26.57,0,0,0,2.93-11.88.76.76,0,0,0-1.28-.53,22.15,22.15,0,0,0-6,9.5l1.47.2a54.29,54.29,0,0,0-.64-13.65.76.76,0,0,0-1.37-.18,45.72,45.72,0,0,0-3.62,9.88l1.47.2a98.63,98.63,0,0,0-1-13,.76.76,0,0,0-1.38-.18,25.51,25.51,0,0,0-2.62,8.12h1.45a84,84,0,0,1-1.76-16.12.76.76,0,0,0-1.48-.2,62.75,62.75,0,0,0-3.24,15.31c-.08,1,1.42,1,1.5,0Z" style="fill:#aae051;opacity:0.349999994039536;isolation:isolate"/><path d="M320.26,269.13a38.86,38.86,0,0,1,6-5.37l-1.1-.85a17.76,17.76,0,0,0-1.31,7.89.78.78,0,0,0,.75.75.76.76,0,0,0,.75-.75,16.72,16.72,0,0,1,1.26-7.49c.25-.59-.59-1.21-1.1-.85a40.22,40.22,0,0,0-6.33,5.61c-.65.71.41,1.78,1.06,1.06Z" style="fill:#aae051;opacity:0.349999994039536;isolation:isolate"/><path d="M303.53,280.74l3.87-5.19-1,.27a2.27,2.27,0,0,1,.85,1.68,6,6,0,0,0,.69,2.26c.81,1.19,2.88,2.19,3.8.54.47-.84-.83-1.6-1.3-.76-.05.1-.06.11-.09.13s0,0-.07,0c.09,0,0,0,0,0a1.42,1.42,0,0,1-.54-.22,1.93,1.93,0,0,1-.81-1.31c-.29-1.34-.42-2.86-1.74-3.62a.77.77,0,0,0-1,.27L302.24,280a.75.75,0,1,0,1.29.76Z" style="fill:#aae051;opacity:0.349999994039536;isolation:isolate"/><path d="M222.35,262a14.13,14.13,0,0,0,1.71-5l-1.25.33a7.87,7.87,0,0,0,3.45,1.84.75.75,0,1,0,.39-1.44,6.37,6.37,0,0,1-1.48-.55,7.92,7.92,0,0,1-.69-.42,3.85,3.85,0,0,1-.61-.49.78.78,0,0,0-.73-.19.75.75,0,0,0-.53.52,12.74,12.74,0,0,1-1.56,4.69.78.78,0,0,0,.27,1,.77.77,0,0,0,1-.27Z" style="fill:#aae051;opacity:0.349999994039536;isolation:isolate"/><path d="M216.1,234.64a2.16,2.16,0,0,0,.85-1.1c.12-.3.17-.63.3-.93l-.08.18a2.76,2.76,0,0,1,.25-.44l-.11.16a1.34,1.34,0,0,1,.2-.21l-.15.12a.87.87,0,0,1,.18-.11l-.18.07a.73.73,0,0,1,.2,0l-.2,0h.16l-.2,0h0a.83.83,0,0,0,.58-.07.77.77,0,0,0,.34-.45.74.74,0,0,0-.07-.58.7.7,0,0,0-.45-.34,1.58,1.58,0,0,0-.65,0,1.3,1.3,0,0,0-.42.18,2.1,2.1,0,0,0-.67.69,10.38,10.38,0,0,0-.52,1.41l.07-.18a1.65,1.65,0,0,1-.2.37l.11-.15-.17.18.15-.12-.11.07a.77.77,0,0,0-.27,1,.76.76,0,0,0,1,.27Z" style="fill:#aae051;opacity:0.349999994039536;isolation:isolate"/><path d="M230.73,250.58l3.16-7.34h-1.3l2.44,3.23a.77.77,0,0,0,1,.26.75.75,0,0,0,.27-1l-2.44-3.23c-.29-.39-1-.58-1.3,0l-3.15,7.34a.78.78,0,0,0,.27,1,.76.76,0,0,0,1-.27Z" style="fill:#aae051;opacity:0.349999994039536;isolation:isolate"/><path d="M243.5,262.7a15.7,15.7,0,0,1,2.51-6.59l-1.39-.37-.46,4.9a.76.76,0,0,0,.75.75l2.69-.05a.75.75,0,0,0,0-1.5l-2.69.05.75.75.46-4.9a.75.75,0,0,0-1.4-.38A17.12,17.12,0,0,0,242,262.7c-.06.4.38.75.75.75a.78.78,0,0,0,.75-.75Z" style="fill:#aae051;opacity:0.349999994039536;isolation:isolate"/><path d="M252.05,272.78a11.07,11.07,0,0,1,5-5.18L255.9,267a33.32,33.32,0,0,0,.48,6.84.76.76,0,0,0,.93.53.78.78,0,0,0,.52-.93,31.52,31.52,0,0,1-.43-6.44.76.76,0,0,0-1.13-.64,12.41,12.41,0,0,0-5.52,5.71.78.78,0,0,0,.27,1,.77.77,0,0,0,1-.27Z" style="fill:#aae051;opacity:0.349999994039536;isolation:isolate"/><path d="M273.13,299.57a4.85,4.85,0,0,1,0-.66c0-.06,0-.13,0-.19s0,.06,0,0l.06-.32a4.48,4.48,0,0,1,.2-.62c0-.06.05-.13,0,0l.08-.18.16-.29c.05-.09.11-.18.17-.27l.1-.14c0-.07-.07.08,0,0s.29-.32.45-.47l.24-.21c-.12.1.05,0,.06,0l.14-.09a2.61,2.61,0,0,1,.28-.17l.14-.07.06,0a.79.79,0,0,0,.53-.93.77.77,0,0,0-.93-.52,5.28,5.28,0,0,0-2.53,2.16,5.13,5.13,0,0,0-.74,3.13.77.77,0,0,0,.75.75c.38,0,.8-.34.75-.75Z" style="fill:#aae051;opacity:0.349999994039536;isolation:isolate"/><path d="M321.21,281.69l4.27-3.8a.75.75,0,0,0,0-1.06.76.76,0,0,0-1.06,0l-4.27,3.8a.75.75,0,0,0,1.06,1.06Z" style="fill:#aae051;opacity:0.349999994039536;isolation:isolate"/><path d="M248,285.43a7.78,7.78,0,0,0,2.44-2.81l-1.4-.38a8.25,8.25,0,0,0,1,4.23.76.76,0,0,0,1,.27.77.77,0,0,0,.27-1,3.78,3.78,0,0,1-.26-.43s-.12-.28-.05-.11l-.07-.18a5.91,5.91,0,0,1-.25-.94,1.7,1.7,0,0,0,0-.22s0-.08,0-.13c0,.1,0,.1,0,0s0-.32,0-.48c0-.33,0-.66-.06-1a.75.75,0,0,0-.55-.72.76.76,0,0,0-.85.34,7.14,7.14,0,0,1-.4.71l-.23.33-.06.07h0l-.12.14a5.21,5.21,0,0,1-.56.59l-.28.25-.15.12c.14-.11-.07.05-.1.07a.76.76,0,0,0-.26,1,.74.74,0,0,0,1,.27Z" style="fill:#aae051;opacity:0.349999994039536;isolation:isolate"/><path d="M216.35,242a6.35,6.35,0,0,1,.05-.87l0,.2a3.22,3.22,0,0,1,.19-.74l-.08.18a2.17,2.17,0,0,1,.19-.33c.05-.07-.15.18-.06.08l0-.06.1-.1a.1.1,0,0,0,.05,0l-.09.07.1-.07.19-.13a.91.91,0,0,0,.35-.45.78.78,0,0,0-.08-.58.74.74,0,0,0-.45-.34.67.67,0,0,0-.57.07,5.14,5.14,0,0,0-.68.53,2.7,2.7,0,0,0-.62,1.31,6.74,6.74,0,0,0-.11,1.27.76.76,0,0,0,.75.75.77.77,0,0,0,.75-.75Z" style="fill:#aae051;opacity:0.349999994039536;isolation:isolate"/><path d="M289.27,291.24l2.15,1.07a.84.84,0,0,0,.58.08.74.74,0,0,0,.45-.34.76.76,0,0,0-.27-1L290,289.94a.78.78,0,0,0-.58-.07.81.81,0,0,0-.45.34.77.77,0,0,0,.27,1Z" style="fill:#aae051;opacity:0.349999994039536;isolation:isolate"/><path d="M222.62,243l2.16,1.07a.81.81,0,0,0,.57.08.72.72,0,0,0,.45-.35.75.75,0,0,0-.27-1l-2.15-1.08a.78.78,0,0,0-.58-.07.76.76,0,0,0-.45.34.78.78,0,0,0,.27,1Z" style="fill:#aae051;opacity:0.349999994039536;isolation:isolate"/><rect x="273.38" y="106.25" width="1" height="2" style="fill:#aae051"/><path d="M96.54,229.69l-1,0,0-4h1Zm.1-8h-1l0-4h1Zm.11-7.95h-1l0-4,1,0Zm.1-7.95h-1l.06-4,1,0Zm.11-8H96l.05-4h1Zm.1-7.95-1,0,.06-4h1Zm.11-8-1,0,0-4h1Zm.18-7.9-1-.12a15.55,15.55,0,0,1,1-4l.93.38A14.36,14.36,0,0,0,97.35,174.08Zm2.84-7-.79-.61a15.56,15.56,0,0,1,2.89-2.9l.61.8A14.49,14.49,0,0,0,100.19,167Zm6-5-.56-.82,3.28-2.24.57.82Zm6.57-4.48-.56-.82,3.28-2.24.56.82Zm6.57-4.48-.56-.83,3.28-2.24.56.83Zm6.57-4.48-.57-.83,3.29-2.24.56.83Zm6.57-4.48-.57-.83,3.29-2.24.56.83Zm6.57-4.49-.57-.82,3.29-2.24.56.82Zm6.57-4.48-.57-.82,3.29-2.24.56.82Zm6.57-4.48-.57-.82,3.29-2.25.56.83Zm6.57-4.48-.57-.83,3.29-2.24.56.83Zm6.56-4.48-.56-.83,3.29-2.24.56.83Zm6.57-4.48-.56-.83,3.28-2.24.57.83Zm6.57-4.49-.56-.82,3.28-2.24.57.82ZM185,108.3l-.56-.82,3.28-2.24.57.82Zm6.57-4.48L191,103l3.28-2.25.57.83Zm82.83-1.54h-1v-4h1Zm-76.26-2.94-.56-.83,3.28-2.24.57.83Zm6.57-4.48-.56-.83,3.28-2.24.56.83Zm69.69-.54h-1v-4h1Zm-63.12-3.94-.56-.83L214,87.31l.56.82Zm63.12-4h-1v-4h1Zm-56.55-.48-.56-.82,3.28-2.24.56.82Zm6.57-4.48-.57-.82,3.29-2.24.56.82Zm50-3h-1V75.23c0-.26,0-.51,0-.76l1,0c0,.27,0,.54,0,.81ZM231,76.93l-.57-.83,3.29-2.24.56.83Zm6.57-4.48-.57-.83,3.29-2.24.56.83Zm35.14-1.75A14,14,0,0,0,271,67.26l.83-.56a15.18,15.18,0,0,1,1.79,3.69ZM244.11,68l-.57-.83,3.29-2.24.56.83Zm24.36-3.58a14.78,14.78,0,0,0-3.2-2.11l.43-.9a15.68,15.68,0,0,1,3.42,2.25Zm-17.8-.9-.56-.83.21-.14a15.74,15.74,0,0,1,3.4-1.77l.35.94a14.79,14.79,0,0,0-3.18,1.65Zm11-2.42a14,14,0,0,0-3.82-.21l-.08-1a15.6,15.6,0,0,1,4.09.22Z" style="fill:#aae051"/><rect x="94.97" y="234.2" width="2" height="1" transform="translate(-140.02 327.45) rotate(-89.22)" style="fill:#aae051"/><polygon points="278.87 106.79 273.88 115.43 268.9 106.79 278.87 106.79" style="fill:#aae051"/><path d="M393.3,176.8a3.23,3.23,0,0,0-.81-.9,3.88,3.88,0,0,0-.4-1.43c-1.76-3.57-5.78-2.65-8.67-1.22.2-.41.38-.82.55-1.24a2,2,0,0,0-1.4-2.46,1.91,1.91,0,0,0-2.08.74,2.66,2.66,0,0,0-.58.16c-6.87,3.05-14.35,4.43-21.65,6-3.64.81-7.28,1.67-10.84,2.81-2.06.66-4.14,1.62-6.25,2.35a1.89,1.89,0,0,0-.81-2.43l-.69-.4a1.44,1.44,0,0,0-.31-.19c-.49-.28-1-.56-1.47-.86s-.85-.78-1.3-1.18a10.11,10.11,0,0,0-3.93-2.4l-.61-.46c-1.29-1-2.54-2.08-3.75-3.2-.64-.59-1.27-1.19-1.89-1.81-.27-.26-.65-.58-1-.91a16.55,16.55,0,0,1,2.76-3.09,1.48,1.48,0,0,0,.34-.44l.18-.07a2.32,2.32,0,0,0,1.36-1.31c1.54-1.25.49-4.27-1.69-3.5-3.1,1.09-6.22,2.29-9.28,3.63-11.5,3.87-19.74,9.73-26.59,19.76-.9,1.32-4.13,5.08-2.76,6.48.15.15.41.31.57.44s-3.1,5.54-2.93,5.64-.57,2.26-.15,2.41c.25.08,3.11,1.12,4.32.68,2.15-.78,1-3.45.92-3.9-.11-1-1-4.47-.94-4.44a3.6,3.6,0,0,0,.58.2c4.9,4.36,11.43,6.25,17,9.62a8.68,8.68,0,0,0-1.36,1.54A5.14,5.14,0,0,0,306.6,208a1,1,0,0,0,1,.44,9,9,0,0,0,1.62,1.3,14,14,0,0,1,2.72,5.25c-.07.2-.13.4-.19.6a4.4,4.4,0,0,0-1.16,1.42,6.36,6.36,0,0,1-3.06-1.13c-1.32-.78-2.63-1.59-3.94-2.38a1.8,1.8,0,0,0-1.37-.23l-.86-.56c-2.88-1.91-5.79-4.32-9.12-5.38a1.79,1.79,0,0,0-.51-.07c-.62-.48-1.25-.95-1.86-1.45a2.07,2.07,0,0,0-2.83,0,2,2,0,0,0,0,2.83l.07.05a.78.78,0,0,0,.28,1,108.79,108.79,0,0,0,18.51,12,15.22,15.22,0,0,0,2.34.9,1.68,1.68,0,0,0,.52,1c1,.93,2.85.6,4.07.39a13,13,0,0,0,4.09-1.45,14.48,14.48,0,0,0,1.45-1,21.14,21.14,0,0,0,7-4.19.8.8,0,0,0,.23-.37l9.74-5.67c2.47-1.43,5.32-2.81,7.17-5.06l.38-.21a32.33,32.33,0,0,0,3.24-2.07,66.27,66.27,0,0,0,8.15,3.32c2.42.8,5.48,1.13,7.23,3.17a2,2,0,0,0,3.34-.88,50.93,50.93,0,0,1,6-16.72c.48-.62.95-1.26,1.44-1.87a69.67,69.67,0,0,1,8.69-7.48l5.62-2.4c.66-.28,1.41-.54,2.15-.84,1.11-.26,2.22-.49,3.35-.65C393.4,179.57,393.9,177.79,393.3,176.8Zm-72.65,28.63-.31.22c-.45.32-.89.65-1.31,1a17.41,17.41,0,0,0-3.12,3.26,4.87,4.87,0,0,1-.54,0h-.17l-.3-.06a4.37,4.37,0,0,1-.62-.17h0a45.83,45.83,0,0,0-5.52-3.49l-.08,0a2.31,2.31,0,0,1,.25-1.18c.24-.51.49-1,.71-1.52l.71-.65c.34-.34.67-.69,1-1l0,0,.36-.28a.94.94,0,0,0,.35-.5,10.5,10.5,0,0,1,1.06,1,4.89,4.89,0,0,0,1.84,1.2,2.44,2.44,0,0,0,.47.09,1.82,1.82,0,0,0,2.76.06,9.79,9.79,0,0,1,1-1l.54-.37c.19-.13.39-.25.59-.37l.13.93a20.22,20.22,0,0,1,.42,2.75Z" style="fill:#aae051"/><path d="M320.55,203.48c.49-.55-.35-1.36-.92-.83a9.86,9.86,0,0,1-2.37,1.62l-.16.08a5.84,5.84,0,0,0-2.2-.91.7.7,0,0,0-.29,0c-.41-.3-.81-.62-1.2-.95a3.34,3.34,0,0,0-1.07-.8c-.49-.13-.83.21-1.15.52s-.79.77-1.17,1.17c-.52.57-1.55,1.51-1.37,2.38s1.3,1.43,2,1.8c1,.51,2,1,3,1.49s1.66,1,2.54.23,1.9-1.7,2.83-2.55a4.84,4.84,0,0,0,1.58-2.45.76.76,0,0,0,.11-.49A.62.62,0,0,0,320.55,203.48Z" style="fill:#fff"/><path d="M290.27,189.93a.41.41,0,0,0-.08-.24l0,0a.67.67,0,0,0-.71-.28c-.4.07-.54.44-.65.78l-.33.94c-.22.63-.44,1.26-.65,1.9-.1.3-.21.6-.29.9a.86.86,0,0,0,.36,1c.56.39,1.18.73,1.76,1.09a.62.62,0,0,0,.94-.54,14.89,14.89,0,0,1,.33-4.75A.6.6,0,0,0,290.27,189.93Z" style="fill:#fff"/><path d="M345.59,154.4a43.53,43.53,0,0,0,5.23-2.66c1.79-1.09,3.54-1.58,5.49-.46a49,49,0,0,1,4.63,3.39q2.55,1.89,5.14,3.74c3.38,2.4,6.8,4.74,10.31,6.94a34.25,34.25,0,0,1,4.95,3.37c1.27,1.16,1.44,2.67,1.55,4.3a.38.38,0,0,0,.47.36l3.65-.66a9.75,9.75,0,0,1,2.05-.34c1.13.05,1.5.9,2,1.75.58,1.09,1.12,2.21,1.62,3.35.08.18.2,1,.34.61,0,0-.07.07-.08.09a2.08,2.08,0,0,1-.48.34,43,43,0,0,1-7.37,3.37c-2.88,1.15-5.71,2.08-8.24,4a27.82,27.82,0,0,0-8.36,10.3c-2.33,4.87-3.13,10.18-5,15.21l.55-.22q-8.32-3.72-16.93-6.78a4.53,4.53,0,0,0-1.5-.48c-.32.05-.69.5-.91.68q-1.87,1.55-3.86,3c-2.39,1.7-4.88,3.25-7.4,4.73s-5.32,2.84-7.89,4.39c-1.05.64-1.89,1.55-2.9,2.25-1.2.82-2.43,1.61-3.7,2.32-2.67,1.48-5.7,2.56-8.79,2s-5.9-2.45-8.53-4.05-5-3.15-7.45-4.84c-1.16-.8-2.3-1.62-3.43-2.46a10.83,10.83,0,0,1-3.26-3.17c-1.24-2.26-.85-5.64-.66-8.13a37.43,37.43,0,0,1,1.18-6.9c2.26-8.38,7.53-15.51,14.21-20.94,7.79-6.34,17.23-10.46,26.88-13a.38.38,0,0,0-.2-.73c-16.82,4.45-34.52,14.35-40.72,31.61A38.89,38.89,0,0,0,286,204.24c0,2.64.39,4.88,2.42,6.73a59.84,59.84,0,0,0,6.95,5.09q4,2.7,8.13,5.1c2.45,1.43,5,2.86,7.9,3a15.07,15.07,0,0,0,7.57-2.06c1.29-.69,2.51-1.49,3.72-2.29s2.22-1.9,3.47-2.6c5.94-3.33,11.92-6.51,17.34-10.67l.88-.7c.32-.25.84-.88,1.23-1,.67-.2,1.59.37,2.23.6q2.69,1,5.37,2,5.29,2.06,10.48,4.38a.38.38,0,0,0,.55-.23c1.84-5,2.62-10.36,5-15.22a26,26,0,0,1,10.62-11.53c2.56-1.39,5.54-2.21,8.23-3.36,1.35-.58,2.7-1.17,4-1.86.5-.26,1.53-.68,1.67-1.31a1.38,1.38,0,0,0-.23-.76c-.3-.72-.62-1.42-1-2.12a10.36,10.36,0,0,0-1.89-3.23,2.71,2.71,0,0,0-2.44-.43c-1.67.26-3.34.6-5,.91l.47.36a7.37,7.37,0,0,0-1.11-4.11,15.46,15.46,0,0,0-4.21-3.22c-4-2.57-8-5.17-11.86-7.93q-3-2.12-5.9-4.3c-1.55-1.16-3.14-2.73-5-3.36a5.42,5.42,0,0,0-4.5.63,60.82,60.82,0,0,1-5.84,3c-.44.19-.06.84.38.65Z" style="fill:#fff"/><path d="M346.88,202.92a34.54,34.54,0,0,1,17-15.89c6.25-2.73,13.54-4.42,17.75-10.24.29-.39-.36-.77-.64-.38-4.41,6.09-12.4,7.52-18.81,10.58a34.79,34.79,0,0,0-15.93,15.56c-.22.42.43.8.65.37Z" style="fill:#fff"/><path d="M380.27,169.89c-8.66,4.73-18.71,5.06-28.07,7.56a60.87,60.87,0,0,0-25.27,13.44c-4,3.64-7.48,7.79-11.38,11.53l.46-.06q-11.56-7.65-23.69-14.38a.38.38,0,0,0-.38.65q12.12,6.72,23.69,14.38a.38.38,0,0,0,.45-.06c3.39-3.25,6.47-6.8,9.83-10.07a55.89,55.89,0,0,1,11.81-8.75,64.18,64.18,0,0,1,14-5.78c4.6-1.28,9.33-2,14-2.93a51.49,51.49,0,0,0,14.88-4.88c.43-.23.05-.88-.37-.65Z" style="fill:#fff"/><path d="M315.56,203.09c7.79-5.33,16.54-9,24.67-13.75l-.45-.58a157.92,157.92,0,0,1-19.11,18c-2.87,2.3-6,4.78-7.25,8.38-.6,1.74-2.44,7.63,1.05,7.55a.38.38,0,0,0,0-.75c-2.32.05-.93-4.53-.59-5.76a10.78,10.78,0,0,1,2.33-4.34c2.36-2.7,5.35-4.78,8.11-7.06a148.07,148.07,0,0,0,16-15.49c.28-.31-.07-.82-.45-.59-8.14,4.75-16.89,8.41-24.68,13.74-.4.27,0,.92.38.65Z" style="fill:#fff"/><path d="M287.36,198.24c1.39-.1,2.67,1,4.06.63a2.31,2.31,0,0,0,1.66-1.7c.71-2.41-.51-5.43-1.62-7.53l-.52.52a154.4,154.4,0,0,0,18,10l.09-.68a5.48,5.48,0,0,0-2.31,2.38,7.85,7.85,0,0,0-1.33,3.33c-.22,4.2,5.75,5.38,5.76,9.4a2.29,2.29,0,0,1-.64,1.76c-.85.71-1.8-.14-2.47-.55l-2.85-1.73q-3.08-1.83-6.18-3.6-6.21-3.54-12.58-6.82c-.43-.22-.81.43-.38.65q6.57,3.39,13,7.05c2.2,1.26,4.4,2.55,6.58,3.86,1,.63,2.06,1.38,3.15,1.92a1.92,1.92,0,0,0,1.63.19c1.27-.5,1.62-2.15,1.44-3.35-.29-1.89-1.73-3.18-3.07-4.4-1.5-1.37-3.16-3.11-2.41-5.3.46-1.32,1.48-3.5,2.86-4.07.26-.11.42-.53.09-.69a153,153,0,0,1-18-10c-.33-.21-.68.2-.51.51a12.38,12.38,0,0,1,1.68,6.13A1.83,1.83,0,0,1,290,198a7.72,7.72,0,0,0-2.6-.52c-.48,0-.48.78,0,.75Z" style="fill:#fff"/><path d="M355.18,150.42a57.12,57.12,0,0,1,3.73-12.61,4.09,4.09,0,0,1,.51-1.12c.67-.73,1.35-.37,2-.11a18.16,18.16,0,0,1,2.65,1.22,38.46,38.46,0,0,1,4.9,3.29c1.54,1.18,3,2.43,4.52,3.66a4.1,4.1,0,0,1,1.84,2.58,15.51,15.51,0,0,1-.23,3.25c-.36,4.49-.44,9-.61,13.5,0,.48.73.48.75,0,.15-4.1.24-8.2.52-12.29.11-1.65.72-3.85.11-5.44-.51-1.36-2-2.24-3-3.12a55.26,55.26,0,0,0-8.37-6.07,12.53,12.53,0,0,0-4.15-1.71c-1.35-.14-1.72,1.16-2.15,2.19a58.13,58.13,0,0,0-3.73,12.58c-.08.47.64.67.73.2Z" style="fill:#fff"/><path d="M320.86,205.37a7.6,7.6,0,0,0,0-3.58c0-.26-.36-.32-.55-.23a11.33,11.33,0,0,0-2.17,1.53,3.62,3.62,0,0,1-.81.5c-.33.15-.47.32-.86.16a7.56,7.56,0,0,1-.86-.52l-3.23-2c-.28-.17-.58-.4-.92-.25s-.73.8-1,1.13c-.76,1-1.61,1.89-2.31,2.9s.09,1.31.83,1.71l3.35,1.84,1.56.85a7.27,7.27,0,0,0,1.45.78c.47.12.78-.25,1.1-.54l1.6-1.45,1.51-1.37a4.77,4.77,0,0,0,1.26-1.39c.2-.43-.44-.82-.65-.38a3.81,3.81,0,0,1-1,1.08l-1.33,1.21-1.16,1-.53.49c-.11.1-.48.54-.64.57s-.53-.28-.64-.34l-.63-.34-1.46-.81-2.92-1.6c-.26-.14-1.15-.45-1.19-.73s.35-.56.49-.73l.52-.66,1-1.22.53-.66a5.33,5.33,0,0,1,.5-.66c.16,0,1,.6,1.19.74l1.41.86,1.32.8a2.23,2.23,0,0,0,1.14.48,2.31,2.31,0,0,0,.91-.33,3.59,3.59,0,0,0,.75-.46,12.75,12.75,0,0,1,2.25-1.6l-.55-.22a6.83,6.83,0,0,1,0,3.18C320,205.62,320.7,205.82,320.86,205.37Z" style="fill:#fff"/><path d="M289.12,189.73a1.14,1.14,0,0,1,.83.26c.26.28.17.85.19,1.2,0,.91.05,1.83.05,2.74,0,.45,0,.9,0,1.34,0,.11-.08.57,0,.64s0,.05.08,0,.1-.1,0-.11a1.15,1.15,0,0,0-.32-.14,18.55,18.55,0,0,1-2.3-1.19c-.41-.25-.79.4-.37.65s1,.59,1.55.85a7,7,0,0,0,1.43.62c.46.1.7-.28.72-.68.05-.6,0-1.21,0-1.81,0-1.18,0-2.37-.08-3.55a1.48,1.48,0,0,0-.51-1.17,2,2,0,0,0-1.23-.37.38.38,0,0,0,0,.75Z" style="fill:#fff"/><path d="M379.61,185.41a14.35,14.35,0,0,1,5.55,2.9,9.36,9.36,0,0,1,2.74,6,20.65,20.65,0,0,1-2.18,11.66,17.33,17.33,0,0,1-9.11,8.65,8.92,8.92,0,0,1-6.15.24,9.72,9.72,0,0,1-5-3.55c-.27-.4-.92,0-.65.37a10.89,10.89,0,0,0,7.85,4.4c3.68.35,7.6-2,10.06-4.56,4.76-4.92,7.51-12.88,5.5-19.62-1.19-4-4.62-6-8.37-7.17-.46-.15-.66.58-.2.72Z" style="fill:#fff"/><path d="M387,189.47c-1.15-2.29-4-2.58-6.14-1.72a18.17,18.17,0,0,0-6.49,5,24.31,24.31,0,0,0-6.1,15c0,.49.73.49.75,0a23.56,23.56,0,0,1,5.08-13.53,22,22,0,0,1,5.3-4.84c2.07-1.33,5.55-2.31,6.95.49.21.43.86.05.65-.38Z" style="fill:#fff"/><path d="M374.43,204.58a9.62,9.62,0,0,1,2.22-5.25c1-1.12,2.64-2.55,4.26-2,2.12.69,1.81,3.5,1.26,5.17a7.59,7.59,0,0,1-3.5,4.51,3.53,3.53,0,0,1-2.69.11,2.26,2.26,0,0,1-1.55-2.52c0-.49-.72-.48-.75,0a3,3,0,0,0,1.24,2.83,4.22,4.22,0,0,0,2.9.6c2.19-.29,3.82-2.39,4.66-4.28s1.54-5-.33-6.56c-1.65-1.39-3.75-.47-5.18.77a10.3,10.3,0,0,0-3.29,6.64C373.63,205.06,374.38,205.05,374.43,204.58Z" style="fill:#fff"/><path d="M326.55,235.82a9.59,9.59,0,0,1,2.22-5.24c1-1.12,2.64-2.55,4.26-2,2.12.69,1.81,3.51,1.26,5.18a7.65,7.65,0,0,1-3.5,4.51,3.58,3.58,0,0,1-2.69.11,2.26,2.26,0,0,1-1.55-2.53c0-.48-.72-.48-.75,0a3,3,0,0,0,1.24,2.84,4.27,4.27,0,0,0,2.9.6c2.19-.29,3.81-2.4,4.66-4.28s1.54-5-.33-6.56c-1.65-1.39-3.75-.48-5.18.77a10.3,10.3,0,0,0-3.29,6.63C325.75,236.3,326.5,236.3,326.55,235.82Z" style="fill:#fff"/><path d="M362,212.08c-5.09,2.08-10.22,4.09-15.39,5.95a14.72,14.72,0,0,1-8.12.8,15,15,0,0,1-7.17-3.11c-.36-.31-.9.22-.53.53a16.13,16.13,0,0,0,14.23,3.1c2.84-.83,5.61-2,8.37-3.06q4.42-1.68,8.81-3.49c.44-.18.24-.9-.2-.72Z" style="fill:#fff"/><path d="M365.88,212.87l-12.51,4.64c-4.06,1.5-8.2,3.45-12.55,3.87-.48.05-.48.8,0,.75,4.27-.42,8.3-2.25,12.29-3.73l13-4.8c.45-.17.26-.9-.2-.73Z" style="fill:#fff"/><path d="M321.86,242.94c-1.63-.83-3.46-1.67-4.58-3.19-1.42-1.91-1.09-4.57-.57-6.75a22.68,22.68,0,0,1,8-12.2,7.41,7.41,0,0,1,3-1.61,6.55,6.55,0,0,1,3.38.66c2.29.89,4.5,1.45,5.83,3.7,2.43,4.13,1.29,9.45-1.22,13.26a25.62,25.62,0,0,1-4.88,5.31,7.86,7.86,0,0,1-4.25,2.14,9.07,9.07,0,0,1-4.68-1.32c-.43-.22-.81.43-.38.64,2.47,1.24,5,2,7.56.68A20.7,20.7,0,0,0,335,239c3.13-3.78,5.08-9.11,3.42-14a7.58,7.58,0,0,0-4.75-5c-2.08-.76-4.51-2.21-6.76-1.41-2.41.86-4.59,3.05-6.14,5a26.68,26.68,0,0,0-4.12,7.15c-.93,2.48-1.69,5.81-.57,8.35,1,2.26,3.35,3.41,5.43,4.46C321.91,243.8,322.29,243.15,321.86,242.94Z" style="fill:#fff"/><path d="M336.93,222.24c-4.67-1.25-9.14,1.44-11.72,5.23s-4.33,9.23-2.36,13.69c.19.44.84.06.64-.38-1.81-4.11-.12-9.13,2.21-12.69s6.59-6.32,11-5.13a.37.37,0,0,0,.2-.72Z" style="fill:#fff"/><path d="M344.4,177.17l-4.54,1.09.46.46c.91-4.88-2-9.21-5.72-12-1.67-1.27-3.89-2.53-6.06-1.89-2,.59-3,2.52-3.53,4.36a.38.38,0,0,0,.73.2c.51-1.76,1.52-3.67,3.53-3.94s4.11,1.19,5.62,2.46c3.12,2.6,5.49,6.45,4.7,10.65a.38.38,0,0,0,.47.46l4.53-1.09c.47-.11.27-.84-.19-.72Z" style="fill:#fff"/><path d="M344.91,177.88c.24-8-9-18.25-17.08-12.88-.4.27,0,.92.38.65,7.61-5.05,16.17,4.82,16,12.23a.38.38,0,0,0,.75,0Z" style="fill:#fff"/><path d="M350.5,162.12c-1.06,3.16-6.37,2.73-8.89,2.16a14.81,14.81,0,0,1-8.12-4.91c-1.19-1.45-1.51-3.11-.05-4.49a6,6,0,0,1,3.74-1.56,16.87,16.87,0,0,1,8.72,2.15c2.32,1.28,5.37,3.61,4.6,6.65a.37.37,0,0,0,.72.19c.78-3-1.7-5.46-4-6.95A18.3,18.3,0,0,0,337,152.58c-2.7.21-6.36,2.51-5.12,5.67a10.44,10.44,0,0,0,3.59,4,15.64,15.64,0,0,0,5.11,2.52c3.09.88,9.31,1.45,10.63-2.48C351.38,161.86,350.65,161.66,350.5,162.12Z" style="fill:#fff"/><path d="M347.22,157.52l-2.62.49a.38.38,0,0,0-.26.46.39.39,0,0,0,.46.27l2.62-.5a.37.37,0,0,0,.26-.46.38.38,0,0,0-.46-.26Z" style="fill:#fff"/><path d="M347.37,157.48a25.82,25.82,0,0,0-6.71-3,.37.37,0,0,0-.2.72,25.26,25.26,0,0,1,6.53,2.89.37.37,0,0,0,.38-.64Z" style="fill:#fff"/><path d="M342.28,161.7a12.05,12.05,0,0,0,3.22-.41.37.37,0,0,0-.2-.72,11.37,11.37,0,0,1-3,.38.38.38,0,0,0,0,.75Z" style="fill:#fff"/><path d="M345.75,161c0,.05,0,0,0,0a.28.28,0,0,1,.11,0,1.39,1.39,0,0,1,.29,0,6.62,6.62,0,0,1,.84.24l2.19.69c.46.14.66-.58.2-.73l-2.64-.82c-.62-.19-1.44-.27-1.72.46a.37.37,0,1,0,.72.2Z" style="fill:#fff"/><path d="M341.45,161.1a3.82,3.82,0,0,0,.12,1.81.38.38,0,0,0,.46.27.37.37,0,0,0,.26-.46c0-.13-.07-.25-.1-.38a1.2,1.2,0,0,1,0-.2c0,.1,0,0,0,0a.34.34,0,0,1,0-.1c0-.13,0-.26,0-.39a1.23,1.23,0,0,1,0-.19v0a.5.5,0,0,1,0-.12.39.39,0,0,0-.27-.46.39.39,0,0,0-.46.26Z" style="fill:#fff"/><path d="M338.16,160.44a3.44,3.44,0,0,1-.47.78l.06-.08a3.9,3.9,0,0,1-.33.38.38.38,0,0,0,0,.53.39.39,0,0,0,.53,0,4.34,4.34,0,0,0,.86-1.23.42.42,0,0,0,0-.29.44.44,0,0,0-.17-.23.4.4,0,0,0-.52.14Z" style="fill:#fff"/><path d="M338.78,160.44a3.28,3.28,0,0,1-1.53-2.21.37.37,0,0,0-.36-.27l-2.35-.21a.38.38,0,0,0-.37.38.37.37,0,0,0,.37.37l2.35.21-.36-.28a4,4,0,0,0,1.87,2.66.38.38,0,0,0,.38-.65Z" style="fill:#fff"/><path d="M355.78,211.49q-4.15-1.85-8.28-3.78c-.44-.2-.82.44-.38.65q4.13,1.94,8.28,3.78c.44.19.82-.45.38-.65Z" style="fill:#fff"/><path d="M354.11,212.63q-4.16-1.84-8.28-3.78c-.43-.2-.82.44-.38.65q4.13,1.94,8.28,3.78c.44.19.82-.45.38-.65Z" style="fill:#fff"/><path d="M352.25,213.62q-4.15-1.85-8.28-3.79c-.44-.2-.82.45-.38.65q4.13,1.94,8.28,3.78c.44.2.82-.45.38-.64Z" style="fill:#fff"/><path d="M350.57,214.79q-4.15-1.84-8.28-3.79c-.43-.2-.82.45-.38.65q4.13,1.93,8.28,3.78c.44.2.82-.45.38-.64Z" style="fill:#fff"/><path d="M348.11,215.9c-2.77-1.23-5.54-2.49-8.28-3.78-.44-.21-.82.44-.38.65q4.13,1.93,8.28,3.78c.44.19.82-.46.38-.65Z" style="fill:#fff"/><path d="M286.12,197c-6,1.85-9.08,8.55-9.05,14.46,0,2.64.68,5.45,2.67,7.3A13.73,13.73,0,0,0,287.2,222a7.36,7.36,0,0,0,5-1.62c1.31-.9,2.68-1.83,3.2-3.4.15-.46-.57-.66-.72-.2-.57,1.72-2.7,3-4.26,3.83-2,1-3.92.65-5.94-.07-2.7-1-5.13-2.43-6.07-5.29-2.09-6.34,1.22-15.44,7.93-17.51.46-.14.27-.87-.2-.72Z" style="fill:#fff"/><path d="M285.69,206.45c-2.58,4-3.77,9-1.6,13.48.21.43.86,0,.65-.38-2.05-4.2-.82-9,1.59-12.73.27-.4-.38-.78-.64-.37Z" style="fill:#fff"/><path d="M291.77,214.7c-.72.62-2,1.61-2.86.73a3.2,3.2,0,0,1-.74-3,.38.38,0,0,0-.73-.2,4.07,4.07,0,0,0,0,2.08,3.57,3.57,0,0,0,1,1.74,2.11,2.11,0,0,0,2,.36,5.18,5.18,0,0,0,1.85-1.18c.36-.32-.17-.85-.53-.53Z" style="fill:#fff"/><path d="M375,164.13c-1.82,2.35-5.35,3.25-8.15,3.75s-5.84.59-8.76.9c-4.66.5-9.6,1.66-12.76,5.39-.31.37.22.9.53.53,3.58-4.23,9.39-5,14.59-5.37a54.09,54.09,0,0,0,8-1c2.46-.58,5.45-1.58,7.05-3.65.3-.38-.23-.91-.53-.53Z" style="fill:#fff"/><path d="M339.71,178.11a170.57,170.57,0,0,1-14.25-10.24c-.37-.3-.9.23-.53.53a170.53,170.53,0,0,0,14.41,10.36c.4.26.78-.39.37-.65Z" style="fill:#fff"/><path d="M339.12,154.91a3.27,3.27,0,0,0-.76.2A2.91,2.91,0,0,0,337,156a1.78,1.78,0,0,0-.41,1,.38.38,0,0,0,.38.38.39.39,0,0,0,.37-.38c0-.1,0,.05,0,0s0-.06,0-.09a.39.39,0,0,1,.06-.17s0,.07,0,0l0,0a.25.25,0,0,0,0-.07l.05-.08s.07-.1,0,0,0,0,0,0l.06-.06.13-.13,0,0,0,0,.16-.1a2.11,2.11,0,0,1,.3-.16l.07,0h0l.16-.06a3.8,3.8,0,0,1,.51-.15l.25-.05a.38.38,0,0,0,.26-.46.39.39,0,0,0-.46-.26Z" style="fill:#fff"/><path d="M341.4,165.1,341,168c0,.2.19.37.37.37a.38.38,0,0,0,.38-.37l.38-2.89a.38.38,0,0,0-.75,0Z" style="fill:#fff"/><path d="M337.34,163.6a.4.4,0,0,0,.59,0,.45.45,0,0,0-.47-.74.84.84,0,0,0-.38.34l-.87,1.15a.36.36,0,0,0,0,.29.37.37,0,0,0,.17.22.36.36,0,0,0,.29,0,.41.41,0,0,0,.22-.17l.51-.68.25-.33.12-.17s0,.06,0,0,0,0,0,0,.05-.05,0,0a.05.05,0,0,1-.05,0s0,0,0,0h-.16a.22.22,0,0,1-.14-.13c-.05-.11-.08-.13-.07-.08v-.18c0,.05.05-.09,0-.05a.38.38,0,0,1,.18-.15h.19l.15.08a.37.37,0,0,0-.53.53Z" style="fill:#fff"/><path d="M274.41,219v-1.33a.81.81,0,0,0-.22-.53.77.77,0,0,0-.53-.22.73.73,0,0,0-.53.22.77.77,0,0,0-.22.53V219a.77.77,0,0,0,.22.53.75.75,0,0,0,.53.22.77.77,0,0,0,.53-.22.81.81,0,0,0,.22-.53Z" style="fill:#aae051;opacity:0.349999994039536;isolation:isolate"/><path d="M271.59,221.29l-1.31-2.66a.76.76,0,0,0-1-.27.78.78,0,0,0-.27,1l1.31,2.66a.75.75,0,0,0,1.3-.76Z" style="fill:#aae051;opacity:0.349999994039536;isolation:isolate"/><path d="M267.59,222.4l-1.33-1.32a.77.77,0,0,0-.53-.22.73.73,0,0,0-.53.22.75.75,0,0,0,0,1.06l1.33,1.32a.75.75,0,0,0,.53.22.77.77,0,0,0,.53-.22.75.75,0,0,0,.22-.53.79.79,0,0,0-.22-.53Z" style="fill:#aae051;opacity:0.349999994039536;isolation:isolate"/><path d="M319.73,248.92l-1.15-.93a.51.51,0,0,0-.25-.16.45.45,0,0,0-.28-.06.73.73,0,0,0-.53.22.71.71,0,0,0-.22.53.69.69,0,0,0,.22.53l1.15.93a.61.61,0,0,0,.24.15.59.59,0,0,0,.29.07.75.75,0,0,0,.75-.75.73.73,0,0,0-.22-.53Z" style="fill:#aae051;opacity:0.349999994039536;isolation:isolate"/><path d="M312,252.92a3.75,3.75,0,0,0-.24-.44,3.28,3.28,0,0,0-.4-.52,1.64,1.64,0,0,0-1.37-.51,1.1,1.1,0,0,0-.39.12l-.06,0-.19.16a.1.1,0,0,0,0,.05,1.56,1.56,0,0,0-.16.2,2.55,2.55,0,0,0-.13.29l0,.14a1.19,1.19,0,0,0,0,.33,1.66,1.66,0,0,0,0,.32.56.56,0,0,0,0,.12,1.24,1.24,0,0,0,.25.43.63.63,0,0,0,.12.1.5.5,0,0,0,.12.08.88.88,0,0,0,.48.12,1.14,1.14,0,0,0,.5-.14.77.77,0,0,0,.35-.44.83.83,0,0,0-.08-.58.79.79,0,0,0-.45-.35l-.2,0a.75.75,0,0,0-.38.1h0l.18-.08-.09,0,.2,0H310l.2,0-.05,0,.18.08-.05,0,.15.12,0-.05.12.15a.35.35,0,0,1-.05-.08l.08.17a.88.88,0,0,1-.05-.15l0,.19a.67.67,0,0,1,0-.2l0,.2a.59.59,0,0,1,.05-.19l-.08.18a.83.83,0,0,1,.07-.13l-.11.16a.27.27,0,0,1,.07-.08l-.15.12a.19.19,0,0,1,.09,0l-.18.07.09,0-.2,0h.18l-.2,0,.2.05-.18-.07a1,1,0,0,1,.22.13l-.15-.12a1.28,1.28,0,0,1,.28.29l-.11-.15a3.59,3.59,0,0,1,.37.63.75.75,0,0,0,.45.35.74.74,0,0,0,.58-.08.71.71,0,0,0,.34-.45l0-.19a.8.8,0,0,0-.1-.38Z" style="fill:#aae051;opacity:0.349999994039536;isolation:isolate"/><path d="M306.4,255.4l-.65-.14a.57.57,0,0,0-.29,0,.47.47,0,0,0-.28.09.55.55,0,0,0-.21.19.6.6,0,0,0-.14.26l0,.2a.69.69,0,0,0,.1.37l.12.16a.78.78,0,0,0,.33.19l.64.14a.51.51,0,0,0,.3,0,.47.47,0,0,0,.28-.09.48.48,0,0,0,.21-.19.62.62,0,0,0,.14-.25l0-.2a.72.72,0,0,0-.1-.38l-.12-.15a.7.7,0,0,0-.33-.2Z" style="fill:#aae051;opacity:0.349999994039536;isolation:isolate"/><path d="M301.37,259.49l-.87-2.23a.85.85,0,0,0-.35-.44.74.74,0,0,0-.58-.08.73.73,0,0,0-.44.35.72.72,0,0,0-.08.57l.87,2.23a.87.87,0,0,0,.35.45.78.78,0,0,0,.58.07.72.72,0,0,0,.44-.34.74.74,0,0,0,.08-.58Z" style="fill:#aae051;opacity:0.349999994039536;isolation:isolate"/><g style="opacity:0.349999994039536;isolation:isolate"><path d="M295.72,261.39a.75.75,0,0,0,0-1.5.75.75,0,0,0,0,1.5Z" style="fill:#aae051"/></g><path d="M393.72,206.65l1.89-1.46a.77.77,0,0,0,.22-.53.73.73,0,0,0-.22-.53.71.71,0,0,0-.53-.22l-.2,0a.7.7,0,0,0-.33.2l-1.89,1.46a.75.75,0,0,0-.22.53.77.77,0,0,0,.22.53.75.75,0,0,0,.53.22l.2,0a.73.73,0,0,0,.33-.19Z" style="fill:#aae051;opacity:0.349999994039536;isolation:isolate"/><g style="opacity:0.349999994039536;isolation:isolate"><path d="M400,204.64a.75.75,0,0,0,0-1.5.75.75,0,0,0,0,1.5Z" style="fill:#aae051"/></g><path d="M408.15,200.45l1.25-1.68a.74.74,0,0,0-.27-1,.75.75,0,0,0-.57-.07l-.18.07a.7.7,0,0,0-.27.27l-1.25,1.69a.78.78,0,0,0-.08.58.73.73,0,0,0,.35.44.72.72,0,0,0,.57.08l.18-.08a.59.59,0,0,0,.27-.27Z" style="fill:#aae051;opacity:0.349999994039536;isolation:isolate"/><path d="M41.57,319.44a74.71,74.71,0,0,0-17.7,9.81c-4,3.1-7.65,6.93-9.53,11.68-2.74,6.9-.34,13.89,4.37,19.23,5.95,6.74,14.41,11.11,22.6,14.48C53,379.46,65.53,382.4,78,384.35a255.1,255.1,0,0,0,45.2,2.84,236.71,236.71,0,0,0,43.37-4.79c11.41-2.39,22.82-5.73,33.24-11,7.07-3.6,14.48-8.41,18.52-15.47a17.73,17.73,0,0,0,2.48-8.8,18.79,18.79,0,0,0-3.93-11,40.15,40.15,0,0,0-11.06-9.83,89.32,89.32,0,0,0-17.59-8.4c-3.47-1.27-7-2.37-10.55-3.37a.37.37,0,0,0-.2.72c12,3.36,24.75,7.95,34.22,16.37,5.84,5.19,10.17,12.6,7.53,20.54-2.36,7.08-8.85,12.2-15,15.93-9.07,5.51-19.3,9-29.53,11.69A217.42,217.42,0,0,1,134.31,386a264.7,264.7,0,0,1-44.69-.86,193.57,193.57,0,0,1-38.36-7.66c-9.3-2.95-18.67-6.79-26.49-12.74C19.46,360.65,14.31,355,13.91,348c-.62-10.82,9.78-18.56,18.17-23.22a91.29,91.29,0,0,1,9.69-4.6c.44-.18.25-.91-.2-.73Z" style="fill:#fff"/><path d="M12.76,358.5v8.12a37.69,37.69,0,0,0,.28,6.8c1.11,6,5.42,10.94,10.05,14.66,6.61,5.31,14.46,8.95,22.38,11.85a171.36,171.36,0,0,0,32.25,8,255.07,255.07,0,0,0,77.72.12,172.89,172.89,0,0,0,32.43-7.92c8-2.88,15.92-6.5,22.64-11.78,4.7-3.69,9.11-8.59,10.35-14.61a30.85,30.85,0,0,0,.36-6.37V355.1a.75.75,0,0,0-1.5,0c0,5,0,10.09,0,15.14,0,5.49-3,10.23-6.76,14-5.49,5.43-12.56,9.19-19.61,12.18a149.86,149.86,0,0,1-29.94,8.76,251.1,251.1,0,0,1-75.92,2.6,195,195,0,0,1-33.77-6.7c-8.63-2.58-17.21-5.88-24.85-10.72-5.33-3.37-10.7-7.78-13.27-13.7a16.51,16.51,0,0,1-1.34-6.6c0-3,0-6.08,0-9.12V358.5a.75.75,0,0,0-1.5,0Z" style="fill:#fff;opacity:0.079999998211861;isolation:isolate"/><path d="M276.65,140.7a13.36,13.36,0,0,1-2.44-.21c-2-.39-3.25-1.26-3.51-2.47s.5-2.51,2.16-3.7a18.58,18.58,0,0,1,12.63-2.77c2,.38,3.25,1.25,3.51,2.46s-.5,2.52-2.15,3.7a17,17,0,0,1-6.07,2.52A19.67,19.67,0,0,1,276.65,140.7Zm6.4-8.37a18.34,18.34,0,0,0-3.91.45,15.87,15.87,0,0,0-5.7,2.35c-1.29.93-1.93,1.9-1.76,2.68h0c.17.78,1.16,1.39,2.72,1.69a17.68,17.68,0,0,0,11.86-2.6c1.29-.93,1.93-1.9,1.76-2.68s-1.16-1.39-2.72-1.69A12.07,12.07,0,0,0,283.05,132.33Z" style="fill:#aae051"/><path d="M275.29,133.05A.47.47,0,0,1,275,133l-1.6-.93a.51.51,0,0,1-.18-.69.49.49,0,0,1,.68-.18l1.6.94a.5.5,0,0,1-.25.93Z" style="fill:#aae051"/><polygon points="273.38 132.88 272.14 130.71 274.63 130.72 273.38 132.88" style="fill:#aae051"/><path d="M285.51,140.84a.43.43,0,0,1-.25-.07l-1.61-.94a.49.49,0,0,1-.18-.68.51.51,0,0,1,.69-.18l1.6.94a.5.5,0,0,1-.25.93Z" style="fill:#aae051"/><polygon points="285.82 139.08 287.06 141.25 284.56 141.23 285.82 139.08" style="fill:#aae051"/><path d="M288.16,133.3a.5.5,0,0,1-.16-1l1.85-.63a.5.5,0,0,1,.32.95l-1.85.63A.45.45,0,0,1,288.16,133.3Z" style="fill:#aae051"/><polygon points="289.26 131.1 291.71 131.59 290.06 133.46 289.26 131.1" style="fill:#aae051"/><path d="M269.58,139.93a.5.5,0,0,1-.16-1l1.85-.63a.5.5,0,0,1,.32.95l-1.85.63Z" style="fill:#aae051"/><polygon points="270.33 140.5 267.88 140.01 269.52 138.14 270.33 140.5" style="fill:#aae051"/><path d="M207.45,241.67l-21.14,10.54a24.3,24.3,0,0,0-2.9,1.53,8.66,8.66,0,0,0-3.8,6.72,8.81,8.81,0,0,0,5.22,8.42c4.22,2.08,8.46,4.13,12.69,6.19L222,287l28.3,13.81,23.92,11.67c3.78,1.85,7.57,3.71,11.36,5.54a33.22,33.22,0,0,0,29.59-.34l9.13-4.55,18.18-9.06L366.68,292l27.74-13.84,28.19-14.05,26.09-13,21-10.48,13.11-6.54,2.77-1.38a8.79,8.79,0,0,0,5.05-7.75,8.65,8.65,0,0,0-3.28-6.93,15.58,15.58,0,0,0-2.93-1.64L473,210.75l-16.74-8.17-24.45-11.93-6.42-3.13c-.43-.22-.81.43-.38.64l19.9,9.71,14.71,7.18,23.88,11.65c.72.36,1.45.69,2.16,1.06a8,8,0,0,1,4.2,8.26,8.26,8.26,0,0,1-4.89,6.16l-8.87,4.42-17.63,8.79-23.69,11.82-27,13.44-27.85,13.89L354,297.47l-21.28,10.61-14.17,7.06c-3.63,1.81-7.15,3.68-11.13,4.64a32.17,32.17,0,0,1-21.49-2.4l-3.45-1.68-18-8.8L238,294l-27-13.19L190.79,271c-4.24-2.07-9.94-3.83-10.41-9.35a8,8,0,0,1,4.38-7.79c.86-.45,1.73-.86,2.6-1.3L200,246.23l7.84-3.91c.43-.22,0-.86-.38-.65Z" style="fill:#fff"/><path d="M184.25,293.84,205.13,304l42.43,20.71,33.63,16.41a59.7,59.7,0,0,0,9.94,4.25,33.67,33.67,0,0,0,24.19-2.57l18.5-9.26,36.45-18.23,43.6-21.81,39.73-19.87,25.6-12.81c1.34-.67,2.69-1.33,4-2a16.83,16.83,0,0,0,8.83-11.56c.61-3.07.33-6.38.33-9.49v-8.32a.75.75,0,0,0-1.5,0v8.63c0,3.29.33,6.87-.59,10.06a15.42,15.42,0,0,1-7.92,9.43l-1.48.74-21.09,10.55-37.33,18.68-43.19,21.6-38.63,19.33-23.73,11.87a56.31,56.31,0,0,1-6.71,3c-8.45,2.9-17.23,1.84-25.14-2l-27.65-13.49-42.6-20.79-28.38-13.85-1.45-.71c-.86-.42-1.62.88-.75,1.3Z" style="fill:#fff;opacity:0.079999998211861;isolation:isolate"/><path d="M115.91,284.65l-17.58,9.79-2.56,1.43a.38.38,0,0,0,0,.65l12.06,8.79,3.36,2.45a14.63,14.63,0,0,0,1.87,1.36c.42.2.63.06,1.06-.13l3.95-1.68c1.42-.6,2.91-1.13,4.28-1.82l.37-.16c-.23.1-.31-.12,0,.21a14,14,0,0,0,1.82,1.3v-.65l-7.08,3.55-4.28,2.15a3.6,3.6,0,0,0-1,.48c-.16.18,0-.17.28,0-.08-.07-.2-.08-.28-.15a20.39,20.39,0,0,0-2.91-1.58l-4.67-2.55-7.92-4.33c-.1-.05-.35-.26-.47-.25-.31,0,.19-.48,0,.23a10.39,10.39,0,0,0,0-1.85v-4.75a.38.38,0,0,0-.75,0v6.62a.36.36,0,0,0,.19.32l12.74,7,2.87,1.56c.38.21.73.51,1.17.43a7.94,7.94,0,0,0,1.77-.89l4-2,6.64-3.33a.38.38,0,0,0,0-.65c-.65-.46-1.73-1.64-2.55-1.53a11,11,0,0,0-2.51,1.07l-4.57,1.94-1.46.62a2.06,2.06,0,0,0-.48.21c-.28.25-.15-.28.19.07a10.62,10.62,0,0,0-1.38-1l-3.07-2.24-8-5.8-5-3.65v.65l17.58-9.8,2.56-1.42a.38.38,0,0,0-.38-.65Z" style="fill:#fff"/><path d="M212,260.93a21.47,21.47,0,0,1,3-7.37l-1.4-.38c.07,2,.22,4,.45,5.92a.78.78,0,0,0,.75.75.75.75,0,0,0,.75-.75c-.23-2-.38-3.94-.45-5.92a.76.76,0,0,0-1.4-.38,23,23,0,0,0-3.19,7.73.75.75,0,0,0,1.45.4Z" style="fill:#aae051;opacity:0.349999994039536;isolation:isolate"/><path d="M204.42,258.42a31.92,31.92,0,0,1,3.42-6.12l-1.37-.57a4.74,4.74,0,0,0,0,3.28.77.77,0,0,0,.93.52.74.74,0,0,0,.52-.92,3.45,3.45,0,0,1,0-2.49.74.74,0,0,0-.43-.88.76.76,0,0,0-.94.31A33.4,33.4,0,0,0,203,258a.75.75,0,0,0,.52.93.77.77,0,0,0,.92-.53Z" style="fill:#aae051;opacity:0.349999994039536;isolation:isolate"/><path d="M231.88,270.22a31.38,31.38,0,0,1,.33-7.11l.73-7.29-1.47.2q1.31,6.56,2.21,13.17c.11.73,1.32.7,1.45,0,.44-2.29.88-4.59,1.44-6.86.27-1.09.57-2.16.9-3.23a7.28,7.28,0,0,1,1.49-3l-1.28-.53a40.63,40.63,0,0,1-2.23,13.47.75.75,0,0,0,1.37.57,13.44,13.44,0,0,1,2.51-3.39l-1.25-.73a21.62,21.62,0,0,1-2.43,5.78c-.5.83.8,1.58,1.3.76a23.17,23.17,0,0,0,2.57-6.14.75.75,0,0,0-1.25-.73,14.67,14.67,0,0,0-2.75,3.7l1.37.57a41.59,41.59,0,0,0,2.29-13.86.76.76,0,0,0-1.28-.53c-1.57,1.65-2.08,4.13-2.62,6.26-.64,2.46-1.12,5-1.6,7.45h1.45q-.91-6.62-2.22-13.17c-.18-.89-1.39-.58-1.47.2l-.73,7.29a31.38,31.38,0,0,0-.33,7.11c.12.95,1.62,1,1.5,0Z" style="fill:#aae051;opacity:0.349999994039536;isolation:isolate"/><path d="M264.93,278.82a19.63,19.63,0,0,1,4-6.91l-1.25-.73q-1.05,4.47-2.22,8.9a.75.75,0,0,0,1.37.58,43.52,43.52,0,0,1,4.07-6.31l-1.25-.73a13.29,13.29,0,0,1-2.86,6.3.75.75,0,0,0,.91,1.18l3.31-1.86c.84-.47.08-1.77-.76-1.29l-3.31,1.85.91,1.18a14.72,14.72,0,0,0,3.25-7,.8.8,0,0,0-.35-.85.77.77,0,0,0-.91.12,45.21,45.21,0,0,0-4.3,6.62l1.37.57c.78-3,1.51-5.92,2.21-8.9.16-.69-.73-1.32-1.25-.73a21.46,21.46,0,0,0-4.38,7.57c-.3.92,1.15,1.31,1.45.4Z" style="fill:#aae051;opacity:0.349999994039536;isolation:isolate"/><path d="M271.52,278a39.13,39.13,0,0,1-4.3,4.24.74.74,0,0,0-.06,1,.74.74,0,0,0,1,.19l2.08-1.31a.76.76,0,0,0,.27-1,.77.77,0,0,0-1-.27l-2.08,1.31.91,1.18a39.13,39.13,0,0,0,4.3-4.24.77.77,0,0,0,0-1.06.75.75,0,0,0-1.06,0Z" style="fill:#aae051;opacity:0.349999994039536;isolation:isolate"/><path d="M281.91,289.83a56.83,56.83,0,0,1,5-8.62.76.76,0,0,0-.26-1,.77.77,0,0,0-1,.27,57.32,57.32,0,0,0-5,8.62.76.76,0,0,0,.27,1,.75.75,0,0,0,1-.27Z" style="fill:#aae051;opacity:0.349999994039536;isolation:isolate"/><path d="M312.73,276q1.09-6.4,2.5-12.74c.21-.94-1.24-1.34-1.45-.4q-1.39,6.35-2.49,12.74c-.16.94,1.28,1.35,1.44.4Z" style="fill:#aae051;opacity:0.349999994039536;isolation:isolate"/><path d="M310.71,276l.39-13.6a.75.75,0,0,0-1.5,0l-.39,13.6c0,1,1.47,1,1.5,0Z" style="fill:#aae051;opacity:0.349999994039536;isolation:isolate"/><path d="M316.5,271.4a55.6,55.6,0,0,1,3.41-7.45c.46-.85-.83-1.61-1.3-.76a59,59,0,0,0-3.55,7.81.75.75,0,0,0,.52.93.77.77,0,0,0,.92-.53Z" style="fill:#aae051;opacity:0.349999994039536;isolation:isolate"/><path d="M280.68,254.65l1.65-10.29c.15-.94-1.3-1.35-1.45-.4l-1.65,10.29c-.15.95,1.29,1.35,1.45.4Z" style="fill:#aae051;opacity:0.349999994039536;isolation:isolate"/><path d="M333.81,275.85a80.88,80.88,0,0,1-.35-16.09c.07-1-1.43-1-1.5,0a80.88,80.88,0,0,0,.35,16.09c.11.95,1.61,1,1.5,0Z" style="fill:#aae051;opacity:0.349999994039536;isolation:isolate"/><path d="M336.06,277.21l2.67-10.78c.23-.94-1.22-1.34-1.45-.4l-2.66,10.78a.75.75,0,0,0,1.44.4Z" style="fill:#aae051;opacity:0.349999994039536;isolation:isolate"/><path d="M337.53,279.89q2.4-5.43,5.27-10.63c.47-.85-.83-1.61-1.29-.76q-2.86,5.21-5.28,10.63a.79.79,0,0,0,.27,1,.76.76,0,0,0,1-.27Z" style="fill:#aae051;opacity:0.349999994039536;isolation:isolate"/><path d="M332.14,277.34l-.5-7.79a.77.77,0,0,0-.75-.75.75.75,0,0,0-.75.75l.5,7.79a.75.75,0,1,0,1.5,0Z" style="fill:#aae051;opacity:0.349999994039536;isolation:isolate"/><path d="M213,241a86.22,86.22,0,0,1-3.91-20.43c-.06-1-1.56-1-1.5,0a88,88,0,0,0,4,20.83c.3.91,1.74.52,1.45-.4Z" style="fill:#aae051;opacity:0.349999994039536;isolation:isolate"/><path d="M214.2,238.35a77,77,0,0,1-2-14.09c-.05-1-1.55-1-1.5,0a79.65,79.65,0,0,0,2,14.49c.22.94,1.67.54,1.45-.4Z" style="fill:#aae051;opacity:0.349999994039536;isolation:isolate"/><path d="M210.59,241.3q-2.25-4.4-4.18-9a.76.76,0,0,0-1-.27.77.77,0,0,0-.27,1q1.92,4.54,4.18,8.94c.44.86,1.73.1,1.29-.75Z" style="fill:#aae051;opacity:0.349999994039536;isolation:isolate"/><path d="M221.62,232.42l.66-4a.75.75,0,0,0-1.45-.4l-.66,4a.75.75,0,0,0,1.45.4Z" style="fill:#aae051;opacity:0.349999994039536;isolation:isolate"/><path d="M223,234.91l2.16-8.79c.23-.94-1.22-1.34-1.45-.4l-2.16,8.79c-.23.94,1.22,1.34,1.45.4Z" style="fill:#aae051;opacity:0.349999994039536;isolation:isolate"/><path d="M198.92,263a48.1,48.1,0,0,1-3-13.39c-.07-.95-1.58-1-1.5,0a49.84,49.84,0,0,0,3.07,13.79c.34.89,1.79.51,1.45-.4Z" style="fill:#aae051;opacity:0.349999994039536;isolation:isolate"/><path d="M200,261.41a58,58,0,0,1,1.69-9.24.75.75,0,0,0-1.44-.4,58.56,58.56,0,0,0-1.75,9.64.75.75,0,0,0,1.5,0Z" style="fill:#aae051;opacity:0.349999994039536;isolation:isolate"/><path d="M200.83,264.76a35.62,35.62,0,0,1,2-7.45.75.75,0,0,0-.52-.92.76.76,0,0,0-.92.52,34.44,34.44,0,0,0-2.05,7.45.78.78,0,0,0,.52.93.75.75,0,0,0,.92-.53Z" style="fill:#aae051;opacity:0.349999994039536;isolation:isolate"/><path d="M216.18,270.88a12.38,12.38,0,0,1,0-2.28c0-.1,0-.12,0-.06s0-.08,0-.12a2.5,2.5,0,0,1,0-.29c0-.18.07-.36.11-.54a3.45,3.45,0,0,1,.12-.46c0,.08,0,.09,0,0a.18.18,0,0,1-.09.08.39.39,0,0,1-.43,0l0,0,0,0c-.06-.07-.06-.07,0,0a1.17,1.17,0,0,1,.05.11c-.05-.12,0,0,0,0s0,.15.05.23c.09.39.16.79.23,1.2s.09.62.12,1,.06.81.08,1.21a.76.76,0,0,0,1.28.54,9.49,9.49,0,0,0,1.5-2.35.77.77,0,0,0-.27-1,.76.76,0,0,0-1,.27,9.19,9.19,0,0,1-.59,1.12,6.86,6.86,0,0,1-.68.92l1.28.53a22.72,22.72,0,0,0-.21-2.32,7.37,7.37,0,0,0-.5-2.17,1.4,1.4,0,0,0-.8-.73,1.13,1.13,0,0,0-1.16.35,2.51,2.51,0,0,0-.44,1.05c-.08.36-.14.73-.19,1.1a11.42,11.42,0,0,0-.07,2.55.78.78,0,0,0,.75.75.76.76,0,0,0,.75-.75Z" style="fill:#aae051;opacity:0.349999994039536;isolation:isolate"/><path d="M223.78,276l.17-4.65a.75.75,0,0,0-1.5,0l-.17,4.65a.76.76,0,0,0,.75.75.77.77,0,0,0,.75-.75Z" style="fill:#aae051;opacity:0.349999994039536;isolation:isolate"/><path d="M227.1,280.5a11.23,11.23,0,0,1,1.92-5.25.76.76,0,0,0-.27-1,.75.75,0,0,0-1,.27,12.69,12.69,0,0,0-2.13,6,.76.76,0,0,0,.75.75.77.77,0,0,0,.75-.75Z" style="fill:#aae051;opacity:0.349999994039536;isolation:isolate"/><path d="M239.08,287.8a88.35,88.35,0,0,1,1.72-17.4c.19-.94-1.25-1.35-1.44-.4a89.41,89.41,0,0,0-1.78,17.8.75.75,0,0,0,1.5,0Z" style="fill:#aae051;opacity:0.349999994039536;isolation:isolate"/><path d="M240.67,288.27c-.25-.88.36-2,.65-2.87s.68-1.87,1.05-2.79c.76-1.89,1.62-3.74,2.56-5.55.45-.85-.84-1.61-1.29-.76a66,66,0,0,0-2.8,6.11c-.41,1-.79,2.07-1.15,3.12a5.34,5.34,0,0,0-.47,3.14.75.75,0,0,0,1.45-.4Z" style="fill:#aae051;opacity:0.349999994039536;isolation:isolate"/><path d="M237.36,287.43a30.34,30.34,0,0,1-.61-7.43c0-1-1.46-1-1.5,0a31.19,31.19,0,0,0,.67,7.83c.2.95,1.64.55,1.44-.4Z" style="fill:#aae051;opacity:0.349999994039536;isolation:isolate"/><path d="M256.91,294.08a8,8,0,0,1,.62-4.09,34.3,34.3,0,0,1,1.55-3.82l-1.39-.38a30.45,30.45,0,0,0,.25,8.89c.14.81,1.21.61,1.44,0q1.19-3,2.63-5.93l-1.4-.38c.1,2.73-.95,5.33-.93,8.05a.75.75,0,0,0,1.5,0c0-2.72,1-5.32.93-8.05,0-.69-1.05-1.08-1.4-.37-1,2.05-1.94,4.15-2.77,6.29h1.44a29.53,29.53,0,0,1-.19-8.5c.08-.73-1.09-1-1.4-.37a35.7,35.7,0,0,0-1.77,4.35,9.15,9.15,0,0,0-.55,4.71c.2.94,1.64.54,1.44-.4Z" style="fill:#aae051;opacity:0.349999994039536;isolation:isolate"/><path d="M264.12,297.54a4.82,4.82,0,0,1-.21-1.06,5.72,5.72,0,0,1,0-1.17h0a.88.88,0,0,1,0-.16l.06-.31.15-.55a4.88,4.88,0,0,1,.46-1l-1.37-.18a8,8,0,0,1-.16,4.2c-.25.8,1,1.35,1.37.58l.38-.77a.75.75,0,0,0-1.3-.75l-.37.77,1.37.57a9.53,9.53,0,0,0,.15-5,.76.76,0,0,0-1.37-.18,6.94,6.94,0,0,0-.65,5.4.75.75,0,0,0,.92.52.76.76,0,0,0,.53-.92Z" style="fill:#aae051;opacity:0.349999994039536;isolation:isolate"/><path d="M265.7,297.3l.33.5a.66.66,0,0,0,.2.21.55.55,0,0,0,.25.13.61.61,0,0,0,.3,0,.71.71,0,0,0,.28-.09l.15-.12a.69.69,0,0,0,.19-.33l0-.2a.72.72,0,0,0-.1-.38l-.33-.5a.51.51,0,0,0-.2-.21.55.55,0,0,0-.25-.13.61.61,0,0,0-.3,0,.71.71,0,0,0-.28.09l-.15.12a.69.69,0,0,0-.19.33l0,.2a.72.72,0,0,0,.1.38Z" style="fill:#aae051;opacity:0.349999994039536;isolation:isolate"/><path d="M267.76,294.6l-.17,1.82a.75.75,0,0,0,1.28.53.85.85,0,0,0,.22-.53l.17-1.82a.79.79,0,0,0-.22-.53.77.77,0,0,0-.53-.22.73.73,0,0,0-.53.22.75.75,0,0,0-.22.53Z" style="fill:#aae051;opacity:0.349999994039536;isolation:isolate"/><path d="M274.19,303.87l1.5-.83a.77.77,0,0,0,.34-.45A.76.76,0,0,0,276,302a.82.82,0,0,0-.45-.35.83.83,0,0,0-.58.08l-1.49.83a.75.75,0,0,0-.35.45.72.72,0,0,0,.08.57.76.76,0,0,0,.45.35.81.81,0,0,0,.57-.08Z" style="fill:#aae051;opacity:0.349999994039536;isolation:isolate"/><path d="M277.43,303.76l.67.66a.49.49,0,0,0,.24.15.57.57,0,0,0,.29.07.53.53,0,0,0,.28-.07.58.58,0,0,0,.25-.15l.11-.15a.76.76,0,0,0,.11-.38l0-.2a.78.78,0,0,0-.19-.33l-.67-.67a.61.61,0,0,0-.24-.15.48.48,0,0,0-.29-.06.49.49,0,0,0-.29.06.61.61,0,0,0-.24.15l-.12.16a.8.8,0,0,0-.1.38l0,.19a.77.77,0,0,0,.19.34Z" style="fill:#aae051;opacity:0.349999994039536;isolation:isolate"/><path d="M280.58,304.75l.83.83a.63.63,0,0,0,.24.16.72.72,0,0,0,.29.06.68.68,0,0,0,.29-.06.51.51,0,0,0,.24-.16.71.71,0,0,0,.22-.53.75.75,0,0,0-.22-.53l-.83-.83a.49.49,0,0,0-.24-.15.57.57,0,0,0-.29-.07.53.53,0,0,0-.28.07.58.58,0,0,0-.25.15.75.75,0,0,0,0,1.06Z" style="fill:#aae051;opacity:0.349999994039536;isolation:isolate"/><path d="M293,306.88a43.91,43.91,0,0,1,.52-10.92c.16-.94-1.28-1.35-1.45-.4a45.67,45.67,0,0,0-.57,11.32c.07.95,1.57,1,1.5,0Z" style="fill:#aae051;opacity:0.349999994039536;isolation:isolate"/><path d="M295.28,306.91a30.85,30.85,0,0,1,2.57-8.12.76.76,0,0,0-.27-1,.75.75,0,0,0-1,.26,32.45,32.45,0,0,0-2.73,8.48.77.77,0,0,0,.53.92.75.75,0,0,0,.92-.52Z" style="fill:#aae051;opacity:0.349999994039536;isolation:isolate"/><path d="M295.89,308.05a16.53,16.53,0,0,1,3-5.44.76.76,0,0,0,0-1.06.75.75,0,0,0-1.06,0,18.52,18.52,0,0,0-3.41,6.1.75.75,0,1,0,1.45.4Z" style="fill:#aae051;opacity:0.349999994039536;isolation:isolate"/><path d="M305.91,315.83c-.41-9.28,4-18.05,3.27-27.36h-1.5c1.12,8.51,2.22,17.06,1.84,25.66a.75.75,0,0,0,1.47.2,88.4,88.4,0,0,1,2.64-8.72c.53-1.48,1.1-2.95,1.72-4.39.41-1,1-3.07,2.31-3.05l-.72-.94a56.7,56.7,0,0,1-2.89,11.16.75.75,0,0,0,1.25.73l4.09-4.68-1.28-.53a38.85,38.85,0,0,1-.75,6.08c-.19.94,1.26,1.34,1.45.4a42.81,42.81,0,0,0,.8-6.48.76.76,0,0,0-1.28-.53l-4.09,4.68,1.25.73a56,56,0,0,0,2.9-11.17.77.77,0,0,0-.73-.95,3,3,0,0,0-2.59,1.64A26.68,26.68,0,0,0,313,303a87.45,87.45,0,0,0-3.46,10.91l1.47.2c.38-8.6-.72-17.15-1.84-25.66-.13-.93-1.59-1-1.5,0,.76,9.3-3.68,18.07-3.27,27.36,0,1,1.55,1,1.5,0Z" style="fill:#aae051;opacity:0.349999994039536;isolation:isolate"/><path d="M330.09,303l-3.33-13.93c-.23-.94-1.67-.54-1.45.4l3.34,13.93c.22.94,1.67.54,1.44-.4Z" style="fill:#aae051;opacity:0.349999994039536;isolation:isolate"/><path d="M332.15,300.59l-.87-15.95c0-1-1.55-1-1.5,0l.87,15.95c.05,1,1.55,1,1.5,0Z" style="fill:#aae051;opacity:0.349999994039536;isolation:isolate"/><path d="M334.74,299.24l1.34-13.94c.09-1-1.41-.95-1.5,0l-1.34,13.94c-.09,1,1.41.95,1.5,0Z" style="fill:#aae051;opacity:0.349999994039536;isolation:isolate"/><path d="M341.39,297.59a10.93,10.93,0,0,1,2.16-7.2l-1.4-.38c0,1.71,0,3.43.12,5.15,0,.75.41,1.55,1.29,1.5s1.18-.8,1.43-1.43a8.61,8.61,0,0,1,1.12-2c.08-.12.24-.25.31-.38s.11.1,0-.06a3,3,0,0,1,.37.47,3.82,3.82,0,0,0,1.08,1.57,1.41,1.41,0,0,0,1.89-.07c.68-.69-.38-1.75-1.06-1.06-.05,0,.15,0,.11,0a1.06,1.06,0,0,1-.21-.16,2.09,2.09,0,0,1-.35-.64,2.87,2.87,0,0,0-.91-1.26c-1.26-.89-2.28.48-2.88,1.44a17,17,0,0,0-.91,1.87c0,.05-.14.18-.14.23l0,.05.43.15a6.06,6.06,0,0,0,0-.84l-.11-4.48a.76.76,0,0,0-1.4-.38,12.31,12.31,0,0,0-2.36,8c.06,1,1.56,1,1.5,0Z" style="fill:#aae051;opacity:0.349999994039536;isolation:isolate"/><path d="M226.37,221.93l.55-13.92c0-1-1.47-1-1.5,0l-.55,13.92c0,1,1.46,1,1.5,0Z" style="fill:#aae051;opacity:0.349999994039536;isolation:isolate"/><path d="M228.53,219.79c.1-.34.22-.68.34-1l.18-.47.11-.27c0,.13,0-.09.05-.12a20,20,0,0,1,1-1.9.76.76,0,0,0-.27-1,.77.77,0,0,0-1,.27,19.81,19.81,0,0,0-1.8,4.14.77.77,0,0,0,.52.92.77.77,0,0,0,.93-.53Z" style="fill:#aae051;opacity:0.349999994039536;isolation:isolate"/><path d="M223.9,221.61l-.85-8.64a.78.78,0,0,0-.75-.75.75.75,0,0,0-.75.75l.85,8.64a.78.78,0,0,0,.75.75.76.76,0,0,0,.75-.75Z" style="fill:#aae051;opacity:0.349999994039536;isolation:isolate"/><path d="M351.62,296.77l3.66-9a.75.75,0,0,0-.53-.92.76.76,0,0,0-.92.52l-3.65,9a.75.75,0,0,0,.52.92.77.77,0,0,0,.92-.52Z" style="fill:#aae051;opacity:0.349999994039536;isolation:isolate"/><path d="M352.35,289.75a23.75,23.75,0,0,1-.32-7.43.75.75,0,1,0-1.5,0,25.11,25.11,0,0,0,.38,7.83.74.74,0,0,0,.92.52.76.76,0,0,0,.52-.92Z" style="fill:#aae051;opacity:0.349999994039536;isolation:isolate"/><path d="M352.33,264.7a28.51,28.51,0,0,1-1.8-17l-1.47-.2a29.29,29.29,0,0,0,1.78,10.44.76.76,0,0,0,1.37.18,37,37,0,0,0,3.72-7.87l-1.48-.2a29.08,29.08,0,0,1-.12,8.07.75.75,0,0,0,1.37.58l3.5-4.86c.57-.78-.73-1.53-1.29-.75l-3.51,4.85,1.37.58A30,30,0,0,0,356,250a.75.75,0,0,0-1.47-.2,35.41,35.41,0,0,1-3.57,7.51l1.37.18a28.17,28.17,0,0,1-1.72-10c0-.83-1.31-1-1.48-.2a30.29,30.29,0,0,0,2,18.19c.38.88,1.68.11,1.29-.76Z" style="fill:#aae051;opacity:0.349999994039536;isolation:isolate"/><path d="M366.2,256.57a32,32,0,0,1,1.16-11.19l-1.47-.2.35,3a.78.78,0,0,0,.75.75.76.76,0,0,0,.75-.75l-.35-3a.76.76,0,0,0-1.48-.2,33.36,33.36,0,0,0-1.21,11.59c.07,1,1.57,1,1.5,0Z" style="fill:#aae051;opacity:0.349999994039536;isolation:isolate"/><path d="M372.6,252.14a18.7,18.7,0,0,1-2-10.21c.09-1-1.41-1-1.5,0a20.08,20.08,0,0,0,2.22,11c.45.85,1.74.1,1.29-.76Z" style="fill:#aae051;opacity:0.349999994039536;isolation:isolate"/><path d="M368.47,270.88a11.29,11.29,0,0,1,3.95-6.68.75.75,0,0,0,0-1.06.76.76,0,0,0-1.06,0,12.57,12.57,0,0,0-4.34,7.35.78.78,0,0,0,.53.92.76.76,0,0,0,.92-.53Z" style="fill:#aae051;opacity:0.349999994039536;isolation:isolate"/><path d="M378.26,271.09,381.8,264a.78.78,0,0,0-.27-1,.77.77,0,0,0-1,.27L377,270.33a.78.78,0,0,0,.27,1,.77.77,0,0,0,1-.27Z" style="fill:#aae051;opacity:0.349999994039536;isolation:isolate"/><path d="M365.75,276.38a24.6,24.6,0,0,1-4.28-7.62c-.31-.91-1.76-.52-1.44.4a26.58,26.58,0,0,0,4.66,8.28.75.75,0,0,0,1.06,0,.76.76,0,0,0,0-1.06Z" style="fill:#aae051;opacity:0.349999994039536;isolation:isolate"/><path d="M385.85,268.52a11,11,0,0,1-.8-8.4l-1.37.18,2.63,5c.38.73,1.31.28,1.39-.38a23.49,23.49,0,0,1,1.67-6.1l-1.37-.17a13.38,13.38,0,0,1,.61,7.2c-.12.65.75,1.38,1.25.73a8.82,8.82,0,0,0,1.73-3.67c.19-.94-1.25-1.34-1.45-.4a7.13,7.13,0,0,1-1.34,3l1.26.73a14.92,14.92,0,0,0-.61-8c-.2-.53-1.09-.83-1.37-.18A26.18,26.18,0,0,0,386.2,265l1.4-.38-2.62-5a.77.77,0,0,0-1.38.18,12.58,12.58,0,0,0,.95,9.56c.46.85,1.75.1,1.3-.76Z" style="fill:#aae051;opacity:0.349999994039536;isolation:isolate"/><path d="M396.05,266.52a41.27,41.27,0,0,1-.19-11.32.75.75,0,1,0-1.5,0,42.6,42.6,0,0,0,.24,11.72c.15.95,1.6.55,1.45-.4Z" style="fill:#aae051;opacity:0.349999994039536;isolation:isolate"/><path d="M398.93,261.26a1.91,1.91,0,0,0-.86,2c.14.8,1.22.61,1.45,0l2.12-5.59H400.2a3,3,0,0,0,5.72.07l-1.37.18a6.49,6.49,0,0,0,1.87,1.93.76.76,0,0,0,.91-.12l2.24-2.65c.62-.73-.44-1.8-1.06-1.06l-2.24,2.65.91-.12a4.42,4.42,0,0,1-1.33-1.39.76.76,0,0,0-1.37.18,1.51,1.51,0,0,1-2.84-.07.75.75,0,0,0-1.44,0l-2.13,5.59h1.45a.35.35,0,0,1,.17-.33c.8-.53.05-1.82-.76-1.29Z" style="fill:#aae051;opacity:0.349999994039536;isolation:isolate"/><path d="M419.46,253.9l3.94-1.44A.75.75,0,0,0,423,251l-3.94,1.44a.75.75,0,1,0,.4,1.45Z" style="fill:#aae051;opacity:0.349999994039536;isolation:isolate"/><path d="M392,248.42l.43-.07a.55.55,0,0,0,.25-.13.7.7,0,0,0,.2-.22.76.76,0,0,0,.07-.57l-.07-.18a.87.87,0,0,0-.27-.27l-.18-.08a.9.9,0,0,0-.4,0l-.43.07a.58.58,0,0,0-.26.13.76.76,0,0,0-.19.21.49.49,0,0,0-.09.28.61.61,0,0,0,0,.3l.08.18a.87.87,0,0,0,.27.27l.18.08a.9.9,0,0,0,.4,0Z" style="fill:#aae051;opacity:0.349999994039536;isolation:isolate"/><path d="M398.05,248.68l.88-.89a.54.54,0,0,0,.16-.24.48.48,0,0,0,.06-.29.49.49,0,0,0-.06-.29.54.54,0,0,0-.16-.24.75.75,0,0,0-.53-.22.84.84,0,0,0-.53.22l-.88.89a.51.51,0,0,0-.16.24.68.68,0,0,0-.06.29.72.72,0,0,0,.06.29.63.63,0,0,0,.16.24.75.75,0,0,0,.53.22.79.79,0,0,0,.53-.22Z" style="fill:#aae051;opacity:0.349999994039536;isolation:isolate"/><path d="M408.34,247.2l.44-.89a.47.47,0,0,0,.09-.28.48.48,0,0,0,0-.29.58.58,0,0,0-.13-.26.63.63,0,0,0-.21-.19.79.79,0,0,0-.58-.08.75.75,0,0,0-.45.35l-.44.88a.49.49,0,0,0-.09.28.61.61,0,0,0,0,.3.48.48,0,0,0,.14.25.51.51,0,0,0,.21.2.71.71,0,0,0,.57.07.74.74,0,0,0,.45-.34Z" style="fill:#aae051;opacity:0.349999994039536;isolation:isolate"/><path d="M436.21,247.2l2.22-3.1a.76.76,0,0,0-.27-1,.77.77,0,0,0-1,.26l-2.21,3.1a.75.75,0,0,0,.27,1,.77.77,0,0,0,1-.27Z" style="fill:#aae051;opacity:0.349999994039536;isolation:isolate"/><path d="M447.43,240.81l1.33-.88a.87.87,0,0,0,.35-.45.78.78,0,0,0-.08-.58.77.77,0,0,0-1-.27l-1.32.89a.79.79,0,0,0-.35.45.72.72,0,0,0,.08.57.74.74,0,0,0,1,.27Z" style="fill:#aae051;opacity:0.349999994039536;isolation:isolate"/><g style="opacity:0.349999994039536;isolation:isolate"><path d="M470.07,232.53a.75.75,0,0,0,0-1.5.75.75,0,0,0,0,1.5Z" style="fill:#aae051"/></g><path d="M382.83,250a21.14,21.14,0,0,1,1.45-9.86c.31-.79-1-1.34-1.37-.58a11.4,11.4,0,0,0-.64,8.37.75.75,0,0,0,1.1.45,5.64,5.64,0,0,0,2.78-3.85H384.7l1.35,3.29a.76.76,0,0,0,1.1.44,4.86,4.86,0,0,0,2.19-3l-.92.53a1,1,0,0,1,.77.85c.21.94,1.65.54,1.45-.4a2.56,2.56,0,0,0-1.82-1.9.75.75,0,0,0-.92.52,3.43,3.43,0,0,1-1.5,2.12l1.1.45-1.35-3.29a.78.78,0,0,0-.72-.55.76.76,0,0,0-.73.55,4.21,4.21,0,0,1-2.09,3l1.11.45a9.86,9.86,0,0,1,.48-7.22l-1.37-.58a22.19,22.19,0,0,0-1.5,10.26c.09.95,1.59,1,1.5,0Z" style="fill:#aae051;opacity:0.349999994039536;isolation:isolate"/></svg>