<svg id="Layer_1" data-name="Layer 1" xmlns="http://www.w3.org/2000/svg" xmlns:xlink="http://www.w3.org/1999/xlink" viewBox="0 0 1176.61 873.98"><defs><clipPath id="clip-path"><rect x="-42.21" y="-42.95" width="1227.81" height="939.24" style="fill:none"/></clipPath></defs><title>Artboard 3 copy 2</title><g style="clip-path:url(#clip-path)"><rect x="-42.21" y="-42.95" width="1231" height="960" style="fill:#171717"/><path d="M1190.88,1135.54a589.09,589.09,0,0,1-14.29,129.22c-58.88,262.34-293.19,458.38-573.31,458.38-324.53,0-587.6-263.13-587.6-587.6s263.07-587.6,587.6-587.6A584.19,584.19,0,0,1,922.35,642.1C1083.94,746.73,1190.88,928.64,1190.88,1135.54Z" style="fill:#2f4858"/><path d="M1190.88,1135.54a589.09,589.09,0,0,1-14.29,129.22c-7.26-4.56-12.5-10.63-12.5-19.7,0-29.88-12.49-29.88-2.53-87.12s-12.44-22.4-17.45-83.7-27.35-40.8-44.18-68.21-57.86-77.17-87.75-52.29,27.36,32.36,69.68,67.26,2.53,79.64-39.79,102-59.77,7.49-89.66-19.87S925,1001.08,907.61,931.34s-24.94-14.91-32.37,47.33S917.57,1103.17,930,1133s67.2,5,59.77,69.74-82.17,52.29-129.51,84.65-64.72,112.06-99.62,141.95-54.76,7.48-72.15,24.87-67.26,52.29-137,67.26-44.8,12.44-84.65-92.13,7.49-129.51,7.49-129.51,44.8-94.61,19.92-146.9,19.93-24.88,32.36-72.21S432,1023.48,369.76,998.54s-47.33-119.49-27.41-176.78,226.6-109.53,280.13-107S760.65,824.29,798,824.29s52.29,32.36,117,29.89S867.76,809.32,850.31,777s54.76,17.44,99.62,15.59-2.53-70.36-39.85-52.91S880.2,757,845.36,749.55,818,729.68,785.59,701.82s-42.33-27-89.66-9.51-82.18,10-144.43-14.92,5-15,82.18-35.46,22.4-4.39,52.28-16.83,59.78,2.48,161.87,12.44c30.79,3,55.22,4.28,74.52,4.56C1083.94,746.73,1190.88,928.64,1190.88,1135.54Z" style="fill:#aae051;opacity:0.349999994039536;isolation:isolate"/><path d="M465.7,510.38c-76.42-7.32-181.63,23.94-237,92.44-31.88,39.45,25.9-24.69,115.82-51.48C403,533.94,503.74,514,465.7,510.38Z" style="fill:#fff;opacity:0.100000001490116;isolation:isolate"/><path d="M1022.13,706.88c7.44,7.92,14.79,16.31,21.9,25.16,53.13,66.09,131.74,185.41,116.44,134.5C1139.64,797.22,1089,720.18,1022,666.75" style="fill:#fff;opacity:0.100000001490116;isolation:isolate"/><path d="M944.13,619.76a275.88,275.88,0,0,0-27.28-9.84c-39.65-11.92-17.12-2.83,24.79,27.28" style="fill:#fff;opacity:0.100000001490116;isolation:isolate"/><path d="M170.56,816.8c14.14-28.14,79.13-141.5,201.69-196.46s236.41-24.12,92.12,14.7C232.84,697.32,112.3,932.72,170.56,816.8Z" style="fill:#fff;opacity:0.200000002980232;isolation:isolate"/><path d="M1057,792.52c-30.17-41.79-114.53-72.83-49.8,11.83S1181.48,964.94,1057,792.52Z" style="fill:#fff;opacity:0.200000002980232;isolation:isolate"/><path d="M105.74,821.81c6.24-9.22,27.47,2.07,17.51,74.47s-7.47,21.43,22.41,94.23-17,10.55-63.3,164.93S-46.31,1046.36,105.74,821.81Z" style="fill:#aae051;opacity:0.349999994039536;isolation:isolate"/><path d="M-17.07,956.85C-10,908.36,9.54,847.44,34.44,804.49s-1.87,23-19.3,85.29S24,869.43,28.22,898.5,9.72,966.35,2.07,1008.05C-6.75,1056.15-49,1174.88-17.07,956.85Z" style="fill:#fff;opacity:0.100000001490116;isolation:isolate"/><path d="M213.77,696c12.76-11.73,26-22.94,39.74-33.49q20.22-15.51,41.84-29A494.3,494.3,0,0,1,387,588.58,522,522,0,0,1,437.27,573c2.2-.56,4.4-1.1,6.6-1.64.94-.23.54-1.67-.4-1.45a525.68,525.68,0,0,0-51.25,15.2A496.44,496.44,0,0,0,299.7,629q-21.84,13.28-42.29,28.66-20.64,15.5-39.82,32.83c-1.64,1.47-3.26,2.94-4.88,4.43-.71.66.35,1.72,1.06,1.06Z" style="fill:#fff"/><path d="M92.45,846.46c9.38-14.4,17.82-29.44,27.53-43.62,2.83-4.14,6-8.06,9-12.13.57-.78-.73-1.53-1.29-.75-2.57,3.54-5.14,7.07-7.81,10.54s-4.92,7.27-7.26,11c-4.54,7.17-8.95,14.42-13.43,21.63q-3.94,6.34-8,12.63c-.53.81.77,1.56,1.29.75Z" style="fill:#fff"/><path d="M933.92,648.08a519.19,519.19,0,0,0-65.34-39.76,486.5,486.5,0,0,0-71.91-30.07c-14.42-4.65-29.09-8.49-43.9-11.7-.94-.21-1.34,1.24-.39,1.44a455.26,455.26,0,0,1,76.28,23.63,515.33,515.33,0,0,1,68.57,34.26q18.45,11,35.93,23.49c.79.56,1.54-.74.76-1.29Z" style="fill:#fff"/><path d="M1119.12,850.5q-14.62-25.15-31.47-48.9Q1070.94,778,1052.18,756q-10.53-12.35-21.68-24.16c-.66-.7-1.72.36-1.06,1.06q19.68,20.87,37.46,43.41,18,22.85,33.89,47.24,8.87,13.62,17,27.68a.75.75,0,0,0,1.3-.76Z" style="fill:#fff"/><path d="M491.21,524.3l17.13,10.4,25,12.91-2.5,1.92L527.73,554l-2.27,6.1,1,4.75,3.67,4.44L535,573.9l2.42,3.06,1.5,3.34-.27,3.91-1.48,2.58-1.91,1.05-1.72-.32L524.31,582,505.7,571.19l-12.84-7.07-9.31-4.93-2.11-1.09a1.81,1.81,0,0,1-1.58-1.58c-.09-1.38.69-10.5.69-10.5l1.6-9.17a40.25,40.25,0,0,1,1.49-4.44C484.8,529.37,488.72,523.54,491.21,524.3Z" style="fill:#171717"/><polygon points="590.33 595.21 583.39 592.64 578.59 591.83 575.17 592.3 571.85 593.95 566.07 598.36 560.46 604.48 555.22 612.47 552.75 617.53 551.28 622.65 550.44 629.6 550.79 636.29 551.91 639.73 554.49 643.51 557.83 646.33 563.49 649.5 568.27 650.75 574.25 651.02 578.88 650.13 583.79 647.47 591.34 640.37 594.88 636.02 598.19 630.65 600.89 623.65 601.65 620.07 602.07 616.25 601.84 611.56 600.71 606.72 598.85 602.65 595.96 598.85 592.72 596.4 590.33 595.21" style="fill:#171717"/><polygon points="481.25 541.51 477.8 542.52 474.27 544.28 469.95 547.63 465.86 552.48 462.33 559.17 460.36 565.44 459.3 572.78 459.51 578.84 460.83 584.46 462.22 587.46 465.68 591.6 471 594.97 479.25 597.98 483.92 598.65 488.24 597.64 494.8 593.69 498.81 590.19 501.81 585.01 493.31 579.09 487.07 574.44 482.51 569.76 480.55 564.89 480.08 560.14 480.02 553.62 480.55 546.62 481.25 541.51" style="fill:#171717"/><polygon points="694.17 514.05 696.32 512.7 700.79 514.05 706.54 516.64 711.61 520.19 713.43 522.18 715.7 525.9 717.45 531.02 718.34 535.29 718.33 540.64 717.82 546.76 716.83 551.73 714.83 557.91 711.34 565.07 706.6 571.76 700.61 577.7 694.86 581.32 688.74 583.73 685.16 584.56 680.91 584.56 676.87 583.69 672.87 582.15 668.97 579.88 665.24 576.54 661.84 571.76 664.03 565.91 667.1 553.87 670.64 543.75 674.49 535.69 678.47 529.37 683.33 523.41 688.71 518.21 694.17 514.05" style="fill:#171717"/><path d="M729.79,493.88a7.8,7.8,0,0,0-1.89-2.11,9.48,9.48,0,0,0-.93-3.34c-4.12-8.33-13.52-6.18-20.24-2.86.44-.95.88-1.9,1.27-2.88.92-2.35-1-5.13-3.26-5.75a4.47,4.47,0,0,0-4.87,1.72,5.31,5.31,0,0,0-1.34.38C682.47,486.16,665,489.38,648,493.15c-8.52,1.88-17,3.89-25.32,6.55-4.82,1.54-9.66,3.79-14.59,5.49a4.44,4.44,0,0,0-1.89-5.67c-.54-.3-.55-.9-1.09-1.21a5.67,5.67,0,0,0-.91-.39c-1.15-.67-2.09-1.61-3.23-2.31-1-.87-2.54-1.3-3.58-2.23-2.69-2.39-5.66-4.66-9.17-5.61-.47-.36-1-.7-1.42-1.07q-4.51-3.57-8.77-7.47c-1.5-1.37-3-2.79-4.42-4.22-.62-.62-1.5-1.37-2.26-2.13a38.17,38.17,0,0,1,6.45-7.21,3.69,3.69,0,0,0,.78-1l.44-.18a5.43,5.43,0,0,0,3.18-3.06c3.59-2.92,1.13-10-4-8.17-7.23,2.56-14.52,5.35-21.67,8.49-26.84,9-48.65,26.85-64.66,50.28-1.57,2.3-4,5.51-4.06,8.13,0,.87-4.85,10.65-4.25,11.34.25.28-3.86,11.38-1.81,11.76.38.07.87-.43,2.15-.14,3,.67,8.18,2.13,10.14-.07s.25-11.38-.13-12.32c-.84-2-2.95-6.23-2.5-6a9.45,9.45,0,0,0,1.79.65,252.32,252.32,0,0,0,23.26,13.85c5.59,3,11.88,5.72,16.77,8.68-1.22,1-2.17,1.33-3.09,2.64-2,2.2-6.81,9.84-2.82,15.06.61.8,2.1,4,3,3.92a24.9,24.9,0,0,0,3.79,3.52c2.86,3.71,3.79,4.67,4.83,9.18-.16.46-.28,2.07-.43,2.53-.7,1.56-1.25,1.84-1.89,3.13-2.6-.08-4.81-1.27-7.14-2.65-3.08-1.82-6.12-3.71-9.19-5.56a34.79,34.79,0,0,1-3.24-2c-.67-.44-4-2.27-4.66-2.71-6.75-4.45-9.95-5.63-17.78-9.92a17.57,17.57,0,0,0-2.82-1.52c-1.46-1.12-2.11-.7-3.54-1.84a24.38,24.38,0,0,0-8-3.67c-.24,1.49-.61,8.68,1.36,10.27l.16.12c-.31.73,1.83,3.14,2.68,3.8,13.46,10.4,23.93,18.93,39.28,26.37,1.81.88,3.16,2,5,2.52.11.89,3.27,1.17,4.22,1.53,3.14,1.19,8.17,1,11,.5,3.33-.56,4.45-.66,7.4-2.3a30.1,30.1,0,0,0,3.4-2.22,49.2,49.2,0,0,0,16.3-9.78,2,2,0,0,0,.55-.86l22.74-13.23c5.76-3.36,11.58-7.13,16.61-10.74.29-.17,1.92-1.52,2.22-1.69,2.24-1.28,2.79-2.39,5.34-4.32,6.18,3,13.71,4.75,20.05,7.36,5.48,2.25,10.67,4,16.58,6.9,1.5.74,4.31,2.52,5.81,2.24a27.57,27.57,0,0,0,2.11-5.25c3.45-14.94,7.3-25.47,14.28-37.58,1.12-1.47,2.21-2.95,3.36-4.38A162.4,162.4,0,0,1,701,509.82l13.11-5.61c1.55-.66,3.3-1.27,5-2a76.53,76.53,0,0,1,7.82-1.51C730,500.33,731.19,496.18,729.79,493.88ZM560.17,560.37c-.24.17-.51.69-.76.86-1,.74-2.06,1.52-3.06,2.33a45.75,45.75,0,0,0-4.21,3.91,45.09,45.09,0,0,0-3.06,3.72c-.43,0-.85,0-1.27-.05l-.25,0-.14,0c-.23-.05-.15-.53-.38-.58-.49-.11-1.07-.36-1.44-.47-1.33-.39-1.32-1-1.33-1-4.1-3-7.43-4.18-11.93-6.58-.07,0-.85-.58-.92-.61-.07-.8.82-1.16,1.31-2.22s1.14-2.36,1.65-3.55c.54-.52,1.13-1,1.66-1.53.79-.79,1.56-1.6,2.32-2.43l0-.05c.28-.21.56-.44.83-.63.45-.33.72.56.87.14a21.37,21.37,0,0,1,2.53,1.54,10.08,10.08,0,0,0,4.19,2.36,20.22,20.22,0,0,0,1.92,1c1.58,1.71,3.45,1.88,5.68-.31a16.08,16.08,0,0,1,2.13-1.78c.41-.28,1.29-.92,1.71-1.21s1.11-.36,1.57-.64l-.27,1.51a30.74,30.74,0,0,1,.69,5C560.13,559,560.27,559.62,560.17,560.37Z" style="fill:#aae051"/><path d="M559.93,554.3c-.1-1.85-.93-1.78-2.27-.54a24.68,24.68,0,0,1-5.43,4.25c-.12.06-1.54,0-1.67,0-2.67-1.14-2.23-1.67-3.44-2.26-.23-.1-1.61-1.16-1.83-1.11-.95-.71-1.35-.61-2.26-1.38a11.67,11.67,0,0,0-3.31-2c-1.14-.3-1.48,1.05-2.23,1.76-.94.89-1.29,2-2.17,2.91-1.21,1.32-4,3.32-3.58,5.33s3.42,3.56,5.07,4.42a61.82,61.82,0,0,0,7,3.49c2.77,1,3.76,2.68,5.82.94,2.26-1.91,4.52-4.38,6.71-6.37,1.77-1.6,3.21-2.12,3.77-4.41a8.37,8.37,0,0,0,.17-2.44A15.79,15.79,0,0,0,559.93,554.3Z" style="fill:#fff"/><path d="M489.21,524.52a1.15,1.15,0,0,0-.2-.56l-.05-.08a1.54,1.54,0,0,0-1.65-.67c-.93.17-1.25,1-1.53,1.82s-.52,1.47-.77,2.21c-.51,1.47-1,3-1.5,4.43-.23.69-.82,2-1,2.73-.25,1,.2,1.46,1,2,1.32.92,2.88,1.38,4.25,2.23A1.46,1.46,0,0,0,490,537.4c-.34-3.73-.09-5.24-.18-9.13C489.76,527.1,490.11,524.45,489.21,524.52Z" style="fill:#fff"/><path d="M618.32,441.44a90.47,90.47,0,0,0,10.24-5c2.62-1.55,5.21-3.54,8.34-3.87,3.72-.4,6.82,1.56,9.67,3.7,3.17,2.37,6.32,4.78,9.51,7.13q9.46,7,19.15,13.65c6.55,4.49,13.27,8.69,19.93,13,2.93,1.9,6.56,3.82,8.53,6.82,1.58,2.39,1.73,5.36,1.91,8.14a.77.77,0,0,0,.95.72l9.77-1.77c1.54-.28,3.44-.93,5-.39,1.35.47,2.09,1.82,2.75,3,1.46,2.65,2.8,5.38,4,8.15l.57,1.32a5.07,5.07,0,0,0,.48,1.14c-.12-.12.09-.23,0-.22s-.39.36-.54.48a37,37,0,0,1-6.87,3.64c-3.14,1.45-6.33,2.8-9.53,4.11-2.29.93-4.58,1.86-6.91,2.68a51.13,51.13,0,0,0-12.11,5.92,64.11,64.11,0,0,0-20.95,24.6A101.42,101.42,0,0,0,665.71,556c-.84,3-1.58,6.06-2.26,9.11a79.48,79.48,0,0,1-3.15,9.54l1.1-.45q-19.86-8.86-40.4-16.12a9.5,9.5,0,0,0-2.37-.81c-.57,0-.92.46-1.33.8-1.41,1.18-2.84,2.34-4.3,3.46q-4.1,3.18-8.39,6.1c-5.82,4-11.84,7.64-18,11.13-3.1,1.78-6.23,3.51-9.37,5.22s-6.17,3.1-8.76,5.44a60.36,60.36,0,0,1-8.56,6.05,63.25,63.25,0,0,1-8.29,4.51c-6.35,2.79-13.27,3.76-19.93,1.51a52.14,52.14,0,0,1-9.1-4.37q-4.73-2.7-9.35-5.56-9.07-5.61-17.77-11.79c-2.89-2-5.84-4.09-8.56-6.36s-4.76-4.7-5.56-8.08a40,40,0,0,1-.62-9.28c0-2.77.15-5.55.41-8.31a86.53,86.53,0,0,1,2.87-15.4c5.47-19.43,17.92-35.9,33.52-48.44,16.13-13,35.31-21.95,55-27.92q3.58-1.08,7.22-2a.75.75,0,0,0-.4-1.45c-18.36,4.83-36.26,12.14-52.19,22.56-15.28,10-28.83,23.07-37.52,39.27a87.44,87.44,0,0,0-9,25.91,93.11,93.11,0,0,0-1.42,14.71c-.1,5.44-.31,11.53,3.18,16.06a30.89,30.89,0,0,0,6.16,5.59q4,3,8.07,5.83,8.15,5.72,16.64,10.92c5.25,3.22,10.59,6.67,16.33,9a26.94,26.94,0,0,0,17.37.9c5.76-1.58,10.9-4.65,15.87-7.87a60.12,60.12,0,0,0,7.27-5.41c2.49-2.21,5.82-3.56,8.73-5.14,11.37-6.22,22.62-12.75,33-20.55q3.65-2.76,7.15-5.71l-.73.19q21.51,7.49,42.31,16.77a.76.76,0,0,0,1.1-.45,78,78,0,0,0,3-8.92c.63-2.77,1.27-5.54,2-8.29a104.75,104.75,0,0,1,5.83-16.72,63,63,0,0,1,22.2-26.57c6-3.94,13.06-5.9,19.66-8.64,3.26-1.35,6.5-2.74,9.67-4.27,2-.93,4.48-1.89,6-3.5,1.14-1.21-.21-2.9-.75-4.13a63.06,63.06,0,0,0-4.76-9.38,5.94,5.94,0,0,0-2.59-2.35,7.8,7.8,0,0,0-4.39,0l-11.48,2.08,1,.73a21.18,21.18,0,0,0-1.42-7.65c-1.15-2.48-3.29-4.18-5.47-5.71-6.78-4.78-14-9-20.84-13.61q-10.54-7.14-20.79-14.67c-3.43-2.51-6.82-5.06-10.2-7.63-2.82-2.13-5.72-4.31-9.34-4.68s-6.69,1.26-9.67,3.1a90.69,90.69,0,0,1-11.81,6c-.88.38-.12,1.67.76,1.29Z" style="fill:#fff"/><path d="M621.28,554.81a79.66,79.66,0,0,1,28.44-31.26c11.37-7.16,24.54-10.32,36.41-16.44,6.32-3.26,12.1-7.5,16.26-13.33.56-.79-.74-1.54-1.29-.76-7.76,10.89-21,15.43-32.94,20.09A114.56,114.56,0,0,0,650,521.63a80.76,80.76,0,0,0-30,32.42c-.44.86.85,1.62,1.29.76Z" style="fill:#fff"/><path d="M699.42,477.84c-19.78,10.9-42.88,11.81-64.35,17.34a151.19,151.19,0,0,0-31.45,12,127.62,127.62,0,0,0-28,19c-9.08,8.33-16.84,18-25.73,26.47l.9-.11c-16.12-9.32-32.89-17.43-49.4-26q-6.65-3.46-13.21-7.08c-.85-.47-1.6.83-.76,1.3,16.2,9,32.9,17,49.23,25.69,4.5,2.41,9,4.86,13.39,7.41a.77.77,0,0,0,.91-.12c7.92-7.58,14.94-16,22.79-23.69a123.82,123.82,0,0,1,27.47-19.9,150,150,0,0,1,31.45-12.8c10.69-3,21.67-4.64,32.53-6.8,12.06-2.39,24.12-5.46,35-11.43.85-.47.09-1.76-.75-1.3Z" style="fill:#fff"/><path d="M550.81,553.88c13.48-9.26,28.21-16.3,42.61-24,4.17-2.21,8.31-4.49,12.39-6.88l-.91-1.18A347.51,347.51,0,0,1,572.42,554c-5.72,4.93-11.8,9.43-17.49,14.4-5,4.32-9.55,9-11.67,15.41a50.56,50.56,0,0,0-2.19,10.46c-.31,2.92.94,7.09,4.65,6.67.95-.1,1-1.6,0-1.5-1.7.2-2.85-1.21-3.14-2.77-.33-1.8.18-3.73.49-5.51a42.42,42.42,0,0,1,2.13-8.31c2.4-6.12,7.56-10.71,12.48-14.84,5.34-4.48,10.88-8.69,16.15-13.25s10.55-9.43,15.6-14.39Q598,531.91,606,522.93a.75.75,0,0,0-.91-1.17c-14.08,8.24-29,15-43,23.25-4.07,2.39-8.06,4.9-11.94,7.58-.79.54,0,1.84.75,1.29Z" style="fill:#fff"/><path d="M481.56,544.17c3.06-1.66,6.61,1.64,9.88,1.18,2.41-.34,3.87-2.29,4.34-4.57a18.84,18.84,0,0,0-.49-7.83,35.13,35.13,0,0,0-3.43-9l-1,1a354.64,354.64,0,0,0,42.1,23.32l.18-1.37c-2.05.76-3.5,2.77-4.67,4.51a25.08,25.08,0,0,0-3.41,7c-1.94,6.79,4.94,11.55,9,15.66,2.49,2.5,4.74,5.85,3.95,9.57-.39,1.85-1.9,4.08-4,3.29-1.92-.71-3.73-2.17-5.47-3.23q-11-6.67-22.22-13-12.69-7.14-25.65-13.81c-.86-.44-1.62.85-.76,1.3q23.44,12.06,46,25.7l5.53,3.37c1.44.88,3,1.82,4.71,1.16,2.87-1.11,3.78-4.73,3.42-7.47-1-7.62-9.44-10.41-12.5-16.86-1.54-3.25-.57-6.07,1-9.06a26.77,26.77,0,0,1,2.61-4.12,7.39,7.39,0,0,1,2.84-2.52c.54-.2.82-1.08.18-1.37a357.5,357.5,0,0,1-42.1-23.32c-.65-.42-1.37.4-1,1a33.88,33.88,0,0,1,3.12,8c.6,2.44,1.16,5.18.65,7.68a4.83,4.83,0,0,1-1.4,2.74c-1.2,1-2.85.86-4.28.46-2.61-.72-5.21-2.14-7.86-.71-.84.46-.09,1.76.76,1.3Z" style="fill:#fff"/><path d="M640.65,432.22A133.75,133.75,0,0,1,646.87,409c.73-2,1.51-4,2.34-5.89.36-.85.72-1.69,1.11-2.52.54-1.15,1.15-1.95,2.56-1.65a36,36,0,0,1,9.85,4.31c6.39,3.69,12.13,8.37,17.81,13l4,3.25a9.11,9.11,0,0,1,3.27,4.1c.57,1.87.15,4,0,5.88-.2,2.12-.36,4.24-.51,6.36-.63,9.4-.82,18.82-1.19,28.22a.75.75,0,0,0,1.5,0c.35-9.08.55-18.17,1.13-27.25q.23-3.42.52-6.84a24.47,24.47,0,0,0,.22-5.86c-.57-3.62-4-5.75-6.58-7.9-6-5-12.07-10-18.81-14a46.87,46.87,0,0,0-9.95-4.56c-1.62-.49-3.18-.6-4.31.84a21,21,0,0,0-2.38,5,133,133,0,0,0-8.19,28.18c-.17.95,1.28,1.35,1.45.4Z" style="fill:#fff"/><path d="M560.15,560.44c.91-2.51.43-5.52.05-8.09,0-.26-.36-.32-.55-.23a25.25,25.25,0,0,0-5,3.53,8.58,8.58,0,0,1-2,1.2c-.72.33-1.1.82-2,.54a10.89,10.89,0,0,1-2.29-1.26l-7.23-4.41c-.56-.33-1.4-1.14-2.12-.94-.38.11-.61.51-.83.78-.47.57-.92,1.15-1.37,1.72-1.78,2.22-3.65,4.4-5.34,6.68-1.39,1.86.19,2.57,1.79,3.44l7.59,4.16,3.69,2,1.73.95a7.4,7.4,0,0,0,1.64.87c1,.2,1.67-.77,2.34-1.38l3.65-3.3,3.48-3.14a10.29,10.29,0,0,0,2.72-3.05c.2-.43-.44-.81-.65-.38a8.36,8.36,0,0,1-2.24,2.57l-2.92,2.64-2.74,2.48-1.47,1.32a6.72,6.72,0,0,1-1.46,1.32c-.94.42-2.65-1-3.49-1.43l-3.47-1.9L535,563.47l-1.73-1c-.66-.36-1.13-.45-1.27-1.24s0-.66.36-1.17l.61-.76,1.37-1.72,2.29-2.86,1.07-1.34c.32-.41.91-1.47,1.37-1.72.72-.39,2.56,1.17,3.19,1.54l3.3,2,3.1,1.89a3.18,3.18,0,0,0,4.5.37,8,8,0,0,0,1.58-1,29.62,29.62,0,0,1,5.32-3.8l-.55-.22c.37,2.43.81,5.32,0,7.69C559.27,560.7,560,560.9,560.15,560.44Z" style="fill:#fff"/><path d="M486.5,523.56a3.08,3.08,0,0,1,2.3.76c.73.76.55,2.17.59,3.15.08,2.13.13,4.27.13,6.41,0,1,0,2.08,0,3.12a4.27,4.27,0,0,1-.05,1.56c-.22.4-1-.13-1.39-.28a43.18,43.18,0,0,1-5.36-2.78.38.38,0,0,0-.38.65c1.18.71,2.38,1.38,3.62,2,.53.26,1.07.5,1.61.74a9,9,0,0,0,1.62.66c.75.13,1-.5,1.05-1.12.13-1.39,0-2.83,0-4.22,0-2.76,0-5.53-.2-8.28a2.93,2.93,0,0,0-1.05-2.39,4.08,4.08,0,0,0-2.52-.71.38.38,0,0,0,0,.75Z" style="fill:#fff"/><path d="M697.86,513.86c7.29,2.27,14.64,6,17.67,13.49,2.89,7.12,2.53,15.7.84,23.07-3.44,15.06-14.25,29.79-30,33.17-4.21.9-8.59-.07-12.47-1.79a21.32,21.32,0,0,1-9.33-7.39c-.53-.8-1.83,0-1.3.76,4,6,11.56,9.7,18.62,10.25,4.54.36,8.88-1.49,13-3.28a32.73,32.73,0,0,0,10.36-7.69,51,51,0,0,0,11.87-20.76c2.25-7.72,3-16.53.73-24.34a21.16,21.16,0,0,0-7.38-11.05,38.42,38.42,0,0,0-12.16-5.89c-.93-.29-1.32,1.16-.4,1.45Z" style="fill:#fff"/><path d="M714.84,523.52c-1.9-4-6.66-5.58-10.83-4.92-5.06.8-9.54,4.21-13.32,7.48a56.64,56.64,0,0,0-16.2,23.8,55.16,55.16,0,0,0-3.15,16.22c0,1,1.46,1,1.5,0a55.13,55.13,0,0,1,15.95-36.21,42.66,42.66,0,0,1,11.14-8.39c4.48-2.19,11.13-2.48,13.62,2.77.41.88,1.7.12,1.29-.75Z" style="fill:#fff"/><path d="M685.59,558.73a22.74,22.74,0,0,1,5.23-12.34c2.31-2.65,6.25-6,10.06-4.76,5,1.63,4.34,8.27,3,12.24-1.37,4.18-4.16,8.62-8.23,10.61a8.51,8.51,0,0,1-6.39.27c-2.77-1-3.88-3.17-3.71-6,.06-1-1.44-1-1.5,0-.16,2.63.6,5,2.85,6.51a9.78,9.78,0,0,0,6.68,1.39c5.07-.67,8.84-5.58,10.8-9.94s3.56-11.55-.75-15.16c-3.81-3.2-8.64-1.07-11.92,1.8a23.84,23.84,0,0,0-7.66,15.4C684,559.69,685.51,559.68,685.59,558.73Z" style="fill:#fff"/><path d="M573.79,631.69A22.73,22.73,0,0,1,579,619.35c2.32-2.65,6.25-6,10.07-4.75,5,1.63,4.33,8.26,3,12.23-1.36,4.18-4.15,8.62-8.23,10.61a8.44,8.44,0,0,1-6.38.27c-2.77-1-3.89-3.17-3.71-6,.06-1-1.44-1-1.5,0a6.85,6.85,0,0,0,2.84,6.52,9.85,9.85,0,0,0,6.68,1.39c5.08-.68,8.84-5.58,10.8-10s3.56-11.55-.74-15.16c-3.81-3.19-8.65-1.06-11.93,1.8a23.83,23.83,0,0,0-7.65,15.4C572.2,632.65,573.7,632.64,573.79,631.69Z" style="fill:#fff"/><path d="M656.7,576.37q-14.46,5.93-29.13,11.39c-4.64,1.73-9.33,3.74-14.21,4.7s-10,.18-14.79-1a31.9,31.9,0,0,1-13.62-6.6c-.73-.64-1.79.42-1.07,1.06a31.32,31.32,0,0,0,11.69,6.26,43.3,43.3,0,0,0,14.31,2.23c5.09-.23,9.9-2.18,14.63-3.92q7.62-2.79,15.21-5.73,8.71-3.39,17.38-6.93c.88-.36.5-1.82-.4-1.45Z" style="fill:#fff"/><path d="M665.8,578.22l-29.56,10.95c-4.8,1.78-9.58,3.6-14.4,5.32a60,60,0,0,1-14.61,3.61c-1,.08-1,1.58,0,1.5,7.74-.7,15-3.63,22.19-6.31l23.51-8.71,13.27-4.91c.89-.34.5-1.79-.4-1.45Z" style="fill:#fff"/><path d="M562.9,648.41c-3.83-1.95-7.73-4.31-9.89-8.17-2.57-4.6-2-10.54-1.32-15.57.85-5.93,3.5-11.09,6.75-16a47.85,47.85,0,0,1,12-12.84c2.17-1.57,4.65-3.18,7.43-3.21a23.05,23.05,0,0,1,8.25,1.75,33.89,33.89,0,0,1,7.24,3.39,17.09,17.09,0,0,1,5.5,6.62c5,10.12,1.69,22.47-4.6,31.21a54.58,54.58,0,0,1-5.76,6.67,36.72,36.72,0,0,1-7,5.87,17.36,17.36,0,0,1-8.7,2.19,21.77,21.77,0,0,1-10-1.86c-.86-.42-1.62.87-.75,1.3a22.44,22.44,0,0,0,9.06,2,21.59,21.59,0,0,0,8.56-1.15,22.46,22.46,0,0,0,6.72-4.38,67.9,67.9,0,0,0,6.47-6.56c7.41-8.69,12.16-20.8,8.78-32.19A19.65,19.65,0,0,0,591,594.68c-4.91-2.21-11.34-5-16.7-2.84a29.52,29.52,0,0,0-7,4.49,44.09,44.09,0,0,0-7.08,7.24c-3.81,4.85-7.41,10.46-9.09,16.45a43,43,0,0,0-1.4,10.22,21.67,21.67,0,0,0,1.13,9c2,5.06,6.6,8.12,11.28,10.5C563,650.14,563.76,648.85,562.9,648.41Z" style="fill:#fff"/><path d="M597.55,599.94c-8.34-2.3-16.9,1.49-22.73,7.48a42.38,42.38,0,0,0-11.05,22.64,24.69,24.69,0,0,0,1.61,14c.39.87,1.68.11,1.29-.76-3.41-7.58-1.44-16.39,1.83-23.65s8.21-13.6,15.43-17a19.1,19.1,0,0,1,13.23-1.31.75.75,0,0,0,.39-1.45Z" style="fill:#fff"/><path d="M615.62,494.84,605,497.39l.92.92c1.67-8.5-1.93-16.84-7.7-23a38.53,38.53,0,0,0-9.85-7.75c-3.4-1.8-7.31-2.74-11-1.18-3.5,1.5-5.34,4.19-6.36,7.78a.75.75,0,0,0,1.45.4c.79-2.8,2.06-5.09,4.73-6.45,3.53-1.79,7.25-1,10.59.84a34.77,34.77,0,0,1,15,15.82,22.14,22.14,0,0,1,1.65,13.13.76.76,0,0,0,.92.93l10.6-2.55c.94-.23.54-1.67-.4-1.45Z" style="fill:#fff"/><path d="M616.57,495.57c.28-7.61-3.43-15.07-8-21S597.29,463.78,589.67,463A19.1,19.1,0,0,0,577,466.42c-.8.54-.05,1.84.75,1.3a18,18,0,0,1,10.72-3.35A22.44,22.44,0,0,1,599,467.88c6,3.61,10.24,9.44,13.23,15.65a25.49,25.49,0,0,1,2.8,12c0,1,1.47,1,1.5,0Z" style="fill:#fff"/><path d="M630,459.61c-1.13,3.62-5.18,5.08-8.59,5.62a32.51,32.51,0,0,1-11.84-.38,34.69,34.69,0,0,1-19.78-12c-1.34-1.66-2.47-3.54-2.27-5.75a7.09,7.09,0,0,1,2-4.13,14,14,0,0,1,8.58-4.06c4.35-.41,9,.57,13.16,1.7a36,36,0,0,1,8,3.33c5.4,3,12.63,8.54,10.73,15.63a.75.75,0,0,0,1.45.4c1.86-6.94-3.95-12.62-9.27-16a39.68,39.68,0,0,0-9.21-4.37,42,42,0,0,0-13.65-2.22c-6.33.18-15.72,5.32-12.84,13a17.33,17.33,0,0,0,3.74,5.32A34.47,34.47,0,0,0,595,460a36.74,36.74,0,0,0,11.91,5.8,35.07,35.07,0,0,0,14.52,1c4.08-.6,8.63-2.45,10-6.72C631.7,459.08,630.25,458.69,630,459.61Z" style="fill:#fff"/><path d="M622.21,449l-6.1,1.16a.75.75,0,0,0-.53.92.78.78,0,0,0,.93.53l6.1-1.16a.75.75,0,0,0,.53-.92.78.78,0,0,0-.93-.53Z" style="fill:#fff"/><path d="M622.47,448.85a60.86,60.86,0,0,0-15.63-6.92.75.75,0,0,0-.4,1.45,58.79,58.79,0,0,1,15.27,6.77.75.75,0,0,0,.76-1.3Z" style="fill:#fff"/><path d="M610.65,458.48a28.23,28.23,0,0,0,7.49-1,.75.75,0,0,0-.4-1.44,26.92,26.92,0,0,1-7.09.89.75.75,0,0,0,0,1.5Z" style="fill:#fff"/><path d="M618.64,456.87c.12-.31.83-.22,1.06-.19a12.67,12.67,0,0,1,2,.57l5.12,1.6c.92.29,1.32-1.16.4-1.44l-6.16-1.93c-1.37-.43-3.24-.63-3.87,1a.77.77,0,0,0,.53.93.78.78,0,0,0,.92-.53Z" style="fill:#fff"/><path d="M608.84,457.25a8.51,8.51,0,0,0,.27,4.16.77.77,0,0,0,.93.52.76.76,0,0,0,.52-.92,7,7,0,0,1-.24-.87c0-.16-.06-.32-.08-.48,0,.17,0-.06,0-.07s0-.16,0-.25c0-.3,0-.6,0-.9l0-.45s0-.21,0-.07c0-.09,0-.18,0-.27a.79.79,0,0,0-.53-.93.76.76,0,0,0-.92.53Z" style="fill:#fff"/><path d="M601.14,455.73a8.44,8.44,0,0,1-.8,1.4,3.71,3.71,0,0,1-.23.32s-.08.11,0,0,0,0,0,0l-.11.15c-.18.21-.37.42-.57.62a.77.77,0,0,0,0,1.06.79.79,0,0,0,1.07,0,10.26,10.26,0,0,0,2-2.85.83.83,0,0,0,.08-.58.76.76,0,0,0-1.38-.17Z" style="fill:#fff"/><path d="M602.42,455.77a7.76,7.76,0,0,1-3.64-5.23.76.76,0,0,0-.72-.55l-5.47-.48c-1-.08-1,1.42,0,1.5l5.47.48-.73-.55a9.27,9.27,0,0,0,4.33,6.13.75.75,0,0,0,.76-1.3Z" style="fill:#fff"/><path d="M640.63,575q-9.72-4.31-19.34-8.83c-.87-.41-1.64.88-.76,1.29q9.62,4.53,19.34,8.83c.88.39,1.64-.9.76-1.29Z" style="fill:#fff"/><path d="M638.22,577.64q-9.72-4.3-19.35-8.83c-.86-.4-1.63.89-.75,1.3q9.61,4.53,19.34,8.83c.87.39,1.64-.9.76-1.3Z" style="fill:#fff"/><path d="M633.87,579.94q-9.72-4.31-19.34-8.83c-.87-.41-1.63.89-.76,1.3q9.63,4.51,19.34,8.83c.88.39,1.64-.91.76-1.3Z" style="fill:#fff"/><path d="M630,582.68q-9.72-4.3-19.34-8.83c-.87-.41-1.63.88-.76,1.29q9.63,4.53,19.34,8.83c.88.39,1.64-.9.76-1.29Z" style="fill:#fff"/><path d="M625.34,584.29Q615.62,580,606,575.46c-.87-.41-1.63.88-.76,1.29q9.63,4.53,19.34,8.83c.88.39,1.64-.9.76-1.29Z" style="fill:#fff"/><path d="M479.55,541.13c-13.88,4.12-21,19.82-21.05,33.36,0,6.17,1.46,12.78,6.11,17.15a23.92,23.92,0,0,0,6.69,4.3,36.53,36.53,0,0,0,10.33,3.24c4.24.53,8.25-.94,11.77-3.21,3.16-2,6.53-4.63,7.61-8.39a.75.75,0,0,0-1.45-.4c-1,3.36-4.1,5.68-6.91,7.49-3,1.92-6.37,3.34-10,3.12a31.16,31.16,0,0,1-10-2.89,24.46,24.46,0,0,1-6.35-3.74c-4.34-3.72-6-9.32-6.26-14.88a40,40,0,0,1,4.65-20.43c3.28-6.1,8.51-11.27,15.26-13.28a.75.75,0,0,0-.4-1.44Z" style="fill:#fff"/><path d="M479.22,562c-6,9.27-8.79,21-3.73,31.36.43.87,1.72.11,1.3-.75-4.83-9.83-2-21.07,3.72-29.85.53-.81-.77-1.56-1.29-.76Z" style="fill:#fff"/><path d="M492.78,582.45c-1.72,1.49-4.69,3.83-6.85,1.71a7.64,7.64,0,0,1-1.76-7.13.75.75,0,0,0-1.45-.4,9.48,9.48,0,0,0,0,4.79,8.12,8.12,0,0,0,2.35,4,4.79,4.79,0,0,0,4.49.81,11.79,11.79,0,0,0,4.25-2.73c.73-.63-.33-1.69-1.06-1.06Z" style="fill:#fff"/><path d="M687.13,464.51c-1.57,2.17-4.09,3.57-6.43,4.74a39.24,39.24,0,0,1-7.33,2.75,87,87,0,0,1-15.56,2.42c-9.34.79-18.9,1.22-27.69,4.81A30.55,30.55,0,0,0,618,487.82c-.62.73.44,1.8,1.06,1.06,6.14-7.39,15.67-10.28,24.85-11.63,10.08-1.48,20.43-1.12,30.31-3.91a40.89,40.89,0,0,0,7.84-3.07,17.85,17.85,0,0,0,6.41-5c.57-.78-.73-1.53-1.29-.76Z" style="fill:#fff"/><path d="M605.27,498A395.45,395.45,0,0,1,572,474.1c-.38-.3-.91.23-.53.53a399.17,399.17,0,0,0,33.38,24c.41.26.79-.39.38-.65Z" style="fill:#fff"/><path d="M603.3,442.86a9,9,0,0,0-1.78.47,6.83,6.83,0,0,0-3,1.94,4,4,0,0,0-.91,2.25.75.75,0,0,0,1.5,0s0-.07,0-.11c0,.17,0,.08,0,0a1.55,1.55,0,0,1,0-.21c0-.13.09-.26.13-.4-.06.19,0,0,0-.05l.09-.18c0-.06.07-.12.11-.17l.06-.09,0,0c-.07.09.05-.06.07-.08l.14-.15c.1-.1.2-.2.31-.29s.19-.16.1-.09l.11-.08.36-.23a8,8,0,0,1,.71-.38l.17-.08c.12-.05-.14.06,0,0l.37-.14a11.88,11.88,0,0,1,1.2-.36l.58-.11a.75.75,0,0,0,.52-.92.77.77,0,0,0-.92-.53Z" style="fill:#fff"/><path d="M608.71,466.56l-.88,6.73c-.06.4.38.75.75.75a.78.78,0,0,0,.75-.75l.88-6.73c.06-.41-.38-.75-.75-.75a.77.77,0,0,0-.75.75Z" style="fill:#fff"/><path d="M599.2,463a.82.82,0,0,0,1.19,0,1,1,0,0,0,.16-1.12.91.91,0,0,0-1.12-.39,1.83,1.83,0,0,0-.82.71l-2,2.69a.78.78,0,0,0-.08.58.82.82,0,0,0,.35.45.73.73,0,0,0,.58.07.94.94,0,0,0,.45-.34l1.32-1.77.66-.87a.86.86,0,0,0,.07-.1c.06-.08-.09.11,0,0l.07-.07s0,0,0,0a.19.19,0,0,1-.09.05.62.62,0,0,1-.75-.57.54.54,0,0,1,.08-.28s0,0,0,0c.2-.28.53-.31,1-.07a.75.75,0,0,0-1.06,0,.76.76,0,0,0,0,1.06Z" style="fill:#fff"/><path d="M572.39,396.79c0-1.3,0-2.63-.06-4l1.5,0q0,2,.06,4Zm-.22-8c-.06-1.31-.14-2.64-.23-4l1.49-.1c.1,1.35.18,2.69.24,4Zm-.54-7.95c-.12-1.31-.25-2.64-.39-4l1.5-.16c.14,1.34.27,2.68.38,4Zm-.84-7.94q-.24-2-.51-4l1.49-.2c.18,1.33.35,2.66.51,4ZM569.71,365c-.2-1.3-.41-2.62-.63-3.94l1.48-.25c.22,1.33.43,2.65.63,4Zm-1.32-7.87c-.24-1.3-.48-2.61-.74-3.92l1.48-.29c.25,1.32.5,2.63.74,3.94Zm-1.53-7.84c-.26-1.29-.54-2.6-.83-3.9l1.46-.33c.29,1.32.57,2.62.84,3.93Zm-1.72-7.8c-.3-1.29-.61-2.58-.93-3.88l1.46-.36c.32,1.31.63,2.61.94,3.9ZM180.53,338H179s0-1.47.11-4.08l1.5.06C180.54,336.51,180.53,338,180.53,338Zm382.71-4.19c-.33-1.29-.67-2.57-1-3.87l1.44-.39c.35,1.3.69,2.59,1,3.88Zm-382.41-3.85-1.5-.08q.09-1.83.24-4l1.5.1C181,327.37,180.89,328.71,180.83,329.92Zm380.34-3.87c-.36-1.27-.73-2.55-1.1-3.84l1.44-.42c.37,1.29.74,2.58,1.1,3.86Zm-379.81-4.13-1.49-.12c.1-1.27.21-2.61.34-4l1.49.13C181.58,319.32,181.46,320.65,181.36,321.92Zm377.57-3.53c-.39-1.27-.78-2.55-1.18-3.82l1.43-.45c.4,1.28.8,2.55,1.18,3.83ZM182.09,314l-1.49-.15c.13-1.29.27-2.63.43-4l1.49.17C182.36,311.34,182.22,312.66,182.09,314Zm374.44-3.18c-.41-1.27-.83-2.53-1.26-3.8l1.43-.47,1.26,3.8ZM183,306l-1.49-.18q.24-1.95.51-4l1.49.2C183.32,303.38,183.15,304.71,183,306Zm371-2.8c-.44-1.26-.88-2.51-1.33-3.77l1.41-.51c.45,1.26.9,2.52,1.34,3.78Zm-369.93-5.13-1.48-.21c.19-1.3.38-2.63.59-4l1.49.23C184.44,295.46,184.24,296.78,184.05,298.07Zm367.23-2.39c-.46-1.25-.93-2.5-1.41-3.74l1.4-.54c.48,1.25,1,2.51,1.41,3.76Zm-366-5.51-1.48-.25c.22-1.3.45-2.62.68-3.95l1.48.26C185.72,287.56,185.5,288.87,185.28,290.17Zm363.15-2c-.49-1.23-1-2.47-1.48-3.71l1.39-.56c.5,1.24,1,2.48,1.49,3.72ZM186.68,282.3,185.2,282c.25-1.3.5-2.61.77-3.94l1.47.3C187.17,279.7,186.92,281,186.68,282.3Zm358.76-1.49c-.51-1.23-1-2.46-1.55-3.69l1.38-.58c.52,1.23,1,2.46,1.55,3.69Zm-357.2-6.35-1.47-.31c.28-1.29.56-2.6.85-3.92l1.47.33C188.8,271.87,188.51,273.17,188.24,274.46Zm354.06-1c-.53-1.22-1.07-2.44-1.62-3.65l1.37-.62c.55,1.22,1.09,2.44,1.62,3.67ZM190,266.66l-1.46-.34c.3-1.29.61-2.59.94-3.9l1.45.36C190.59,264.08,190.28,265.37,190,266.66Zm349-.48c-.56-1.21-1.12-2.42-1.69-3.62l1.35-.64c.58,1.2,1.14,2.41,1.7,3.63ZM535.6,259c-.58-1.2-1.17-2.39-1.77-3.59l1.35-.67,1.77,3.6Zm-343.71,0-1.45-.38c.34-1.29.68-2.58,1-3.88l1.45.39C192.57,256.34,192.23,257.62,191.89,258.91ZM532,251.81c-.6-1.19-1.21-2.37-1.83-3.55l1.33-.7,1.84,3.56Zm-338-.61-1.44-.42c.36-1.28.74-2.56,1.12-3.85l1.44.43C194.73,248.64,194.35,249.92,194,251.2Zm334.34-6.47c-.63-1.17-1.27-2.34-1.91-3.51l1.31-.72c.65,1.17,1.29,2.35,1.92,3.52Zm-332.05-1.19-1.43-.44c.39-1.27.8-2.55,1.22-3.83l1.43.47C197.08,241,196.67,242.28,196.28,243.54Zm328.19-5.8c-.65-1.17-1.32-2.33-2-3.49l1.29-.75c.68,1.17,1.34,2.33,2,3.5ZM198.76,236l-1.42-.49c.44-1.26.88-2.52,1.33-3.79l1.41.51C199.63,233.44,199.19,234.7,198.76,236Zm321.7-5.16c-.68-1.15-1.37-2.29-2.06-3.43l1.28-.78c.7,1.14,1.39,2.29,2.07,3.44Zm-319-2.36-1.4-.53c.46-1.25.94-2.5,1.43-3.74l1.4.54C202.39,226,201.92,227.2,201.45,228.44ZM516.3,224c-.7-1.13-1.41-2.26-2.13-3.38l1.27-.81c.72,1.13,1.43,2.26,2.14,3.4Zm-311.94-3-1.39-.56c.5-1.24,1-2.47,1.54-3.71l1.38.59C205.37,218.55,204.86,219.77,204.36,221ZM512,217.22c-.73-1.11-1.46-2.22-2.2-3.33l1.24-.83c.75,1.11,1.48,2.22,2.22,3.34Zm-304.52-3.56-1.37-.61c.55-1.22,1.1-2.44,1.66-3.65l1.36.63Q208.29,211.85,207.48,213.66Zm300.07-3.07q-1.12-1.64-2.28-3.27l1.22-.86c.77,1.09,1.54,2.18,2.3,3.29Zm-296.7-4.16-1.35-.66c.58-1.2,1.17-2.4,1.78-3.6l1.34.68C212,204,211.42,205.23,210.85,206.43ZM503,204.08l-2.36-3.21,1.21-.89c.79,1.06,1.58,2.14,2.36,3.22Zm-288.5-4.77-1.33-.7c.63-1.18,1.26-2.36,1.91-3.53l1.32.72C215.7,197,215.07,198.14,214.45,199.31Zm283.74-1.62q-1.2-1.58-2.43-3.15l1.18-.92c.82,1,1.64,2.1,2.45,3.16Zm-279.88-5.36-1.3-.75c.66-1.15,1.34-2.3,2-3.44l1.28.78C219.64,190.05,219,191.19,218.31,192.33Zm275-.9c-.83-1-1.67-2.06-2.51-3.08l1.15-.95c.85,1,1.7,2,2.53,3.09Zm-270.87-5.89-1.27-.8c.71-1.13,1.43-2.25,2.17-3.36l1.25.82C223.83,183.31,223.11,184.42,222.41,185.54Zm265.79-.24c-.86-1-1.73-2-2.6-3l1.12-1c.88,1,1.76,2,2.63,3Zm-5.26-6c-.89-1-1.79-2-2.69-2.94l1.1-1c.91,1,1.81,2,2.71,3Zm-256.16-.38-1.23-.85c.75-1.1,1.52-2.19,2.3-3.27l1.22.88C228.3,176.74,227.53,177.82,226.78,178.91Zm250.73-5.46c-.92-1-1.84-1.92-2.78-2.86l1.07-1.05c.94,1,1.87,1.9,2.8,2.87Zm-246.07-1-1.2-.91c.81-1.06,1.63-2.12,2.46-3.17l1.18.93C233.05,170.36,232.24,171.41,231.44,172.47Zm240.47-4.7c-1-.93-1.91-1.85-2.87-2.77l1-1.09c1,.92,1.93,1.85,2.89,2.79Zm-235.52-1.54-1.15-1c.86-1,1.72-2,2.61-3.05l1.13,1C238.1,164.21,237.24,165.21,236.39,166.23Zm229.74-3.95c-1-.9-2-1.79-3-2.67l1-1.13c1,.89,2,1.79,3,2.7Zm-224.5-2-1.1-1c.9-1,1.82-2,2.75-2.92l1.08,1C243.44,158.3,242.53,159.27,241.63,160.24ZM460.17,157c-1-.86-2-1.72-3.05-2.56l.95-1.16c1,.85,2.06,1.71,3.07,2.59Zm-213-2.46-1.06-1.07c1-.93,1.93-1.86,2.91-2.77l1,1.1C249.07,152.68,248.11,153.6,247.17,154.52ZM454,151.9c-1-.83-2.08-1.65-3.14-2.45l.92-1.19c1.06.81,2.11,1.63,3.16,2.47Zm-201-2.8L252,148c1-.89,2-1.76,3-2.62l1,1.15C255,147.36,254,148.23,253,149.1Zm194.71-2c-1.07-.79-2.15-1.57-3.23-2.33l.87-1.23c1.09.77,2.17,1.56,3.25,2.35Zm-188.61-3-.93-1.18c1-.83,2.11-1.64,3.19-2.45l.89,1.21C261.18,142.38,260.13,143.19,259.09,144Zm182.1-1.56c-1.1-.75-2.2-1.48-3.32-2.2l.82-1.26c1.12.72,2.24,1.46,3.35,2.22Zm-175.72-3.19-.86-1.23c1.09-.77,2.2-1.52,3.32-2.26l.82,1.25C267.64,137.75,266.55,138.5,265.47,139.26Zm169-1.15c-1.13-.7-2.27-1.38-3.41-2.06l.76-1.29c1.15.68,2.3,1.37,3.44,2.08ZM272.1,134.88l-.79-1.27q1.71-1.05,3.45-2.07l.75,1.3C274.36,133.51,273.22,134.19,272.1,134.88Zm155.55-.81c-1.16-.65-2.33-1.29-3.5-1.91l.71-1.32c1.18.62,2.35,1.26,3.52,1.92ZM279,130.9l-.72-1.32c1.18-.64,2.36-1.26,3.56-1.86l.68,1.34C281.31,129.66,280.14,130.27,279,130.9Zm141.64-.57c-1.19-.59-2.37-1.17-3.57-1.74l.64-1.35c1.21.57,2.41,1.15,3.6,1.75Zm-134.55-3-.63-1.36q1.8-.84,3.66-1.65l.6,1.38C288.47,126.22,287.27,126.76,286.07,127.32Zm127.38-.39c-1.21-.53-2.43-1.06-3.65-1.57l.58-1.38c1.23.51,2.46,1,3.68,1.58Zm-120.09-2.77-.55-1.39q1.85-.75,3.75-1.44l.51,1.4C295.82,123.19,294.59,123.67,293.36,124.16Zm112.76-.28c-1.24-.48-2.48-.95-3.73-1.39l.51-1.42c1.26.46,2.51.93,3.76,1.41Zm-105.3-2.46-.47-1.43c1.26-.42,2.53-.83,3.82-1.22l.44,1.43C303.33,120.59,302.07,121,300.82,121.42Zm97.81-.24c-1.26-.41-2.52-.82-3.79-1.2l.43-1.44c1.29.39,2.56.8,3.83,1.22Zm-90.2-2.09-.4-1.44c1.28-.36,2.58-.7,3.89-1l.36,1.45C311,118.41,309.7,118.74,308.43,119.09Zm82.58-.22c-1.28-.36-2.57-.69-3.86-1l.36-1.45q2,.48,3.9,1Zm-74.86-1.69-.32-1.47q1.95-.42,3.93-.81l.29,1.48C318.74,116.63,317.44,116.9,316.15,117.18Zm67.12-.23c-1.29-.29-2.59-.56-3.89-.81l.28-1.47c1.32.25,2.63.52,3.94.81ZM324,115.67l-.25-1.48c1.33-.22,2.65-.43,4-.62l.21,1.49C326.6,115.24,325.28,115.45,324,115.67Zm51.49-.23q-1.95-.33-3.93-.6l.21-1.49c1.33.19,2.65.39,4,.61Zm-43.61-.9-.18-1.49c1.34-.16,2.67-.3,4-.43l.14,1.49C334.49,114.24,333.18,114.38,331.85,114.54Zm35.74-.19q-2-.22-4-.39l.13-1.5c1.33.11,2.67.25,4,.4Zm-27.81-.56-.11-1.5c1.35-.09,2.69-.17,4-.23l.06,1.5C342.43,113.62,341.11,113.69,339.78,113.79Zm19.88-.12c-1.32-.08-2.64-.14-4-.18l.05-1.5c1.34,0,2.68.1,4,.18Zm-11.93-.24,0-1.5,3,0h1.06l0,1.5h-1C349.7,113.41,348.71,113.41,347.73,113.43Z" style="fill:#aae051"/><path d="M591.83,395v-1.79h1.5V395Zm1.58-5.76-1.5-.05c0-1.32.09-2.66.15-4l1.5.07C593.49,386.6,593.44,387.92,593.41,389.24Zm.38-8-1.5-.1c.09-1.32.2-2.65.31-4l1.5.12C594,378.63,593.88,380,593.79,381.27Zm.68-7.95-1.49-.15c.13-1.32.28-2.65.44-4l1.49.18C594.75,370.69,594.6,372,594.47,373.32Zm.94-7.92-1.49-.2c.17-1.32.36-2.64.56-4l1.48.22C595.77,362.77,595.58,364.09,595.41,365.4Zm1.17-7.9-1.49-.24c.22-1.31.44-2.63.67-4l1.48.26C597,354.88,596.79,356.2,596.58,357.5Zm1.38-7.86-1.48-.28c.25-1.31.51-2.62.77-3.94l1.47.3C598.46,347,598.2,348.34,598,349.64Zm1.58-7.83-1.47-.32c.28-1.3.57-2.6.86-3.91l1.47.33C600.1,339.21,599.82,340.51,599.54,341.81ZM601.3,334l-1.46-.35q.46-1.94,1-3.9l1.45.37C601.93,331.44,601.61,332.73,601.3,334Zm1.94-7.75-1.45-.38c.34-1.29.68-2.58,1-3.87l1.44.39C603.92,323.7,603.58,325,603.24,326.27Zm2.11-7.71-1.44-.41c.36-1.28.73-2.56,1.11-3.85l1.44.43C606.08,316,605.71,317.29,605.35,318.56Zm2.27-7.65-1.44-.44c.39-1.28.79-2.55,1.2-3.83l1.43.45C608.4,308.37,608,309.64,607.62,310.91Zm2.42-7.62-1.43-.47c.42-1.26.85-2.53,1.28-3.8l1.42.49C610.88,300.77,610.45,302,610,303.29Zm2.58-7.56-1.42-.5c.44-1.25.89-2.51,1.35-3.77L614,292C613.5,293.23,613.06,294.48,612.62,295.73Zm388.65-4.37s-.21-1.43-.7-3.95l1.47-.29c.5,2.57.7,4,.71,4Zm-385.93-3.14-1.4-.52c.46-1.25.94-2.5,1.42-3.75l1.4.54C616.28,285.73,615.81,287,615.34,288.22Zm384.42-4.73c-.26-1.19-.56-2.49-.89-3.91l1.46-.34c.34,1.42.63,2.73.89,3.93Zm-381.54-2.72-1.4-.55q.73-1.86,1.5-3.72l1.39.56C619.2,278.3,618.71,279.54,618.22,280.77Zm379.69-5.07c-.32-1.23-.66-2.51-1-3.86l1.45-.4c.37,1.36.71,2.65,1,3.89Zm-376.67-2.33-1.39-.58c.52-1.23,1-2.46,1.57-3.69l1.38.6C622.27,270.92,621.75,272.15,621.24,273.37ZM995.8,268c-.37-1.24-.75-2.52-1.15-3.83l1.43-.44c.41,1.32.79,2.6,1.16,3.85Zm-371.4-2-1.37-.61c.54-1.22,1.09-2.43,1.65-3.65l1.36.62C625.49,263.61,624.94,264.83,624.4,266Zm369-5.68c-.4-1.24-.82-2.5-1.26-3.79l1.42-.49c.44,1.3.86,2.57,1.27,3.81Zm-365.72-1.59-1.36-.63c.56-1.21,1.14-2.42,1.72-3.63l1.35.66Q628.56,257,627.72,258.77Zm363.14-6q-.66-1.85-1.38-3.75l1.41-.53c.48,1.28.94,2.53,1.38,3.77Zm-359.68-1.23-1.35-.66c.59-1.2,1.19-2.39,1.79-3.59L633,248C632.36,249.19,631.76,250.38,631.18,251.57Zm356.87-6.25c-.48-1.22-1-2.45-1.49-3.7l1.39-.57c.51,1.25,1,2.5,1.5,3.72Zm-353.27-.87-1.33-.7c.62-1.18,1.24-2.36,1.87-3.54l1.32.7ZM985,237.94c-.52-1.21-1-2.43-1.6-3.66l1.37-.61c.55,1.23,1.09,2.46,1.61,3.68Zm-346.47-.56-1.32-.72,1.95-3.52,1.31.74C639.84,235,639.19,236.21,638.55,237.38Zm343.21-6.73c-.55-1.2-1.13-2.4-1.71-3.61l1.35-.65c.59,1.22,1.16,2.42,1.72,3.63Zm-339.29-.25-1.3-.75c.67-1.16,1.34-2.32,2-3.47l1.29.76C643.81,228.09,643.13,229.24,642.47,230.4Zm4.07-6.89-1.29-.78q1.05-1.72,2.1-3.42l1.28.79C647.92,221.23,647.23,222.37,646.54,223.51Zm331.74,0c-.59-1.18-1.2-2.36-1.83-3.55l1.33-.7c.63,1.2,1.24,2.39,1.84,3.57Zm-327.52-6.75-1.27-.81c.72-1.12,1.45-2.25,2.18-3.36l1.25.82C652.2,214.48,651.47,215.6,650.76,216.72Zm323.81-.32c-.63-1.16-1.28-2.32-1.94-3.48l1.3-.74c.67,1.17,1.32,2.34,2,3.5ZM655.13,210l-1.24-.83c.74-1.11,1.49-2.21,2.25-3.31l1.24.85C656.62,207.84,655.87,208.94,655.13,210Zm315.5-.58c-.67-1.13-1.36-2.27-2.06-3.41l1.28-.79c.7,1.15,1.39,2.3,2.07,3.44Zm-311-6-1.22-.86c.77-1.09,1.55-2.18,2.33-3.25l1.22.88C661.2,201.32,660.43,202.4,659.66,203.48Zm306.8-.81c-.71-1.12-1.44-2.23-2.18-3.35l1.25-.82q1.13,1.68,2.19,3.36Zm-302.11-5.62-1.2-.9c.8-1.07,1.6-2.13,2.42-3.19l1.18.92C666,194.93,665.14,196,664.35,197.05Zm297.7-1c-.75-1.09-1.52-2.18-2.29-3.26l1.22-.88c.78,1.1,1.55,2.19,2.3,3.29ZM669.2,190.74l-1.17-.93c.82-1,1.66-2.08,2.5-3.11l1.16.94C670.85,188.67,670,189.7,669.2,190.74Zm288.2-1.2c-.79-1.06-1.59-2.12-2.41-3.18l1.19-.91c.82,1.06,1.63,2.12,2.43,3.19Zm-283.17-5-1.15-1c.86-1,1.73-2.05,2.6-3.06l1.14,1C676,182.54,675.09,183.55,674.23,184.57Zm278.29-1.33c-.83-1-1.67-2.06-2.53-3.08l1.15-1c.87,1,1.72,2.07,2.55,3.1Zm-273.08-4.71-1.12-1c.89-1,1.79-2,2.69-3l1.11,1C681.22,176.55,680.33,177.53,679.44,178.53Zm268-1.4c-.87-1-1.75-2-2.65-3l1.11-1q1.36,1.5,2.67,3Zm-262.56-4.48-1.09-1c.92-1,1.84-1.94,2.78-2.89l1.07,1Q686.21,171.2,684.84,172.65Zm257.21-1.42c-.91-1-1.84-1.92-2.77-2.87l1.07-1.05c.94,1,1.87,1.92,2.79,2.89Zm-251.64-4.29-1-1.06c.95-.94,1.91-1.88,2.87-2.8l1,1.08C692.31,165.08,691.36,166,690.41,166.94Zm246-1.39c-.94-.92-1.9-1.84-2.88-2.75l1-1.09c1,.91,2,1.84,2.91,2.77Zm-240.28-4.12-1-1.1q1.47-1.37,3-2.7l1,1.12C698.13,159.63,697.15,160.53,696.17,161.43Zm234.46-1.31c-1-.88-2-1.76-3-2.63l1-1.14c1,.88,2,1.76,3,2.65Zm-228.51-4-1-1.14c1-.87,2-1.74,3.06-2.59l1,1.15C704.14,154.39,703.12,155.25,702.12,156.12Zm222.46-1.19c-1-.84-2.05-1.67-3.1-2.49l.92-1.18c1.06.83,2.1,1.67,3.13,2.51ZM708.25,151l-.94-1.18c1.05-.83,2.1-1.66,3.16-2.47l.92,1.19C710.34,149.37,709.29,150.19,708.25,151Zm210.07-1c-1.06-.79-2.13-1.58-3.22-2.36l.88-1.21q1.63,1.17,3.24,2.37Zm-203.75-3.85-.89-1.2c1.08-.8,2.17-1.58,3.26-2.35l.86,1.22C716.72,144.61,715.64,145.38,714.57,146.17Zm197.27-.79c-1.09-.74-2.19-1.48-3.31-2.21l.82-1.25c1.12.73,2.24,1.47,3.34,2.22Zm-190.76-3.8-.84-1.24c1.11-.75,2.23-1.49,3.35-2.22l.82,1.27Q722.73,140.47,721.08,141.58ZM905.17,141c-1.12-.7-2.26-1.38-3.41-2.06l.76-1.29c1.16.68,2.31,1.37,3.44,2.07Zm-177.39-3.77L727,136q1.71-1.05,3.45-2.07l.75,1.3C730.05,135.89,728.91,136.57,727.78,137.27ZM898.31,137c-1.15-.65-2.32-1.28-3.5-1.91l.71-1.32c1.19.63,2.36,1.27,3.52,1.92Zm-7-3.74c-1.18-.59-2.37-1.17-3.58-1.75l.65-1.35c1.21.58,2.41,1.16,3.6,1.76Zm-156.63,0-.72-1.31c1.16-.65,2.34-1.28,3.52-1.9l.69,1.33C737,132,735.81,132.61,734.65,133.25Zm149.44-3.41c-1.21-.54-2.42-1.07-3.65-1.59l.58-1.38c1.24.52,2.47,1.06,3.68,1.6Zm-142.41-.27-.67-1.35c1.2-.59,2.4-1.17,3.61-1.73l.64,1.36C744.06,128.41,742.87,129,741.68,129.57Zm135.08-2.83q-1.85-.73-3.72-1.44l.53-1.4c1.26.47,2.5.95,3.74,1.44Zm-127.88-.52-.6-1.38c1.22-.53,2.46-1,3.69-1.56l.57,1.39C751.31,125.17,750.09,125.69,748.88,126.22ZM869.3,124c-1.25-.43-2.51-.86-3.78-1.27l.47-1.43c1.28.42,2.55.85,3.8,1.29Zm-113.06-.73-.53-1.41c1.25-.47,2.51-.93,3.78-1.37l.49,1.42C758.73,122.29,757.48,122.75,756.24,123.22Zm105.49-1.74c-1.27-.38-2.54-.75-3.83-1.11l.41-1.45c1.3.37,2.58.74,3.85,1.13Zm-98-.89-.46-1.43c1.28-.41,2.57-.8,3.86-1.18l.42,1.44C766.3,119.79,765,120.18,763.76,120.59Zm90.3-1.26c-1.28-.34-2.57-.66-3.87-1l.35-1.46,3.9,1Zm-82.64-1L771,116.9c1.29-.34,2.59-.67,3.9-1l.34,1.46C774,117.69,772.7,118,771.42,118.35Zm74.89-.87c-1.29-.29-2.59-.56-3.9-.82l.29-1.47,3.93.82Zm-67.14-1-.31-1.47c1.31-.28,2.62-.53,3.94-.77l.27,1.48C781.76,116,780.46,116.25,779.17,116.53Zm59.32-.6c-1.31-.24-2.62-.45-3.93-.65l.23-1.49c1.31.21,2.64.42,4,.66Zm-51.5-.82-.23-1.48c1.32-.21,2.65-.39,4-.56l.19,1.49C789.61,114.73,788.3,114.91,787,115.11Zm43.63-.39c-1.33-.17-2.64-.33-4-.47l.16-1.49c1.32.14,2.65.3,4,.47Zm-35.74-.61-.15-1.49c1.33-.13,2.67-.25,4-.34l.1,1.49C797.52,113.87,796.2,114,794.88,114.11Zm27.82-.22c-1.33-.11-2.66-.2-4-.28l.09-1.49c1.33.07,2.67.16,4,.27Zm-19.89-.35-.07-1.5c1.34-.07,2.67-.11,4-.14l0,1.5C805.46,113.43,804.13,113.47,802.81,113.54Zm11.94-.1c-1.34,0-2.66-.06-4-.07v-1.5c1.34,0,2.68,0,4,.07Z" style="fill:#aae051"/><path d="M582,395l0-1.93,1.5,0,0,1.93Zm-.15-5.93-.09-4,1.5,0,.09,4Zm-.16-8-.06-4,1.5,0,.06,4Zm-.1-8c0-1.34,0-2.67,0-4l1.5,0c0,1.34,0,2.67,0,4Zm-.06-8c0-1.33,0-2.66,0-4H583c0,1.33,0,2.66,0,4Zm1.49-8h-1.5v-4H583Zm0-8h-1.5l0-4,1.5,0Zm.07-8-1.5,0,0-4,1.5,0Zm.11-8-1.5,0c0-1.33,0-2.67.07-4l1.5,0C583.27,330.41,583.25,331.74,583.23,333.07Zm.14-8-1.5,0,.09-4,1.5,0Zm.18-8-1.5,0,.1-4,1.5,0Zm.21-8-1.5,0,.11-4,1.5.05Zm.23-8-1.5,0,.13-4,1.5.05Zm.27-8-1.5-.05.14-4,1.5.06Zm.28-8-1.49-.06.15-4,1.5.06Zm.32-8-1.5-.06.16-4,1.5.07Zm.33-8-1.5-.06.17-4,1.5.07Zm.35-8-1.5-.07.19-4,1.49.07Zm.37-8-1.5-.07.19-4,1.5.07Zm.39-8-1.5-.08.2-4,1.49.07Zm.39-8-1.49-.07.2-4,1.5.08Zm.41-8-1.49-.08.2-4,1.5.08Zm.42-8-1.5-.08.22-4,1.49.08Zm.43-8-1.5-.08.21-4,1.5.08Zm.42-8-1.49-.08.21-4,1.5.08Zm.43-8-1.5-.08.22-4,1.5.08Zm.43-8-1.5-.08.21-4,1.5.07Zm.42-8-1.5-.08.21-4,1.5.07Z" style="fill:#aae051"/><path d="M193.89,509.31l.45,5.87,1.21,16,1.79,23.53,2.18,28.82,2.4,31.57,2.4,31.74,2.26,29.72,1.9,25.1,1.37,18.05c.21,2.84.4,5.68.65,8.51,0,.13,0,.25,0,.37.08,1,1.58,1,1.5,0l-.44-5.87-1.21-16-1.79-23.53-2.18-28.82L204,622.8l-2.41-31.74-2.25-29.72-1.9-25.1-1.37-18c-.22-2.84-.41-5.68-.65-8.52l0-.36c-.07-1-1.57-1-1.5,0Z" style="fill:#fff"/><path d="M128.27,727.21l.42-5.86,1.14-15.85,1.7-23.54,2.06-28.6,2.26-31.45,2.29-31.74,2.12-29.49,1.79-24.92,1.3-18c.2-2.83.5-5.67.61-8.51l0-.36c.07-1-1.43-1-1.5,0l-.42,5.86-1.15,15.85-1.69,23.54-2.06,28.6-2.26,31.45-2.29,31.74-2.12,29.49-1.8,24.92-1.29,18c-.21,2.83-.51,5.67-.62,8.51,0,.12,0,.24,0,.36-.07,1,1.43,1,1.5,0Z" style="fill:#fff"/><path d="M152.1,752l.36-6.11,1-16.62,1.43-24.48,1.76-30,1.92-32.71L160.49,609l1.81-30.9,1.54-26.1,1.09-18.71c.18-3,.44-5.93.52-8.89l0-.38c.05-1-1.45-1-1.5,0l-.36,6.11-1,16.62-1.43,24.48-1.76,30-1.92,32.71L155.59,667l-1.81,30.9-1.54,26.11-1.09,18.7c-.18,3-.44,5.93-.52,8.9l0,.37c0,1,1.45,1,1.5,0Z" style="fill:#fff"/><path d="M168.48,506.7l0-23.15-.09-36.87,0-8.4a.75.75,0,0,0-1.5,0l.05,23.15.09,36.86,0,8.41a.75.75,0,0,0,1.5,0Z" style="fill:#fff"/><path d="M141.32,530.86l19.15,10.37L191,557.76l7,3.79c.85.46,1.61-.84.76-1.3l-19.14-10.37-30.51-16.53-7-3.79c-.85-.46-1.61.84-.76,1.3Z" style="fill:#fff"/><path d="M139.43,557.21l20.71,13.12,33,20.93,7.62,4.82c.82.52,1.57-.78.75-1.29l-20.71-13.12-33-20.93-7.62-4.83c-.81-.52-1.57.78-.75,1.3Z" style="fill:#fff"/><path d="M137.57,583l22,12.37,35,19.7,8,4.48a.75.75,0,0,0,.76-1.3l-22-12.37-35-19.69-8-4.49c-.84-.47-1.6.83-.75,1.3Z" style="fill:#fff"/><path d="M135.83,607.18l23.38,14.54,37.21,23.15,8.48,5.28c.82.51,1.57-.79.75-1.3l-23.38-14.54-37.21-23.16-8.47-5.27c-.83-.51-1.58.79-.76,1.3Z" style="fill:#fff"/><path d="M134,632.26l7.23,4.71,17.47,11.38,21,13.72L198.06,674l6,3.91a30,30,0,0,0,2.87,1.87l.13.09c.81.53,1.56-.77.76-1.29l-7.23-4.71-17.47-11.38-21-13.72-18.3-11.92-6-3.92a32.08,32.08,0,0,0-2.87-1.87l-.13-.08c-.81-.53-1.56.77-.76,1.29Z" style="fill:#fff"/><path d="M132.19,657.69l7.67,5.17,18.41,12.41,22.28,15,19.37,13.05,6.35,4.28a36.13,36.13,0,0,0,3,2,1.1,1.1,0,0,1,.14.09c.8.54,1.55-.76.75-1.3l-7.66-5.17L184.1,690.87l-22.29-15L142.45,662.8l-6.35-4.28a33.89,33.89,0,0,0-3-2l-.13-.09c-.8-.54-1.56.75-.76,1.29Z" style="fill:#fff"/><path d="M195.31,522.47l-19,11.35-30,17.95-6.92,4.14a.75.75,0,0,0,.75,1.3l19-11.36,30-18,6.92-4.14a.75.75,0,0,0-.76-1.29Z" style="fill:#fff"/><path d="M196.82,549.64l-20,10.85-31.91,17.29-7.32,4c-.85.46-.1,1.76.75,1.3l20-10.85,31.91-17.28,7.32-4c.85-.46.1-1.76-.75-1.3Z" style="fill:#fff"/><path d="M199.11,572.48l-21.43,11.31-34.1,18-7.75,4.09c-.86.45-.1,1.75.76,1.3L158,595.87l34.09-18,7.75-4.09c.86-.45.1-1.75-.75-1.3Z" style="fill:#fff"/><path d="M200.8,594.79,178.22,607l-36,19.49L134,631c-.85.46-.09,1.75.76,1.29L157.36,620l36-19.49,8.22-4.46c.85-.46.1-1.75-.75-1.29Z" style="fill:#fff"/><path d="M202.52,618.29l-23.91,13-37.79,20.47-8.63,4.68c-.85.46-.09,1.75.76,1.29l23.91-13,37.8-20.47,8.62-4.67c.85-.46.09-1.76-.76-1.3Z" style="fill:#fff"/><path d="M204.9,648.85l-25.35,12-40.12,19-9.24,4.38c-.87.41-.11,1.7.76,1.29l25.34-12,40.13-19,9.23-4.37c.88-.42.12-1.71-.75-1.3Z" style="fill:#fff"/><path d="M207.25,678.49l-26.71,10.3-42.25,16.3-9.7,3.74c-.89.35-.5,1.8.4,1.45L155.7,700,198,683.68l9.7-3.74c.89-.35.5-1.8-.4-1.45Z" style="fill:#fff"/><path d="M210.52,730.13c-.05,5.61-3.46,10.33-7.7,13.74-5.56,4.48-12.57,7.06-19.49,8.51a69.36,69.36,0,0,1-25.45.51c-7.12-1.18-14.26-3.49-20.27-7.59-4.55-3.11-8.73-7.63-9.51-13.3-.76-5.48,2-10.51,5.91-14.17,5-4.7,11.6-7.53,18.15-9.25a69.08,69.08,0,0,1,25.05-1.69,54.41,54.41,0,0,1,21.66,6.78c4.87,2.88,9.58,7.1,11.14,12.74a14.14,14.14,0,0,1,.51,3.72.75.75,0,0,0,1.5,0c-.05-5.9-3.47-11-7.91-14.62-5.69-4.68-12.85-7.46-20-9a71.21,71.21,0,0,0-26.63-.59c-7.53,1.24-15.15,3.76-21.39,8.27-4.64,3.36-8.71,8.09-9.48,14-.75,5.7,1.93,11,5.92,14.93,5.12,5,12,8.1,18.87,9.94a70,70,0,0,0,26.42,1.77c7.78-.94,15.63-3.11,22.36-7.25,5-3.1,9.81-7.62,11.34-13.54a15.86,15.86,0,0,0,.5-3.87A.75.75,0,0,0,210.52,730.13Z" style="fill:#fff"/><path d="M194.14,508.89c-.12,8.16-10,12.23-16.66,13.62-9,1.89-19.92,1-27.75-4.3-2.79-1.9-5.35-4.66-5.85-8.13s1.24-6.52,3.67-8.78c6.68-6.21,17.36-7.57,26-6.64a32.42,32.42,0,0,1,14.34,4.74c3.27,2.15,6.14,5.39,6.2,9.49a.38.38,0,0,0,.75,0c-.12-8.39-9.88-12.74-16.82-14.26-9.53-2.08-21.27-1.2-29.35,4.74-2.73,2-5.12,4.82-5.59,8.28a10.8,10.8,0,0,0,3.48,9A25.48,25.48,0,0,0,158,522.69a42.49,42.49,0,0,0,16.42,1.09c5.15-.65,10.43-2.2,14.67-5.28,3.16-2.28,5.74-5.56,5.8-9.61A.38.38,0,0,0,194.14,508.89Z" style="fill:#fff"/><g style="opacity:0.200000002980232;isolation:isolate"><ellipse cx="168.97" cy="508.89" rx="25.99" ry="15.11" style="fill:#fff"/></g><path d="M210.9,732v41.84c0,6.52-4.08,11.77-9.19,15.43-8.1,5.8-18.41,8.3-28.22,8.87-10.53.61-21.59-.89-31.13-5.57-6.69-3.28-13.85-8.9-14.69-16.87a98.15,98.15,0,0,1-.07-10.15V732a.38.38,0,0,0-.75,0v30.3c0,3.94,0,7.88,0,11.82,0,6.88,4.64,12.41,10.07,16.15,8.14,5.62,18.33,8.05,28.08,8.62,10.45.61,21.37-.88,30.9-5.38,6.74-3.17,13.83-8.52,15.43-16.24.71-3.43.32-7.24.32-10.71V732a.38.38,0,0,0-.75,0Z" style="fill:#fff"/><path d="M179.39,424.92a11.69,11.69,0,1,1-10.48-10.75,11.85,11.85,0,0,1,10.48,10.75c.08,1,1.58,1,1.5,0A13.18,13.18,0,1,0,171,438.58a13.38,13.38,0,0,0,9.88-13.66C180.83,424,179.33,424,179.39,424.92Z" style="fill:#fff"/><path d="M182.07,403.05a27,27,0,0,1,1.25,44.69c-.78.56,0,1.86.75,1.29a28.48,28.48,0,0,0,7.27-38.92,29.19,29.19,0,0,0-8.51-8.35c-.82-.53-1.57.77-.76,1.29Z" style="fill:#fff"/><path d="M153.15,448.63A27,27,0,0,1,154.92,402c.85-.46.1-1.76-.75-1.3a28.48,28.48,0,0,0-1.77,49.25c.81.53,1.56-.77.75-1.29Z" style="fill:#fff"/><path d="M190.47,393.76a39.38,39.38,0,0,1,12.23,49.88,40.35,40.35,0,0,1-9.57,12.15c-.73.63.34,1.69,1.06,1.06a40.85,40.85,0,0,0-3-64.38c-.78-.57-1.53.73-.75,1.29Z" style="fill:#fff"/><path d="M144,457.35a39.41,39.41,0,0,1,2.11-64.55c.81-.53.06-1.82-.75-1.29a40.85,40.85,0,0,0-2.11,67.13c.77.58,1.51-.72.75-1.29Z" style="fill:#fff"/><path d="M129.37,374.11c-12.28,8.79-21.61,21.57-25.21,36.32a59,59,0,0,0,6.76,44.09,63.92,63.92,0,0,0,17.22,18.59c.78.57,1.53-.73.76-1.29a60.15,60.15,0,0,1-23.73-36A57.91,57.91,0,0,1,113,393.47a64.36,64.36,0,0,1,17.13-18.06c.78-.56,0-1.86-.75-1.3Z" style="fill:#fff"/><path d="M209.94,472.91c11.62-9.34,20.07-22.55,22.74-37.3a58.9,58.9,0,0,0-8.5-42.32,64.34,64.34,0,0,0-16.93-17.49c-.79-.56-1.54.74-.76,1.3a60.35,60.35,0,0,1,23.91,34.14,57.63,57.63,0,0,1-5.7,42.09,64.09,64.09,0,0,1-15.82,18.52c-.75.61.32,1.66,1.06,1.06Z" style="fill:#fff"/><path d="M198.11,386.58A49.75,49.75,0,0,1,212,448.24a50.92,50.92,0,0,1-11.56,14.92c-.73.64.34,1.7,1.06,1.06a51.19,51.19,0,0,0-2.28-78.7c-.75-.59-1.82.47-1.06,1.06Z" style="fill:#fff"/><path d="M136.08,464.28A49.73,49.73,0,0,1,137.83,386c.76-.57,0-1.87-.76-1.29a51.18,51.18,0,0,0-2,80.66c.74.61,1.8-.44,1.06-1.06Z" style="fill:#fff"/><path d="M215.9,368.54a74.89,74.89,0,0,1,3.53,111.37c-.69.67.37,1.73,1.06,1.06A76.37,76.37,0,0,0,217,367.48c-.73-.62-1.8.43-1.06,1.06Z" style="fill:#fff"/><path d="M117.47,481.55a74.94,74.94,0,0,1,1.12-112.46c.73-.64-.33-1.69-1.06-1.06a76.4,76.4,0,0,0-1.12,114.58c.72.65,1.78-.41,1.06-1.06Z" style="fill:#fff"/><path d="M167.46,798.89l-9-.81-8.33-1.84-7.76-3-6.27-3.72-5.64-5.47-2.59-4.69-.94-3.54v0l.09-8.38.22-35.92,1.71,5.05,3.3,4.8,4.06,3.62,4.39,2.77,5,2.34,9.37,2.77,10.25,1.41h7l7.6-.82,7.55-1.63,7-2.53,4.41-2.26,5.29-3.82,2.56-2.63,2.51-3.8,2.12-5v40.55l-.12,3.75-1.15,4.15-3,4.78-6.38,5.56-5.19,2.88-8.9,3.2-10,1.82Zm-36.54-15.06,5.52,5.34,6.19,3.67,7.68,2.92,8.26,1.83,8.91.8,9.29-.39,9.89-1.81,8.82-3.17,5.12-2.84,6.31-5.51L209.8,780l1.11-4,.11-3.68V734.26L209.84,737l-2.56,3.88-2.62,2.7-5.36,3.87-4.47,2.29-7.12,2.55-7.6,1.65-7.65.82h-7.08l-10.32-1.42-9.45-2.79-5.11-2.37-4.45-2.81-4.13-3.69-3.39-4.94-.77-2.27-.2,33-.09,8.35.91,3.42Z" style="fill:#fff"/><path d="M998.22,509.31l.44,5.87,1.21,16,1.79,23.53,2.18,28.82,2.4,31.57,2.41,31.74,2.25,29.72,1.9,25.1,1.37,18.05c.22,2.84.41,5.68.65,8.51l0,.37c.07,1,1.57,1,1.5,0l-.45-5.87-1.21-16-1.79-23.53-2.18-28.82-2.4-31.57-2.4-31.74-2.26-29.72-1.9-25.1-1.37-18c-.21-2.84-.4-5.68-.65-8.52,0-.12,0-.24,0-.36-.08-1-1.58-1-1.5,0Z" style="fill:#fff"/><path d="M932.59,727.21l.42-5.86,1.15-15.85L935.85,682l2.06-28.6,2.26-31.45,2.29-31.74,2.12-29.49,1.8-24.92,1.29-18c.21-2.83.51-5.67.61-8.51l0-.36c.07-1-1.43-1-1.5,0l-.42,5.86-1.14,15.85-1.7,23.54-2.06,28.6-2.26,31.45-2.29,31.74-2.12,29.49L933,700.34l-1.3,18c-.2,2.83-.5,5.67-.61,8.51l0,.36c-.07,1,1.43,1,1.5,0Z" style="fill:#fff"/><path d="M956.43,752l.36-6.11,1-16.62,1.44-24.48,1.75-30,1.92-32.71,2-33.15,1.81-30.9,1.53-26.1,1.1-18.71c.17-3,.43-5.93.52-8.89,0-.13,0-.25,0-.38.06-1-1.44-1-1.5,0l-.36,6.11-1,16.62-1.44,24.48-1.76,30-1.91,32.71-2,33.14-1.81,30.9-1.53,26.11-1.1,18.7c-.17,3-.43,5.93-.52,8.9,0,.12,0,.25,0,.37-.06,1,1.44,1,1.5,0Z" style="fill:#fff"/><path d="M972.8,506.7l0-23.15-.09-36.87,0-8.4a.75.75,0,0,0-1.5,0l.06,23.15.08,36.86,0,8.41a.75.75,0,0,0,1.5,0Z" style="fill:#fff"/><path d="M945.65,530.86l19.14,10.37,30.51,16.53,7,3.79c.84.46,1.6-.84.75-1.3l-19.14-10.37L953.4,533.35l-7-3.79c-.84-.46-1.6.84-.75,1.3Z" style="fill:#fff"/><path d="M943.75,557.21l20.71,13.12,33,20.93,7.61,4.82c.82.52,1.57-.78.76-1.29l-20.72-13.12-33-20.93-7.61-4.83c-.82-.52-1.57.78-.76,1.3Z" style="fill:#fff"/><path d="M941.89,583l22,12.37,35,19.7,8,4.48a.75.75,0,0,0,.75-1.3l-22-12.37-35-19.69-8-4.49c-.85-.47-1.6.83-.76,1.3Z" style="fill:#fff"/><path d="M940.15,607.18l23.38,14.54,37.22,23.15,8.47,5.28c.82.51,1.58-.79.76-1.3L986.6,634.31l-37.22-23.16-8.47-5.27c-.82-.51-1.58.79-.76,1.3Z" style="fill:#fff"/><path d="M938.35,632.26l7.22,4.71L963,648.35l21,13.72,18.3,11.92,6,3.91a31.33,31.33,0,0,0,2.87,1.87l.13.09c.81.53,1.57-.77.76-1.29l-7.23-4.71-17.46-11.38-21.05-13.72-18.3-11.92-6-3.92c-.94-.61-1.88-1.36-2.87-1.87l-.14-.08c-.81-.53-1.56.77-.75,1.29Z" style="fill:#fff"/><path d="M936.52,657.69l7.66,5.17,18.41,12.41,22.29,15,19.36,13.05,6.35,4.28a36.3,36.3,0,0,0,3,2l.13.09c.8.54,1.56-.76.76-1.3l-7.67-5.17-18.41-12.41-22.28-15L946.77,662.8l-6.35-4.28a33.73,33.73,0,0,0-3-2l-.14-.09c-.8-.54-1.55.75-.75,1.29Z" style="fill:#fff"/><path d="M999.64,522.47l-19,11.35-30,17.95-6.92,4.14a.75.75,0,0,0,.76,1.3l19-11.36,30-18,6.92-4.14a.75.75,0,0,0-.75-1.29Z" style="fill:#fff"/><path d="M1001.14,549.64l-20,10.85-31.9,17.29-7.33,4c-.85.46-.09,1.76.76,1.3l20-10.85,31.91-17.28,7.33-4c.85-.46.09-1.76-.76-1.3Z" style="fill:#fff"/><path d="M1003.43,572.48,982,583.79l-34.1,18-7.75,4.09c-.85.45-.09,1.75.76,1.3l21.43-11.31,34.1-18,7.75-4.09c.85-.45.09-1.75-.76-1.3Z" style="fill:#fff"/><path d="M1005.12,594.79,982.54,607l-36,19.49L938.35,631c-.85.46-.1,1.75.75,1.29L961.68,620l36-19.49,8.23-4.46c.85-.46.09-1.75-.76-1.29Z" style="fill:#fff"/><path d="M1006.85,618.29l-23.92,13-37.79,20.47-8.62,4.68c-.85.46-.1,1.75.75,1.29l23.92-13L999,624.26l8.62-4.67c.85-.46.1-1.76-.75-1.3Z" style="fill:#fff"/><path d="M1009.22,648.85l-25.35,12-40.12,19-9.24,4.38c-.87.41-.11,1.7.76,1.29l25.35-12,40.12-19,9.24-4.37c.87-.42.11-1.71-.76-1.3Z" style="fill:#fff"/><path d="M1011.57,678.49l-26.71,10.3-42.25,16.3-9.7,3.74c-.89.35-.5,1.8.4,1.45L960,700l42.25-16.3,9.7-3.74c.89-.35.5-1.8-.4-1.45Z" style="fill:#fff"/><path d="M1014.85,730.13c-.05,5.61-3.47,10.33-7.7,13.74-5.57,4.48-12.57,7.06-19.5,8.51a69.36,69.36,0,0,1-25.45.51c-7.12-1.18-14.26-3.49-20.26-7.59-4.56-3.11-8.74-7.63-9.52-13.3-.76-5.48,2-10.51,5.91-14.17,5-4.7,11.6-7.53,18.16-9.25a69,69,0,0,1,25-1.69,54.36,54.36,0,0,1,21.66,6.78c4.87,2.88,9.58,7.1,11.15,12.74a14.57,14.57,0,0,1,.51,3.72.75.75,0,0,0,1.5,0c-.05-5.9-3.48-11-7.91-14.62-5.7-4.68-12.86-7.46-20-9a71.2,71.2,0,0,0-26.63-.59c-7.52,1.24-15.15,3.76-21.38,8.27-4.65,3.36-8.72,8.09-9.49,14-.75,5.7,1.93,11,5.92,14.93,5.13,5,12,8.1,18.87,9.94a70,70,0,0,0,26.42,1.77c7.79-.94,15.64-3.11,22.36-7.25,5-3.1,9.81-7.62,11.35-13.54a16.36,16.36,0,0,0,.5-3.87A.75.75,0,0,0,1014.85,730.13Z" style="fill:#fff"/><path d="M998.46,508.89c-.11,8.16-10,12.23-16.65,13.62-9.06,1.89-19.93,1-27.75-4.3-2.8-1.9-5.36-4.66-5.86-8.13s1.25-6.52,3.68-8.78c6.67-6.21,17.36-7.57,26-6.64a32.38,32.38,0,0,1,14.33,4.74c3.27,2.15,6.14,5.39,6.2,9.49a.38.38,0,0,0,.75,0c-.12-8.39-9.88-12.74-16.82-14.26-9.53-2.08-21.27-1.2-29.35,4.74-2.73,2-5.12,4.82-5.58,8.28a10.76,10.76,0,0,0,3.47,9,25.53,25.53,0,0,0,11.39,6.07,42.49,42.49,0,0,0,16.42,1.09c5.15-.65,10.43-2.2,14.67-5.28,3.16-2.28,5.75-5.56,5.8-9.61A.38.38,0,0,0,998.46,508.89Z" style="fill:#fff"/><g style="opacity:0.200000002980232;isolation:isolate"><ellipse cx="973.29" cy="508.89" rx="25.99" ry="15.11" style="fill:#fff"/></g><path d="M1015.22,732v29.15c0,4.23,0,8.46,0,12.69,0,6.52-4.08,11.77-9.19,15.43-8.09,5.8-18.4,8.3-28.21,8.87-10.54.61-21.59-.89-31.14-5.57-6.69-3.28-13.85-8.9-14.68-16.87a98.15,98.15,0,0,1-.08-10.15V732a.38.38,0,0,0-.75,0v30.3c0,3.94,0,7.88,0,11.82.05,6.88,4.64,12.41,10.07,16.15,8.14,5.62,18.33,8.05,28.09,8.62,10.45.61,21.36-.88,30.89-5.38,6.74-3.17,13.83-8.52,15.43-16.24.71-3.43.32-7.24.32-10.71V732a.38.38,0,0,0-.75,0Z" style="fill:#fff"/><path d="M983.71,424.92a11.69,11.69,0,1,1-10.48-10.75,11.85,11.85,0,0,1,10.48,10.75c.08,1,1.58,1,1.5,0a13.18,13.18,0,1,0-9.88,13.66,13.37,13.37,0,0,0,9.88-13.66C985.15,424,983.65,424,983.71,424.92Z" style="fill:#fff"/><path d="M986.39,403.05a27,27,0,0,1,8.92,36.19,27.6,27.6,0,0,1-7.67,8.5c-.77.56,0,1.86.76,1.29a28.5,28.5,0,0,0,7.27-38.92,29.22,29.22,0,0,0-8.52-8.35c-.81-.53-1.57.77-.76,1.29Z" style="fill:#fff"/><path d="M957.48,448.63A27,27,0,0,1,959.25,402c.85-.46.09-1.76-.76-1.3a28.48,28.48,0,0,0-1.77,49.25c.81.53,1.57-.77.76-1.29Z" style="fill:#fff"/><path d="M994.79,393.76A39.4,39.4,0,0,1,1007,443.64a40.51,40.51,0,0,1-9.57,12.15c-.73.63.33,1.69,1.06,1.06a40.92,40.92,0,0,0,7.92-52.93,41.81,41.81,0,0,0-10.89-11.45c-.79-.57-1.54.73-.76,1.29Z" style="fill:#fff"/><path d="M948.29,457.35a39.41,39.41,0,0,1,2.11-64.55c.8-.53.05-1.82-.76-1.29a40.85,40.85,0,0,0-2.11,67.13c.77.58,1.52-.72.76-1.29Z" style="fill:#fff"/><path d="M933.69,374.11c-12.28,8.79-21.61,21.57-25.21,36.32a58.91,58.91,0,0,0,6.77,44.09,63.78,63.78,0,0,0,17.22,18.59c.78.57,1.53-.73.75-1.29a60.09,60.09,0,0,1-23.72-36,57.86,57.86,0,0,1,7.81-42.35,64.39,64.39,0,0,1,17.14-18.06c.77-.56,0-1.86-.76-1.3Z" style="fill:#fff"/><path d="M1014.27,472.91c11.62-9.34,20.06-22.55,22.73-37.3a59,59,0,0,0-8.49-42.32,64.38,64.38,0,0,0-16.94-17.49c-.79-.56-1.54.74-.75,1.3a60.39,60.39,0,0,1,23.91,34.14,57.68,57.68,0,0,1-5.71,42.09,64.05,64.05,0,0,1-15.81,18.52c-.75.61.31,1.66,1.06,1.06Z" style="fill:#fff"/><path d="M1002.43,386.58a49.72,49.72,0,0,1,13.84,61.66,50.76,50.76,0,0,1-11.56,14.92c-.72.64.34,1.7,1.06,1.06a51.19,51.19,0,0,0-2.28-78.7c-.75-.59-1.82.47-1.06,1.06Z" style="fill:#fff"/><path d="M940.4,464.28A49.73,49.73,0,0,1,942.15,386c.76-.57,0-1.87-.76-1.29a51.18,51.18,0,0,0-2,80.66c.74.61,1.81-.44,1.06-1.06Z" style="fill:#fff"/><path d="M1020.22,368.54a74.91,74.91,0,0,1,3.54,111.37c-.7.67.36,1.73,1.06,1.06a76.35,76.35,0,0,0-3.54-113.49c-.73-.62-1.79.43-1.06,1.06Z" style="fill:#fff"/><path d="M921.8,481.55a74.93,74.93,0,0,1-15.89-91.28,76.26,76.26,0,0,1,17-21.18c.73-.64-.33-1.69-1.06-1.06a76.38,76.38,0,0,0-1.11,114.58c.71.65,1.77-.41,1.06-1.06Z" style="fill:#fff"/><path d="M971.79,798.89l-9-.81-8.33-1.84-7.75-3-6.27-3.72-5.65-5.47-2.58-4.69-1-3.54v0l.08-8.38.22-35.92,1.72,5.05,3.29,4.8,4.06,3.62,4.39,2.77,5.05,2.34,9.38,2.77,10.25,1.41h7l7.6-.82,7.55-1.63,7.05-2.53,4.41-2.26,5.3-3.82,2.56-2.63,2.51-3.8,2.12-5v40.55l-.13,3.75-1.15,4.15-3,4.78-6.38,5.56-5.2,2.88-8.9,3.2-10,1.82Zm-36.55-15.06,5.53,5.34,6.18,3.67,7.69,2.92,8.26,1.83,8.9.8,9.3-.39,9.88-1.81,8.83-3.17,5.11-2.84,6.31-5.51,2.9-4.66,1.1-4,.12-3.68V734.26l-1.19,2.78-2.56,3.88-2.62,2.7-5.36,3.87-4.47,2.29L992,752.33,984.43,754l-7.65.82H969.7l-10.32-1.42-9.45-2.79-5.11-2.37-4.45-2.81-4.13-3.69-3.38-4.94-.78-2.27-.2,33-.08,8.35.9,3.42Z" style="fill:#fff"/></g><path d="M588.5,145.8a9.68,9.68,0,1,1-8.89,8.66,9.81,9.81,0,0,1,8.89-8.66c1-.08,1-1.58,0-1.5a11.17,11.17,0,1,0,11.56,8.37,11.33,11.33,0,0,0-11.56-8.37C587.54,144.35,587.53,145.85,588.5,145.8Z" style="fill:#fff"/><path d="M566.49,141.11a27,27,0,0,1,44.68-1.25c.56.77,1.86,0,1.3-.76a28.48,28.48,0,0,0-47.28,1.25c-.53.81.77,1.57,1.3.76Z" style="fill:#fff"/><path d="M557.19,131.85a39.4,39.4,0,0,1,49.88-12.24,40.35,40.35,0,0,1,12.15,9.57c.63.73,1.69-.33,1.06-1.06a40.9,40.9,0,0,0-52.92-7.92,41.56,41.56,0,0,0-11.46,10.89c-.57.78.73,1.53,1.29.76Z" style="fill:#fff"/><path d="M550,121.53a49.69,49.69,0,0,1,76.57-2.28c.64.72,1.7-.34,1.06-1.06a51.16,51.16,0,0,0-78.7,2.28c-.59.75.47,1.81,1.07,1.06Z" style="fill:#fff"/></svg>